<mxfile host="app.diagrams.net" modified="2020-04-21T08:25:04.075Z" agent="5.0 (Macintosh; Intel Mac OS X 10_15_4) AppleWebKit/605.1.15 (KHTML, like Gecko) Version/13.1 Safari/605.1.15" etag="qzC5gEY9R-q9ekfK3K6A" version="12.9.14" type="github">
  <diagram id="02oqcfpk3BLxGNDMRyXa" name="Page-1">
    <mxGraphModel dx="1186" dy="729" grid="1" gridSize="10" guides="1" tooltips="1" connect="1" arrows="1" fold="1" page="1" pageScale="1" pageWidth="827" pageHeight="1169" math="0" shadow="0">
      <root>
        <mxCell id="0" />
        <mxCell id="1" parent="0" />
        <mxCell id="QOGCJ_LkCqJadUe-3F2g-10" style="rounded=1;orthogonalLoop=1;jettySize=auto;html=1;exitX=0.25;exitY=1;exitDx=0;exitDy=0;entryX=0;entryY=0.75;entryDx=0;entryDy=0;edgeStyle=orthogonalEdgeStyle;dashed=1;" parent="1" source="QOGCJ_LkCqJadUe-3F2g-6" target="QOGCJ_LkCqJadUe-3F2g-8" edge="1">
          <mxGeometry relative="1" as="geometry" />
        </mxCell>
        <mxCell id="QOGCJ_LkCqJadUe-3F2g-19" value="presentedIn [0-1]" style="text;html=1;align=center;verticalAlign=middle;resizable=0;points=[];labelBackgroundColor=#ffffff;" parent="QOGCJ_LkCqJadUe-3F2g-10" vertex="1" connectable="0">
          <mxGeometry x="-0.1872" y="-1" relative="1" as="geometry">
            <mxPoint x="50.97" y="20.400000000000002" as="offset" />
          </mxGeometry>
        </mxCell>
        <mxCell id="QOGCJ_LkCqJadUe-3F2g-14" style="edgeStyle=orthogonalEdgeStyle;rounded=1;orthogonalLoop=1;jettySize=auto;html=1;entryX=0;entryY=0.25;entryDx=0;entryDy=0;exitX=1;exitY=0.5;exitDx=0;exitDy=0;dashed=1;" parent="1" source="__KPjMgfYowB3F4choq--120" target="QOGCJ_LkCqJadUe-3F2g-7" edge="1">
          <mxGeometry relative="1" as="geometry">
            <mxPoint x="320" y="140" as="sourcePoint" />
          </mxGeometry>
        </mxCell>
        <mxCell id="QOGCJ_LkCqJadUe-3F2g-16" value="involves [1-5]" style="text;html=1;align=center;verticalAlign=middle;resizable=0;points=[];labelBackgroundColor=#ffffff;" parent="QOGCJ_LkCqJadUe-3F2g-14" vertex="1" connectable="0">
          <mxGeometry x="0.0233" y="-1" relative="1" as="geometry">
            <mxPoint x="-55.93" y="-21" as="offset" />
          </mxGeometry>
        </mxCell>
        <mxCell id="QOGCJ_LkCqJadUe-3F2g-6" value="&lt;div align=&quot;left&quot;&gt;&lt;ul&gt;&lt;li&gt;&lt;u&gt;Presentation&lt;br&gt;&lt;/u&gt;&lt;/li&gt;&lt;li&gt;Details&lt;br&gt;&lt;/li&gt;&lt;li&gt;Images&lt;br&gt;&lt;/li&gt;&lt;/ul&gt;&lt;/div&gt;" style="shape=ext;double=1;rounded=1;whiteSpace=wrap;html=1;spacing=-16;align=left;" parent="1" vertex="1">
          <mxGeometry x="81" y="120" width="120" height="80" as="geometry" />
        </mxCell>
        <mxCell id="QOGCJ_LkCqJadUe-3F2g-13" style="edgeStyle=orthogonalEdgeStyle;rounded=1;orthogonalLoop=1;jettySize=auto;html=1;exitX=0.75;exitY=1;exitDx=0;exitDy=0;entryX=1;entryY=0.75;entryDx=0;entryDy=0;dashed=1;" parent="1" source="QOGCJ_LkCqJadUe-3F2g-7" target="QOGCJ_LkCqJadUe-3F2g-8" edge="1">
          <mxGeometry relative="1" as="geometry" />
        </mxCell>
        <mxCell id="QOGCJ_LkCqJadUe-3F2g-21" value="isContactFor [0-1]" style="text;html=1;align=center;verticalAlign=middle;resizable=0;points=[];labelBackgroundColor=#ffffff;" parent="QOGCJ_LkCqJadUe-3F2g-13" vertex="1" connectable="0">
          <mxGeometry x="0.0524" y="-39" relative="1" as="geometry">
            <mxPoint x="-47.64" y="29" as="offset" />
          </mxGeometry>
        </mxCell>
        <mxCell id="QOGCJ_LkCqJadUe-3F2g-15" style="edgeStyle=orthogonalEdgeStyle;rounded=1;orthogonalLoop=1;jettySize=auto;html=1;entryX=1;entryY=0.75;entryDx=0;entryDy=0;exitX=0;exitY=0.5;exitDx=0;exitDy=0;dashed=1;" parent="1" source="__KPjMgfYowB3F4choq--118" target="QOGCJ_LkCqJadUe-3F2g-6" edge="1">
          <mxGeometry relative="1" as="geometry">
            <mxPoint x="250" y="170" as="sourcePoint" />
          </mxGeometry>
        </mxCell>
        <mxCell id="QOGCJ_LkCqJadUe-3F2g-18" value="isInvolvedIn [1-3]" style="text;html=1;align=center;verticalAlign=middle;resizable=0;points=[];labelBackgroundColor=#ffffff;" parent="QOGCJ_LkCqJadUe-3F2g-15" vertex="1" connectable="0">
          <mxGeometry x="0.15" relative="1" as="geometry">
            <mxPoint x="61.84" y="20" as="offset" />
          </mxGeometry>
        </mxCell>
        <mxCell id="QOGCJ_LkCqJadUe-3F2g-7" value="&lt;div&gt;&lt;ul&gt;&lt;li&gt;&lt;u&gt;Description&lt;/u&gt;&lt;/li&gt;&lt;li&gt;Image&lt;br&gt;&lt;u&gt;&lt;/u&gt;&lt;/li&gt;&lt;/ul&gt;&lt;/div&gt;" style="shape=ext;double=1;rounded=1;whiteSpace=wrap;html=1;spacing=-16;align=left;" parent="1" vertex="1">
          <mxGeometry x="400" y="120" width="120" height="80" as="geometry" />
        </mxCell>
        <mxCell id="QOGCJ_LkCqJadUe-3F2g-11" style="edgeStyle=orthogonalEdgeStyle;rounded=1;orthogonalLoop=1;jettySize=auto;html=1;exitX=0;exitY=0.25;exitDx=0;exitDy=0;entryX=0.75;entryY=1;entryDx=0;entryDy=0;dashed=1;" parent="1" source="QOGCJ_LkCqJadUe-3F2g-8" target="QOGCJ_LkCqJadUe-3F2g-6" edge="1">
          <mxGeometry relative="1" as="geometry" />
        </mxCell>
        <mxCell id="QOGCJ_LkCqJadUe-3F2g-20" value="presents [0-1]" style="text;html=1;align=center;verticalAlign=middle;resizable=0;points=[];labelBackgroundColor=#ffffff;" parent="QOGCJ_LkCqJadUe-3F2g-11" vertex="1" connectable="0">
          <mxGeometry x="0.4041" y="-3" relative="1" as="geometry">
            <mxPoint x="46" y="-5.500000000000002" as="offset" />
          </mxGeometry>
        </mxCell>
        <mxCell id="QOGCJ_LkCqJadUe-3F2g-12" style="edgeStyle=orthogonalEdgeStyle;rounded=1;orthogonalLoop=1;jettySize=auto;html=1;exitX=1;exitY=0.25;exitDx=0;exitDy=0;entryX=0.25;entryY=1;entryDx=0;entryDy=0;dashed=1;" parent="1" source="QOGCJ_LkCqJadUe-3F2g-8" target="QOGCJ_LkCqJadUe-3F2g-7" edge="1">
          <mxGeometry relative="1" as="geometry">
            <mxPoint x="420" y="290" as="targetPoint" />
          </mxGeometry>
        </mxCell>
        <mxCell id="QOGCJ_LkCqJadUe-3F2g-22" value="contact [1-1]" style="text;html=1;align=center;verticalAlign=middle;resizable=0;points=[];labelBackgroundColor=#ffffff;" parent="QOGCJ_LkCqJadUe-3F2g-12" vertex="1" connectable="0">
          <mxGeometry x="-0.5069" y="2" relative="1" as="geometry">
            <mxPoint x="-11.599999999999998" y="-58" as="offset" />
          </mxGeometry>
        </mxCell>
        <mxCell id="QOGCJ_LkCqJadUe-3F2g-8" value="&lt;ul&gt;&lt;li&gt;&lt;u&gt;Presentation&lt;/u&gt;&lt;br&gt;&lt;/li&gt;&lt;li&gt;Details&lt;br&gt;&lt;/li&gt;&lt;li&gt;Image&lt;br&gt;&lt;/li&gt;&lt;/ul&gt;" style="shape=ext;double=1;rounded=1;whiteSpace=wrap;html=1;align=left;spacing=-16;" parent="1" vertex="1">
          <mxGeometry x="240" y="280" width="120" height="80" as="geometry" />
        </mxCell>
        <mxCell id="QOGCJ_LkCqJadUe-3F2g-9" value="&lt;div align=&quot;left&quot;&gt;&lt;ul&gt;&lt;li&gt;&lt;u&gt;Overview&lt;/u&gt;&lt;/li&gt;&lt;li&gt;Contact form&lt;/li&gt;&lt;/ul&gt;&lt;/div&gt;" style="rounded=1;whiteSpace=wrap;html=1;align=left;spacing=-16;" parent="1" vertex="1">
          <mxGeometry x="640" y="120" width="120" height="80" as="geometry" />
        </mxCell>
        <mxCell id="QOGCJ_LkCqJadUe-3F2g-28" value="" style="shape=flexArrow;endArrow=classic;html=1;" parent="1" edge="1">
          <mxGeometry width="50" height="50" relative="1" as="geometry">
            <mxPoint x="139.6" y="80" as="sourcePoint" />
            <mxPoint x="139.6" y="110" as="targetPoint" />
          </mxGeometry>
        </mxCell>
        <mxCell id="QOGCJ_LkCqJadUe-3F2g-29" value="All Services" style="text;html=1;align=center;verticalAlign=middle;resizable=0;points=[];autosize=1;" parent="1" vertex="1">
          <mxGeometry x="154.61" y="45.5" width="80" height="20" as="geometry" />
        </mxCell>
        <mxCell id="QOGCJ_LkCqJadUe-3F2g-31" value="" style="shape=flexArrow;endArrow=classic;html=1;" parent="1" edge="1">
          <mxGeometry width="50" height="50" relative="1" as="geometry">
            <mxPoint x="459.5999999999999" y="80" as="sourcePoint" />
            <mxPoint x="459.5999999999999" y="110" as="targetPoint" />
          </mxGeometry>
        </mxCell>
        <mxCell id="QOGCJ_LkCqJadUe-3F2g-32" value="All People" style="text;html=1;align=center;verticalAlign=middle;resizable=0;points=[];autosize=1;" parent="1" vertex="1">
          <mxGeometry x="474.61" y="45.5" width="70" height="20" as="geometry" />
        </mxCell>
        <mxCell id="QOGCJ_LkCqJadUe-3F2g-33" value="" style="shape=flexArrow;endArrow=classic;html=1;" parent="1" edge="1">
          <mxGeometry width="50" height="50" relative="1" as="geometry">
            <mxPoint x="299.6" y="400" as="sourcePoint" />
            <mxPoint x="299.5999999999999" y="370" as="targetPoint" />
          </mxGeometry>
        </mxCell>
        <mxCell id="QOGCJ_LkCqJadUe-3F2g-34" value="Events by month [12-12]" style="text;html=1;align=center;verticalAlign=middle;resizable=0;points=[];autosize=1;" parent="1" vertex="1">
          <mxGeometry x="317.5" y="420" width="140" height="20" as="geometry" />
        </mxCell>
        <mxCell id="QOGCJ_LkCqJadUe-3F2g-37" value="" style="shape=flexArrow;endArrow=classic;html=1;" parent="1" edge="1">
          <mxGeometry width="50" height="50" relative="1" as="geometry">
            <mxPoint x="299.5999999999999" y="490" as="sourcePoint" />
            <mxPoint x="299.5999999999999" y="460" as="targetPoint" />
          </mxGeometry>
        </mxCell>
        <mxCell id="QOGCJ_LkCqJadUe-3F2g-38" value="All Events" style="text;html=1;align=center;verticalAlign=middle;resizable=0;points=[];autosize=1;" parent="1" vertex="1">
          <mxGeometry x="315.1" y="505.5" width="70" height="20" as="geometry" />
        </mxCell>
        <mxCell id="__KPjMgfYowB3F4choq--1" value="Service [5-100]" style="text;html=1;strokeColor=none;fillColor=none;align=center;verticalAlign=middle;whiteSpace=wrap;rounded=0;" parent="1" vertex="1">
          <mxGeometry x="30" y="100" width="90" height="20" as="geometry" />
        </mxCell>
        <mxCell id="__KPjMgfYowB3F4choq--3" value="Event [5-100]" style="text;html=1;strokeColor=none;fillColor=none;align=center;verticalAlign=middle;whiteSpace=wrap;rounded=0;" parent="1" vertex="1">
          <mxGeometry x="255" y="260" width="90" height="20" as="geometry" />
        </mxCell>
        <mxCell id="__KPjMgfYowB3F4choq--4" value="Person [5-100]" style="text;html=1;" parent="1" vertex="1">
          <mxGeometry x="345" y="95" width="85" height="30" as="geometry" />
        </mxCell>
        <mxCell id="__KPjMgfYowB3F4choq--107" value="" style="shape=image;verticalLabelPosition=bottom;verticalAlign=top;imageAspect=0;aspect=fixed;image=data:image/svg+xml,PHN2ZyB4bWxuczpkYz0iaHR0cDovL3B1cmwub3JnL2RjL2VsZW1lbnRzLzEuMS8iIHhtbG5zOmNjPSJodHRwOi8vY3JlYXRpdmVjb21tb25zLm9yZy9ucyMiIHhtbG5zOnJkZj0iaHR0cDovL3d3dy53My5vcmcvMTk5OS8wMi8yMi1yZGYtc3ludGF4LW5zIyIgeG1sbnM6c3ZnPSJodHRwOi8vd3d3LnczLm9yZy8yMDAwL3N2ZyIgeG1sbnM9Imh0dHA6Ly93d3cudzMub3JnLzIwMDAvc3ZnIiB4bWxuczp4bGluaz0iaHR0cDovL3d3dy53My5vcmcvMTk5OS94bGluayIgeG1sbnM6c29kaXBvZGk9Imh0dHA6Ly9zb2RpcG9kaS5zb3VyY2Vmb3JnZS5uZXQvRFREL3NvZGlwb2RpLTAuZHRkIiB4bWxuczppbmtzY2FwZT0iaHR0cDovL3d3dy5pbmtzY2FwZS5vcmcvbmFtZXNwYWNlcy9pbmtzY2FwZSIgd2lkdGg9IjEzNC4zMjQ0bW0iIGhlaWdodD0iMTMyLjg2NTY5bW0iIHZpZXdCb3g9IjAgMCAxMzQuMzI0NCAxMzIuODY1NjkiIHZlcnNpb249IjEuMSIgaWQ9InN2ZzgyMCIgaW5rc2NhcGU6dmVyc2lvbj0iMC45Mi40ICg1ZGE2ODljMzEzLCAyMDE5LTAxLTE0KSIgc29kaXBvZGk6ZG9jbmFtZT0iSW50cm9kdWN0b3J5IGFjdCAtIE11bHRpcGxlIGdyb3VwcyBvZiB0b3BpY3Muc3ZnIj4mI3hhOyAgPGRlZnMgaWQ9ImRlZnM4MTQiPiYjeGE7ICAgIDxsaW5lYXJHcmFkaWVudCBpbmtzY2FwZTpjb2xsZWN0PSJhbHdheXMiIGlkPSJsaW5lYXJHcmFkaWVudDE4MTUiPiYjeGE7ICAgICAgPHN0b3Agc3R5bGU9InN0b3AtY29sb3I6IzY2Mzc2NjtzdG9wLW9wYWNpdHk6MSIgb2Zmc2V0PSIwIiBpZD0ic3RvcDE4MTEiLz4mI3hhOyAgICAgIDxzdG9wIHN0eWxlPSJzdG9wLWNvbG9yOiNhZjc2YmQ7c3RvcC1vcGFjaXR5OjEiIG9mZnNldD0iMSIgaWQ9InN0b3AxODEzIi8+JiN4YTsgICAgPC9saW5lYXJHcmFkaWVudD4mI3hhOyAgICA8ZmlsdGVyIGlua3NjYXBlOmNvbGxlY3Q9ImFsd2F5cyIgc3R5bGU9ImNvbG9yLWludGVycG9sYXRpb24tZmlsdGVyczpzUkdCIiBpZD0iZmlsdGVyMTY4MyIgeD0iLTAuMDQ3MTk2NjEyIiB3aWR0aD0iMS4wOTQzOTMzIiB5PSItMC4wNDY0MDk5OTgiIGhlaWdodD0iMS4wOTI4MiI+JiN4YTsgICAgICA8ZmVHYXVzc2lhbkJsdXIgaW5rc2NhcGU6Y29sbGVjdD0iYWx3YXlzIiBzdGREZXZpYXRpb249IjAuNDM4NTQ2ODciIGlkPSJmZUdhdXNzaWFuQmx1cjE2ODUiLz4mI3hhOyAgICA8L2ZpbHRlcj4mI3hhOyAgICA8bGluZWFyR3JhZGllbnQgaW5rc2NhcGU6Y29sbGVjdD0iYWx3YXlzIiB4bGluazpocmVmPSIjbGluZWFyR3JhZGllbnQxODE1IiBpZD0ibGluZWFyR3JhZGllbnQxODU3IiB4MT0iMTUxLjM3OTQ3IiB5MT0iOTEuNzU4OTI2IiB4Mj0iMTQ2Ljg0Mzc1IiB5Mj0iMTA1LjkzMzA0IiBncmFkaWVudFVuaXRzPSJ1c2VyU3BhY2VPblVzZSIvPiYjeGE7ICA8L2RlZnM+JiN4YTsgIDxzb2RpcG9kaTpuYW1lZHZpZXcgaWQ9ImJhc2UiIHBhZ2Vjb2xvcj0iI2ZmZmZmZiIgYm9yZGVyY29sb3I9IiM2NjY2NjYiIGJvcmRlcm9wYWNpdHk9IjEuMCIgaW5rc2NhcGU6cGFnZW9wYWNpdHk9IjAuMCIgaW5rc2NhcGU6cGFnZXNoYWRvdz0iMiIgaW5rc2NhcGU6em9vbT0iMC4zNSIgaW5rc2NhcGU6Y3g9IjgyMy4wNjYxOSIgaW5rc2NhcGU6Y3k9IjczMC4zMDkxIiBpbmtzY2FwZTpkb2N1bWVudC11bml0cz0ibW0iIGlua3NjYXBlOmN1cnJlbnQtbGF5ZXI9ImxheWVyNSIgc2hvd2dyaWQ9ImZhbHNlIiBpbmtzY2FwZTp3aW5kb3ctd2lkdGg9IjE5MjAiIGlua3NjYXBlOndpbmRvdy1oZWlnaHQ9IjEwMTMiIGlua3NjYXBlOndpbmRvdy14PSItOSIgaW5rc2NhcGU6d2luZG93LXk9Ii05IiBpbmtzY2FwZTp3aW5kb3ctbWF4aW1pemVkPSIxIi8+JiN4YTsgIDxtZXRhZGF0YSBpZD0ibWV0YWRhdGE4MTciPiYjeGE7ICAgIDxyZGY6UkRGPiYjeGE7ICAgICAgPGNjOldvcmsgcmRmOmFib3V0PSIiPiYjeGE7ICAgICAgICA8ZGM6Zm9ybWF0PmltYWdlL3N2Zyt4bWw8L2RjOmZvcm1hdD4mI3hhOyAgICAgICAgPGRjOnR5cGUgcmRmOnJlc291cmNlPSJodHRwOi8vcHVybC5vcmcvZGMvZGNtaXR5cGUvU3RpbGxJbWFnZSIvPiYjeGE7ICAgICAgICA8ZGM6dGl0bGUvPiYjeGE7ICAgICAgPC9jYzpXb3JrPiYjeGE7ICAgIDwvcmRmOlJERj4mI3hhOyAgPC9tZXRhZGF0YT4mI3hhOyAgPGcgaW5rc2NhcGU6bGFiZWw9IlRvcGljIiBpbmtzY2FwZTpncm91cG1vZGU9ImxheWVyIiBpZD0ibGF5ZXIxIiBzdHlsZT0iZGlzcGxheTpub25lIiB0cmFuc2Zvcm09InRyYW5zbGF0ZSgtMTQ0LjI1NDE2LC0xMDkuNTM4MDUpIj4mI3hhOyAgICA8cmVjdCByeT0iMTAuNTU0MTUxIiB5PSIxMzMuNTQ1IiB4PSIxMi4zMjUyNDUiIGhlaWdodD0iODAuNDI5OTA5IiB3aWR0aD0iMTM0Ljg1ODQ2IiBpZD0icmVjdDEzNjkiIHN0eWxlPSJvcGFjaXR5OjE7ZmlsbDpub25lO2ZpbGwtb3BhY2l0eToxO3N0cm9rZTojNjYzNzY2O3N0cm9rZS13aWR0aDoxLjM2NDE0NDQ0O3N0cm9rZS1taXRlcmxpbWl0OjQ7c3Ryb2tlLWRhc2hhcnJheTpub25lO3N0cm9rZS1vcGFjaXR5OjEiLz4mI3hhOyAgPC9nPiYjeGE7ICA8ZyBpbmtzY2FwZTpncm91cG1vZGU9ImxheWVyIiBpZD0ibGF5ZXI2IiBpbmtzY2FwZTpsYWJlbD0idHJhbnNpdGlvbiBhY3QiIHN0eWxlPSJkaXNwbGF5Om5vbmUiIHRyYW5zZm9ybT0idHJhbnNsYXRlKC0xNDQuMjU0MTYsLTEwOS41MzgwNSkiPiYjeGE7ICAgIDxnIHN0eWxlPSJkaXNwbGF5OmlubGluZSIgaWQ9ImcxODc5Ij4mI3hhOyAgICAgIDxlbGxpcHNlIHJ5PSIyMC42NjEzODEiIHJ4PSIyMi4zNjIyNzQiIGN5PSIxNDguNjQ0MzUiIGN4PSIxNjAuNjg3MTIiIGlkPSJjaXJjbGUxODU5IiBzdHlsZT0ib3BhY2l0eToxO2ZpbGw6I2ZmZmZmZjtmaWxsLW9wYWNpdHk6MTtzdHJva2U6IzY2Mzc2NjtzdHJva2Utd2lkdGg6MC44NjE5MDE0NjtzdHJva2UtbWl0ZXJsaW1pdDo0O3N0cm9rZS1kYXNoYXJyYXk6bm9uZTtzdHJva2Utb3BhY2l0eToxIi8+JiN4YTsgICAgICA8cGF0aCBpbmtzY2FwZTpjb25uZWN0b3ItY3VydmF0dXJlPSIwIiBpZD0icGF0aDE4NjEiIGQ9Im0gMTQzLjgyNzI0LDE0MC45NDczMSAzNC4zMDU4MywtMC4xNzM0MyAwLjIwNzkyLC0wLjA4NjYiIHN0eWxlPSJmaWxsOiNmZmZmZmY7ZmlsbC1vcGFjaXR5OjE7c3Ryb2tlOiM2NjM3NjY7c3Ryb2tlLXdpZHRoOjEuMDA0NzczMDI7c3Ryb2tlLWxpbmVjYXA6YnV0dDtzdHJva2UtbGluZWpvaW46bWl0ZXI7c3Ryb2tlLW1pdGVybGltaXQ6NDtzdHJva2UtZGFzaGFycmF5Om5vbmU7c3Ryb2tlLW9wYWNpdHk6MSIvPiYjeGE7ICAgICAgPHBhdGggc3R5bGU9ImZpbGw6I2ZmZmZmZjtmaWxsLW9wYWNpdHk6MTtzdHJva2U6IzY2Mzc2NjtzdHJva2Utd2lkdGg6MS4wMDQ3NzMwMjtzdHJva2UtbGluZWNhcDpidXR0O3N0cm9rZS1saW5lam9pbjptaXRlcjtzdHJva2UtbWl0ZXJsaW1pdDo0O3N0cm9rZS1kYXNoYXJyYXk6bm9uZTtzdHJva2Utb3BhY2l0eToxIiBkPSJtIDE0My40ODI2MywxNDkuMTI2NDMgMzQuMzA1ODQsLTAuMTczNDQgMC4yMDc5MiwtMC4wODY2IiBpZD0icGF0aDE4NjMiIGlua3NjYXBlOmNvbm5lY3Rvci1jdXJ2YXR1cmU9IjAiLz4mI3hhOyAgICAgIDxwYXRoIGlua3NjYXBlOmNvbm5lY3Rvci1jdXJ2YXR1cmU9IjAiIGlkPSJwYXRoMTg2NSIgZD0ibSAxNDMuNjU0OTMsMTU3LjUyNjYgMzQuMzA1ODQsLTAuMTczNDMgMC4yMDc5MiwtMC4wODY2IiBzdHlsZT0iZmlsbDojZmZmZmZmO2ZpbGwtb3BhY2l0eToxO3N0cm9rZTojNjYzNzY2O3N0cm9rZS13aWR0aDoxLjAwNDc3MzAyO3N0cm9rZS1saW5lY2FwOmJ1dHQ7c3Ryb2tlLWxpbmVqb2luOm1pdGVyO3N0cm9rZS1taXRlcmxpbWl0OjQ7c3Ryb2tlLWRhc2hhcnJheTpub25lO3N0cm9rZS1vcGFjaXR5OjEiLz4mI3hhOyAgICA8L2c+JiN4YTsgIDwvZz4mI3hhOyAgPGcgaW5rc2NhcGU6Z3JvdXBtb2RlPSJsYXllciIgaWQ9ImxheWVyNSIgaW5rc2NhcGU6bGFiZWw9IkludHJvXyBtdWx0aXBsZSBncm91cHMgb2YgdG9waWNzIiBzdHlsZT0iZGlzcGxheTppbmxpbmUiIHRyYW5zZm9ybT0idHJhbnNsYXRlKC0xNDQuMjU0MTYsLTEwOS41MzgwNSkiPiYjeGE7ICAgIDxnIHN0eWxlPSJkaXNwbGF5OmlubGluZSIgaWQ9ImcxODg3IiB0cmFuc2Zvcm09Im1hdHJpeCgyLjY0MDEyMTQsMCwwLDIuNjExNDUwNiwtMjE0LjMxNDAxLC0zODAuOTk0NzgpIj4mI3hhOyAgICAgIDxjaXJjbGUgcj0iMjQuOTM5MDU4IiBjeT0iMjEzLjI3ODI3IiBjeD0iMTYxLjI1NDA5IiBpZD0icGF0aDE3NDkiIHN0eWxlPSJvcGFjaXR5OjE7ZmlsbDojZmZmZmZmO2ZpbGwtb3BhY2l0eToxO3N0cm9rZTojNjYzNzY2O3N0cm9rZS13aWR0aDoxO3N0cm9rZS1taXRlcmxpbWl0OjQ7c3Ryb2tlLWRhc2hhcnJheTpub25lO3N0cm9rZS1vcGFjaXR5OjEiLz4mI3hhOyAgICAgIDxjaXJjbGUgc3R5bGU9Im9wYWNpdHk6MTtmaWxsOiNmZmZmZmY7ZmlsbC1vcGFjaXR5OjE7c3Ryb2tlOiM2NjM3NjY7c3Ryb2tlLXdpZHRoOjAuODgxMTM1MTc7c3Ryb2tlLW1pdGVybGltaXQ6NDtzdHJva2UtZGFzaGFycmF5Om5vbmU7c3Ryb2tlLW9wYWNpdHk6MSIgaWQ9ImNpcmNsZTE3NTEiIGN4PSIxNjEuMjU0MDkiIGN5PSIyMTMuMjc4MjciIHI9IjIxLjk3NDY4MiIvPiYjeGE7ICAgICAgPHBhdGggc29kaXBvZGk6bm9kZXR5cGVzPSJjY2MiIGlua3NjYXBlOmNvbm5lY3Rvci1jdXJ2YXR1cmU9IjAiIGlkPSJwYXRoMTc1NSIgZD0ibSAxMzkuMDAwNzQsMjAxLjkzODk5IGMgOS44MjQ0NywtMTcuODUxNjkgMzUuNjQ0MywtMTcuNzAyNDYgNDQuNjk1NjksMCB6IiBzdHlsZT0iZmlsbDojNjYzNzY2O2ZpbGwtb3BhY2l0eToxO3N0cm9rZTojNjYzNzY2O3N0cm9rZS13aWR0aDowLjI2NDU4MzMycHg7c3Ryb2tlLWxpbmVjYXA6YnV0dDtzdHJva2UtbGluZWpvaW46bWl0ZXI7c3Ryb2tlLW9wYWNpdHk6MSIvPiYjeGE7ICAgICAgPHBhdGggaW5rc2NhcGU6Y29ubmVjdG9yLWN1cnZhdHVyZT0iMCIgaWQ9InBhdGgxNzU3IiBkPSJtIDE0NS42MTUzMiwyMTAuMDY1NDggMzEuMTgzMDQsLTAuMTg4OTkgMC4xODg5OSwtMC4wOTQ1IiBzdHlsZT0iZmlsbDojZmZmZmZmO2ZpbGwtb3BhY2l0eToxO3N0cm9rZTojNjYzNzY2O3N0cm9rZS13aWR0aDoxO3N0cm9rZS1saW5lY2FwOmJ1dHQ7c3Ryb2tlLWxpbmVqb2luOm1pdGVyO3N0cm9rZS1taXRlcmxpbWl0OjQ7c3Ryb2tlLWRhc2hhcnJheTpub25lO3N0cm9rZS1vcGFjaXR5OjEiLz4mI3hhOyAgICAgIDxwYXRoIHN0eWxlPSJmaWxsOiNmZmZmZmY7ZmlsbC1vcGFjaXR5OjE7c3Ryb2tlOiM2NjM3NjY7c3Ryb2tlLXdpZHRoOjE7c3Ryb2tlLWxpbmVjYXA6YnV0dDtzdHJva2UtbGluZWpvaW46bWl0ZXI7c3Ryb2tlLW1pdGVybGltaXQ6NDtzdHJva2UtZGFzaGFycmF5Om5vbmU7c3Ryb2tlLW9wYWNpdHk6MSIgZD0ibSAxNDUuNjE1MzIsMjE2Ljg2OTA0IDMxLjE4MzA0LC0wLjE4ODk5IDAuMTg4OTksLTAuMDk0NSIgaWQ9InBhdGgxNzU5IiBpbmtzY2FwZTpjb25uZWN0b3ItY3VydmF0dXJlPSIwIi8+JiN4YTsgICAgICA8cGF0aCBpbmtzY2FwZTpjb25uZWN0b3ItY3VydmF0dXJlPSIwIiBpZD0icGF0aDE3NjEiIGQ9Im0gMTQ1LjQyNjM0LDIyMy44NjE2MSAzMS4xODMwNCwtMC4xODg5OSAwLjE4ODk5LC0wLjA5NDUiIHN0eWxlPSJmaWxsOiNmZmZmZmY7ZmlsbC1vcGFjaXR5OjE7c3Ryb2tlOiM2NjM3NjY7c3Ryb2tlLXdpZHRoOjE7c3Ryb2tlLWxpbmVjYXA6YnV0dDtzdHJva2UtbGluZWpvaW46bWl0ZXI7c3Ryb2tlLW1pdGVybGltaXQ6NDtzdHJva2UtZGFzaGFycmF5Om5vbmU7c3Ryb2tlLW9wYWNpdHk6MSIvPiYjeGE7ICAgIDwvZz4mI3hhOyAgPC9nPiYjeGE7ICA8ZyBpbmtzY2FwZTpncm91cG1vZGU9ImxheWVyIiBpZD0ibGF5ZXI0IiBpbmtzY2FwZTpsYWJlbD0iSW50cm9fR3JvdXAgb2YgdG9waWNzIiBzdHlsZT0iZGlzcGxheTpub25lIiB0cmFuc2Zvcm09InRyYW5zbGF0ZSgtMTQ0LjI1NDE2LC0xMDkuNTM4MDUpIj4mI3hhOyAgICA8ZyBzdHlsZT0iZGlzcGxheTppbmxpbmUiIGlkPSJnMTg5NCIgdHJhbnNmb3JtPSJtYXRyaXgoOS43NTM5Nzk2LDAsMCwxMC4yMDM3NTIsLTExNzIuNzgyLC0yNzA0LjI0OTMpIj4mI3hhOyAgICAgIDxjaXJjbGUgc3R5bGU9Im9wYWNpdHk6MTtmaWxsOiNmZmZmZmY7ZmlsbC1vcGFjaXR5OjE7c3Ryb2tlOiM2NjM3NjY7c3Ryb2tlLXdpZHRoOjE7c3Ryb2tlLW1pdGVybGltaXQ6NDtzdHJva2UtZGFzaGFycmF5Om5vbmU7c3Ryb2tlLW9wYWNpdHk6MSIgaWQ9ImNpcmNsZTE3NzciIGN4PSIxNjAuMzA5MTQiIGN5PSIyNjguNjUxNzkiIHI9IjI0LjkzOTA1OCIvPiYjeGE7ICAgICAgPHBhdGggc3R5bGU9ImZpbGw6IzY2Mzc2NjtmaWxsLW9wYWNpdHk6MTtzdHJva2U6IzY2Mzc2NjtzdHJva2Utd2lkdGg6MC4yNjQ1ODMzMnB4O3N0cm9rZS1saW5lY2FwOmJ1dHQ7c3Ryb2tlLWxpbmVqb2luOm1pdGVyO3N0cm9rZS1vcGFjaXR5OjEiIGQ9Im0gMTM4LjA1NTgsMjU3LjMxMjUgYyA5LjgyNDQ3LC0xNy44NTE2OSAzNS42NDQzLC0xNy43MDI0NiA0NC42OTU2OSwwIHoiIGlkPSJwYXRoMTc4MSIgaW5rc2NhcGU6Y29ubmVjdG9yLWN1cnZhdHVyZT0iMCIgc29kaXBvZGk6bm9kZXR5cGVzPSJjY2MiLz4mI3hhOyAgICAgIDxwYXRoIHN0eWxlPSJmaWxsOiNmZmZmZmY7ZmlsbC1vcGFjaXR5OjE7c3Ryb2tlOiM2NjM3NjY7c3Ryb2tlLXdpZHRoOjAuOTcyOTg0NjE7c3Ryb2tlLWxpbmVjYXA6YnV0dDtzdHJva2UtbGluZWpvaW46bWl0ZXI7c3Ryb2tlLW1pdGVybGltaXQ6NDtzdHJva2UtZGFzaGFycmF5Om5vbmU7c3Ryb2tlLW9wYWNpdHk6MSIgZD0ibSAxNDEuOTc0MDcsMjY1LjY5Njg4IDM3LjYyODI2LC0wLjE0ODI3IDAuMjI4MDYsLTAuMDc0MSIgaWQ9InBhdGgxNzgzIiBpbmtzY2FwZTpjb25uZWN0b3ItY3VydmF0dXJlPSIwIi8+JiN4YTsgICAgICA8cGF0aCBpbmtzY2FwZTpjb25uZWN0b3ItY3VydmF0dXJlPSIwIiBpZD0icGF0aDE3ODkiIGQ9Im0gMTQxLjU5NjA5LDI3Mi42ODk0NCAzNy42MjgyNiwtMC4xNDgyNyAwLjIyODA2LC0wLjA3NDEiIHN0eWxlPSJmaWxsOiNmZmZmZmY7ZmlsbC1vcGFjaXR5OjE7c3Ryb2tlOiM2NjM3NjY7c3Ryb2tlLXdpZHRoOjAuOTcyOTg0NjE7c3Ryb2tlLWxpbmVjYXA6YnV0dDtzdHJva2UtbGluZWpvaW46bWl0ZXI7c3Ryb2tlLW1pdGVybGltaXQ6NDtzdHJva2UtZGFzaGFycmF5Om5vbmU7c3Ryb2tlLW9wYWNpdHk6MSIvPiYjeGE7ICAgICAgPHBhdGggc3R5bGU9ImZpbGw6I2ZmZmZmZjtmaWxsLW9wYWNpdHk6MTtzdHJva2U6IzY2Mzc2NjtzdHJva2Utd2lkdGg6MC45NzI5ODQ2MTtzdHJva2UtbGluZWNhcDpidXR0O3N0cm9rZS1saW5lam9pbjptaXRlcjtzdHJva2UtbWl0ZXJsaW1pdDo0O3N0cm9rZS1kYXNoYXJyYXk6bm9uZTtzdHJva2Utb3BhY2l0eToxIiBkPSJtIDE0MS43ODUwOCwyNzkuODcwOTkgMzcuNjI4MjYsLTAuMTQ4MjcgMC4yMjgwNiwtMC4wNzQxIiBpZD0icGF0aDE3OTEiIGlua3NjYXBlOmNvbm5lY3Rvci1jdXJ2YXR1cmU9IjAiLz4mI3hhOyAgICA8L2c+JiN4YTsgIDwvZz4mI3hhOyAgPGcgaW5rc2NhcGU6Z3JvdXBtb2RlPSJsYXllciIgaWQ9ImxheWVyMyIgaW5rc2NhcGU6bGFiZWw9IkRpYWxvZ3VlIEFjdCIgc3R5bGU9ImRpc3BsYXk6bm9uZSIgdHJhbnNmb3JtPSJ0cmFuc2xhdGUoLTE0NC4yNTQxNiwtMTA5LjUzODA1KSI+JiN4YTsgICAgPGcgc3R5bGU9ImRpc3BsYXk6aW5saW5lIiBpZD0iZzE4NjkiPiYjeGE7ICAgICAgPGVsbGlwc2Ugc3R5bGU9Im9wYWNpdHk6MTtmaWxsOiM5OTk5OTk7ZmlsbC1vcGFjaXR5OjE7c3Ryb2tlOiM5OTk5OTk7c3Ryb2tlLXdpZHRoOjEuNTtzdHJva2UtbWl0ZXJsaW1pdDo0O3N0cm9rZS1kYXNoYXJyYXk6bm9uZTtzdHJva2Utb3BhY2l0eToxO2ZpbHRlcjp1cmwoI2ZpbHRlcjE2ODMpIiBpZD0iZWxsaXBzZTE0ODMiIGN4PSIxNDUuNzA5ODEiIGN5PSI5Ny4wNTA1ODMiIHJ4PSIxMS4xNTAyOTciIHJ5PSIxMS4zMzkyODYiLz4mI3hhOyAgICAgIDxlbGxpcHNlIHJ5PSIxMS4zMzkyODYiIHJ4PSIxMS4xNTAyOTciIGN5PSI5NC42MDcxNzgiIGN4PSIxNDcuMzA5NTEiIGlkPSJwYXRoMTM3OSIgc3R5bGU9Im9wYWNpdHk6MTtmaWxsOnVybCgjbGluZWFyR3JhZGllbnQxODU3KTtmaWxsLW9wYWNpdHk6MTtzdHJva2U6IzY2Mzc2NjtzdHJva2Utd2lkdGg6MS41O3N0cm9rZS1taXRlcmxpbWl0OjQ7c3Ryb2tlLWRhc2hhcnJheTpub25lO3N0cm9rZS1vcGFjaXR5OjEiLz4mI3hhOyAgICA8L2c+JiN4YTsgIDwvZz4mI3hhOyAgPGcgaW5rc2NhcGU6Z3JvdXBtb2RlPSJsYXllciIgaWQ9ImxheWVyMiIgaW5rc2NhcGU6bGFiZWw9Ik11bHRpcGxlIHRvcGljIiBzdHlsZT0iZGlzcGxheTpub25lIiB0cmFuc2Zvcm09InRyYW5zbGF0ZSgtMTQ0LjI1NDE2LC0xMDkuNTM4MDUpIj4mI3hhOyAgICA8cmVjdCBzdHlsZT0ib3BhY2l0eToxO2ZpbGw6bm9uZTtmaWxsLW9wYWNpdHk6MTtzdHJva2U6IzY2Mzc2NjtzdHJva2Utd2lkdGg6MS4zNzQ4NDU4NjtzdHJva2UtbWl0ZXJsaW1pdDo0O3N0cm9rZS1kYXNoYXJyYXk6bm9uZTtzdHJva2Utb3BhY2l0eToxIiBpZD0icmVjdDEzNjUiIHdpZHRoPSIxMzUuOTY3MjEiIGhlaWdodD0iODEuMDMwNTYzIiB4PSIxMy4wNzc2MTMiIHk9IjEzMy4yNjQ0NyIgcnk9IjEwLjYzMjk3Ii8+JiN4YTsgICAgPHJlY3Qgcnk9IjkuNDQ4MDU2MiIgeT0iMTM3Ljk3MDU1IiB4PSIxOS42NjQ5NjgiIGhlaWdodD0iNzIuMDAwNjk0IiB3aWR0aD0iMTIyLjc5MjQ5IiBpZD0icmVjdDEzNjciIHN0eWxlPSJvcGFjaXR5OjE7ZmlsbDpub25lO2ZpbGwtb3BhY2l0eToxO3N0cm9rZTojNjYzNzY2O3N0cm9rZS13aWR0aDoxLjM0Mjc1OTAxO3N0cm9rZS1taXRlcmxpbWl0OjQ7c3Ryb2tlLWRhc2hhcnJheTpub25lO3N0cm9rZS1vcGFjaXR5OjEiLz4mI3hhOyAgPC9nPiYjeGE7PC9zdmc+;shadow=0;labelBackgroundColor=none;fillColor=#000000;gradientColor=none;" parent="1" vertex="1">
          <mxGeometry x="284.88" y="415" width="30.22" height="30" as="geometry" />
        </mxCell>
        <mxCell id="__KPjMgfYowB3F4choq--109" value="" style="shape=image;verticalLabelPosition=bottom;verticalAlign=top;imageAspect=0;aspect=fixed;image=data:image/svg+xml,PHN2ZyB4bWxuczpkYz0iaHR0cDovL3B1cmwub3JnL2RjL2VsZW1lbnRzLzEuMS8iIHhtbG5zOmNjPSJodHRwOi8vY3JlYXRpdmVjb21tb25zLm9yZy9ucyMiIHhtbG5zOnJkZj0iaHR0cDovL3d3dy53My5vcmcvMTk5OS8wMi8yMi1yZGYtc3ludGF4LW5zIyIgeG1sbnM6c3ZnPSJodHRwOi8vd3d3LnczLm9yZy8yMDAwL3N2ZyIgeG1sbnM9Imh0dHA6Ly93d3cudzMub3JnLzIwMDAvc3ZnIiB4bWxuczp4bGluaz0iaHR0cDovL3d3dy53My5vcmcvMTk5OS94bGluayIgeG1sbnM6c29kaXBvZGk9Imh0dHA6Ly9zb2RpcG9kaS5zb3VyY2Vmb3JnZS5uZXQvRFREL3NvZGlwb2RpLTAuZHRkIiB4bWxuczppbmtzY2FwZT0iaHR0cDovL3d3dy5pbmtzY2FwZS5vcmcvbmFtZXNwYWNlcy9pbmtzY2FwZSIgd2lkdGg9IjEzNC4zMjQ0bW0iIGhlaWdodD0iMTMyLjg2NTY5bW0iIHZpZXdCb3g9IjAgMCAxMzQuMzI0NCAxMzIuODY1NjkiIHZlcnNpb249IjEuMSIgaWQ9InN2ZzgyMCIgaW5rc2NhcGU6dmVyc2lvbj0iMC45Mi40ICg1ZGE2ODljMzEzLCAyMDE5LTAxLTE0KSIgc29kaXBvZGk6ZG9jbmFtZT0iSW50cm9kdWN0b3J5IGFjdCAtIEdyb3VwIG9mIHRvcGljcy5zdmciPiYjeGE7ICA8ZGVmcyBpZD0iZGVmczgxNCI+JiN4YTsgICAgPGxpbmVhckdyYWRpZW50IGlua3NjYXBlOmNvbGxlY3Q9ImFsd2F5cyIgaWQ9ImxpbmVhckdyYWRpZW50MTgxNSI+JiN4YTsgICAgICA8c3RvcCBzdHlsZT0ic3RvcC1jb2xvcjojNjYzNzY2O3N0b3Atb3BhY2l0eToxIiBvZmZzZXQ9IjAiIGlkPSJzdG9wMTgxMSIvPiYjeGE7ICAgICAgPHN0b3Agc3R5bGU9InN0b3AtY29sb3I6I2FmNzZiZDtzdG9wLW9wYWNpdHk6MSIgb2Zmc2V0PSIxIiBpZD0ic3RvcDE4MTMiLz4mI3hhOyAgICA8L2xpbmVhckdyYWRpZW50PiYjeGE7ICAgIDxmaWx0ZXIgaW5rc2NhcGU6Y29sbGVjdD0iYWx3YXlzIiBzdHlsZT0iY29sb3ItaW50ZXJwb2xhdGlvbi1maWx0ZXJzOnNSR0IiIGlkPSJmaWx0ZXIxNjgzIiB4PSItMC4wNDcxOTY2MTIiIHdpZHRoPSIxLjA5NDM5MzMiIHk9Ii0wLjA0NjQwOTk5OCIgaGVpZ2h0PSIxLjA5MjgyIj4mI3hhOyAgICAgIDxmZUdhdXNzaWFuQmx1ciBpbmtzY2FwZTpjb2xsZWN0PSJhbHdheXMiIHN0ZERldmlhdGlvbj0iMC40Mzg1NDY4NyIgaWQ9ImZlR2F1c3NpYW5CbHVyMTY4NSIvPiYjeGE7ICAgIDwvZmlsdGVyPiYjeGE7ICAgIDxsaW5lYXJHcmFkaWVudCBpbmtzY2FwZTpjb2xsZWN0PSJhbHdheXMiIHhsaW5rOmhyZWY9IiNsaW5lYXJHcmFkaWVudDE4MTUiIGlkPSJsaW5lYXJHcmFkaWVudDE4NTciIHgxPSIxNTEuMzc5NDciIHkxPSI5MS43NTg5MjYiIHgyPSIxNDYuODQzNzUiIHkyPSIxMDUuOTMzMDQiIGdyYWRpZW50VW5pdHM9InVzZXJTcGFjZU9uVXNlIi8+JiN4YTsgIDwvZGVmcz4mI3hhOyAgPHNvZGlwb2RpOm5hbWVkdmlldyBpZD0iYmFzZSIgcGFnZWNvbG9yPSIjZmZmZmZmIiBib3JkZXJjb2xvcj0iIzY2NjY2NiIgYm9yZGVyb3BhY2l0eT0iMS4wIiBpbmtzY2FwZTpwYWdlb3BhY2l0eT0iMC4wIiBpbmtzY2FwZTpwYWdlc2hhZG93PSIyIiBpbmtzY2FwZTp6b29tPSIwLjM1IiBpbmtzY2FwZTpjeD0iODI2LjYzNzc4IiBpbmtzY2FwZTpjeT0iOTM5LjU5NSIgaW5rc2NhcGU6ZG9jdW1lbnQtdW5pdHM9Im1tIiBpbmtzY2FwZTpjdXJyZW50LWxheWVyPSJsYXllcjQiIHNob3dncmlkPSJmYWxzZSIgaW5rc2NhcGU6d2luZG93LXdpZHRoPSIxOTIwIiBpbmtzY2FwZTp3aW5kb3ctaGVpZ2h0PSIxMDEzIiBpbmtzY2FwZTp3aW5kb3cteD0iLTkiIGlua3NjYXBlOndpbmRvdy15PSItOSIgaW5rc2NhcGU6d2luZG93LW1heGltaXplZD0iMSIvPiYjeGE7ICA8bWV0YWRhdGEgaWQ9Im1ldGFkYXRhODE3Ij4mI3hhOyAgICA8cmRmOlJERj4mI3hhOyAgICAgIDxjYzpXb3JrIHJkZjphYm91dD0iIj4mI3hhOyAgICAgICAgPGRjOmZvcm1hdD5pbWFnZS9zdmcreG1sPC9kYzpmb3JtYXQ+JiN4YTsgICAgICAgIDxkYzp0eXBlIHJkZjpyZXNvdXJjZT0iaHR0cDovL3B1cmwub3JnL2RjL2RjbWl0eXBlL1N0aWxsSW1hZ2UiLz4mI3hhOyAgICAgICAgPGRjOnRpdGxlLz4mI3hhOyAgICAgIDwvY2M6V29yaz4mI3hhOyAgICA8L3JkZjpSREY+JiN4YTsgIDwvbWV0YWRhdGE+JiN4YTsgIDxnIGlua3NjYXBlOmxhYmVsPSJUb3BpYyIgaW5rc2NhcGU6Z3JvdXBtb2RlPSJsYXllciIgaWQ9ImxheWVyMSIgc3R5bGU9ImRpc3BsYXk6bm9uZSIgdHJhbnNmb3JtPSJ0cmFuc2xhdGUoLTE0My4zMDkxOCwtMTY0LjkxMTYyKSI+JiN4YTsgICAgPHJlY3Qgcnk9IjEwLjU1NDE1MSIgeT0iMTMzLjU0NSIgeD0iMTIuMzI1MjQ1IiBoZWlnaHQ9IjgwLjQyOTkwOSIgd2lkdGg9IjEzNC44NTg0NiIgaWQ9InJlY3QxMzY5IiBzdHlsZT0ib3BhY2l0eToxO2ZpbGw6bm9uZTtmaWxsLW9wYWNpdHk6MTtzdHJva2U6IzY2Mzc2NjtzdHJva2Utd2lkdGg6MS4zNjQxNDQ0NDtzdHJva2UtbWl0ZXJsaW1pdDo0O3N0cm9rZS1kYXNoYXJyYXk6bm9uZTtzdHJva2Utb3BhY2l0eToxIi8+JiN4YTsgIDwvZz4mI3hhOyAgPGcgaW5rc2NhcGU6Z3JvdXBtb2RlPSJsYXllciIgaWQ9ImxheWVyNiIgaW5rc2NhcGU6bGFiZWw9InRyYW5zaXRpb24gYWN0IiBzdHlsZT0iZGlzcGxheTpub25lIiB0cmFuc2Zvcm09InRyYW5zbGF0ZSgtMTQzLjMwOTE4LC0xNjQuOTExNjIpIj4mI3hhOyAgICA8ZyBzdHlsZT0iZGlzcGxheTppbmxpbmUiIGlkPSJnMTg3OSI+JiN4YTsgICAgICA8ZWxsaXBzZSByeT0iMjAuNjYxMzgxIiByeD0iMjIuMzYyMjc0IiBjeT0iMTQ4LjY0NDM1IiBjeD0iMTYwLjY4NzEyIiBpZD0iY2lyY2xlMTg1OSIgc3R5bGU9Im9wYWNpdHk6MTtmaWxsOiNmZmZmZmY7ZmlsbC1vcGFjaXR5OjE7c3Ryb2tlOiM2NjM3NjY7c3Ryb2tlLXdpZHRoOjAuODYxOTAxNDY7c3Ryb2tlLW1pdGVybGltaXQ6NDtzdHJva2UtZGFzaGFycmF5Om5vbmU7c3Ryb2tlLW9wYWNpdHk6MSIvPiYjeGE7ICAgICAgPHBhdGggaW5rc2NhcGU6Y29ubmVjdG9yLWN1cnZhdHVyZT0iMCIgaWQ9InBhdGgxODYxIiBkPSJtIDE0My44MjcyNCwxNDAuOTQ3MzEgMzQuMzA1ODMsLTAuMTczNDMgMC4yMDc5MiwtMC4wODY2IiBzdHlsZT0iZmlsbDojZmZmZmZmO2ZpbGwtb3BhY2l0eToxO3N0cm9rZTojNjYzNzY2O3N0cm9rZS13aWR0aDoxLjAwNDc3MzAyO3N0cm9rZS1saW5lY2FwOmJ1dHQ7c3Ryb2tlLWxpbmVqb2luOm1pdGVyO3N0cm9rZS1taXRlcmxpbWl0OjQ7c3Ryb2tlLWRhc2hhcnJheTpub25lO3N0cm9rZS1vcGFjaXR5OjEiLz4mI3hhOyAgICAgIDxwYXRoIHN0eWxlPSJmaWxsOiNmZmZmZmY7ZmlsbC1vcGFjaXR5OjE7c3Ryb2tlOiM2NjM3NjY7c3Ryb2tlLXdpZHRoOjEuMDA0NzczMDI7c3Ryb2tlLWxpbmVjYXA6YnV0dDtzdHJva2UtbGluZWpvaW46bWl0ZXI7c3Ryb2tlLW1pdGVybGltaXQ6NDtzdHJva2UtZGFzaGFycmF5Om5vbmU7c3Ryb2tlLW9wYWNpdHk6MSIgZD0ibSAxNDMuNDgyNjMsMTQ5LjEyNjQzIDM0LjMwNTg0LC0wLjE3MzQ0IDAuMjA3OTIsLTAuMDg2NiIgaWQ9InBhdGgxODYzIiBpbmtzY2FwZTpjb25uZWN0b3ItY3VydmF0dXJlPSIwIi8+JiN4YTsgICAgICA8cGF0aCBpbmtzY2FwZTpjb25uZWN0b3ItY3VydmF0dXJlPSIwIiBpZD0icGF0aDE4NjUiIGQ9Im0gMTQzLjY1NDkzLDE1Ny41MjY2IDM0LjMwNTg0LC0wLjE3MzQzIDAuMjA3OTIsLTAuMDg2NiIgc3R5bGU9ImZpbGw6I2ZmZmZmZjtmaWxsLW9wYWNpdHk6MTtzdHJva2U6IzY2Mzc2NjtzdHJva2Utd2lkdGg6MS4wMDQ3NzMwMjtzdHJva2UtbGluZWNhcDpidXR0O3N0cm9rZS1saW5lam9pbjptaXRlcjtzdHJva2UtbWl0ZXJsaW1pdDo0O3N0cm9rZS1kYXNoYXJyYXk6bm9uZTtzdHJva2Utb3BhY2l0eToxIi8+JiN4YTsgICAgPC9nPiYjeGE7ICA8L2c+JiN4YTsgIDxnIGlua3NjYXBlOmdyb3VwbW9kZT0ibGF5ZXIiIGlkPSJsYXllcjUiIGlua3NjYXBlOmxhYmVsPSJJbnRyb18gbXVsdGlwbGUgZ3JvdXBzIG9mIHRvcGljcyIgc3R5bGU9ImRpc3BsYXk6bm9uZSIgdHJhbnNmb3JtPSJ0cmFuc2xhdGUoLTE0My4zMDkxOCwtMTY0LjkxMTYyKSI+JiN4YTsgICAgPGcgc3R5bGU9ImRpc3BsYXk6aW5saW5lIiBpZD0iZzE4ODciIHRyYW5zZm9ybT0ibWF0cml4KDIuNjQwMTIxNCwwLDAsMi42MTE0NTA2LC0yMTQuMzE0MDEsLTM4MC45OTQ3OCkiPiYjeGE7ICAgICAgPGNpcmNsZSByPSIyNC45MzkwNTgiIGN5PSIyMTMuMjc4MjciIGN4PSIxNjEuMjU0MDkiIGlkPSJwYXRoMTc0OSIgc3R5bGU9Im9wYWNpdHk6MTtmaWxsOiNmZmZmZmY7ZmlsbC1vcGFjaXR5OjE7c3Ryb2tlOiM2NjM3NjY7c3Ryb2tlLXdpZHRoOjE7c3Ryb2tlLW1pdGVybGltaXQ6NDtzdHJva2UtZGFzaGFycmF5Om5vbmU7c3Ryb2tlLW9wYWNpdHk6MSIvPiYjeGE7ICAgICAgPGNpcmNsZSBzdHlsZT0ib3BhY2l0eToxO2ZpbGw6I2ZmZmZmZjtmaWxsLW9wYWNpdHk6MTtzdHJva2U6IzY2Mzc2NjtzdHJva2Utd2lkdGg6MC44ODExMzUxNztzdHJva2UtbWl0ZXJsaW1pdDo0O3N0cm9rZS1kYXNoYXJyYXk6bm9uZTtzdHJva2Utb3BhY2l0eToxIiBpZD0iY2lyY2xlMTc1MSIgY3g9IjE2MS4yNTQwOSIgY3k9IjIxMy4yNzgyNyIgcj0iMjEuOTc0NjgyIi8+JiN4YTsgICAgICA8cGF0aCBzb2RpcG9kaTpub2RldHlwZXM9ImNjYyIgaW5rc2NhcGU6Y29ubmVjdG9yLWN1cnZhdHVyZT0iMCIgaWQ9InBhdGgxNzU1IiBkPSJtIDEzOS4wMDA3NCwyMDEuOTM4OTkgYyA5LjgyNDQ3LC0xNy44NTE2OSAzNS42NDQzLC0xNy43MDI0NiA0NC42OTU2OSwwIHoiIHN0eWxlPSJmaWxsOiM2NjM3NjY7ZmlsbC1vcGFjaXR5OjE7c3Ryb2tlOiM2NjM3NjY7c3Ryb2tlLXdpZHRoOjAuMjY0NTgzMzJweDtzdHJva2UtbGluZWNhcDpidXR0O3N0cm9rZS1saW5lam9pbjptaXRlcjtzdHJva2Utb3BhY2l0eToxIi8+JiN4YTsgICAgICA8cGF0aCBpbmtzY2FwZTpjb25uZWN0b3ItY3VydmF0dXJlPSIwIiBpZD0icGF0aDE3NTciIGQ9Im0gMTQ1LjYxNTMyLDIxMC4wNjU0OCAzMS4xODMwNCwtMC4xODg5OSAwLjE4ODk5LC0wLjA5NDUiIHN0eWxlPSJmaWxsOiNmZmZmZmY7ZmlsbC1vcGFjaXR5OjE7c3Ryb2tlOiM2NjM3NjY7c3Ryb2tlLXdpZHRoOjE7c3Ryb2tlLWxpbmVjYXA6YnV0dDtzdHJva2UtbGluZWpvaW46bWl0ZXI7c3Ryb2tlLW1pdGVybGltaXQ6NDtzdHJva2UtZGFzaGFycmF5Om5vbmU7c3Ryb2tlLW9wYWNpdHk6MSIvPiYjeGE7ICAgICAgPHBhdGggc3R5bGU9ImZpbGw6I2ZmZmZmZjtmaWxsLW9wYWNpdHk6MTtzdHJva2U6IzY2Mzc2NjtzdHJva2Utd2lkdGg6MTtzdHJva2UtbGluZWNhcDpidXR0O3N0cm9rZS1saW5lam9pbjptaXRlcjtzdHJva2UtbWl0ZXJsaW1pdDo0O3N0cm9rZS1kYXNoYXJyYXk6bm9uZTtzdHJva2Utb3BhY2l0eToxIiBkPSJtIDE0NS42MTUzMiwyMTYuODY5MDQgMzEuMTgzMDQsLTAuMTg4OTkgMC4xODg5OSwtMC4wOTQ1IiBpZD0icGF0aDE3NTkiIGlua3NjYXBlOmNvbm5lY3Rvci1jdXJ2YXR1cmU9IjAiLz4mI3hhOyAgICAgIDxwYXRoIGlua3NjYXBlOmNvbm5lY3Rvci1jdXJ2YXR1cmU9IjAiIGlkPSJwYXRoMTc2MSIgZD0ibSAxNDUuNDI2MzQsMjIzLjg2MTYxIDMxLjE4MzA0LC0wLjE4ODk5IDAuMTg4OTksLTAuMDk0NSIgc3R5bGU9ImZpbGw6I2ZmZmZmZjtmaWxsLW9wYWNpdHk6MTtzdHJva2U6IzY2Mzc2NjtzdHJva2Utd2lkdGg6MTtzdHJva2UtbGluZWNhcDpidXR0O3N0cm9rZS1saW5lam9pbjptaXRlcjtzdHJva2UtbWl0ZXJsaW1pdDo0O3N0cm9rZS1kYXNoYXJyYXk6bm9uZTtzdHJva2Utb3BhY2l0eToxIi8+JiN4YTsgICAgPC9nPiYjeGE7ICA8L2c+JiN4YTsgIDxnIGlua3NjYXBlOmdyb3VwbW9kZT0ibGF5ZXIiIGlkPSJsYXllcjQiIGlua3NjYXBlOmxhYmVsPSJJbnRyb19Hcm91cCBvZiB0b3BpY3MiIHN0eWxlPSJkaXNwbGF5OmlubGluZSIgdHJhbnNmb3JtPSJ0cmFuc2xhdGUoLTE0My4zMDkxOCwtMTY0LjkxMTYyKSI+JiN4YTsgICAgPGcgc3R5bGU9ImRpc3BsYXk6aW5saW5lIiBpZD0iZzE4OTQiIHRyYW5zZm9ybT0ibWF0cml4KDIuNjQwMTIxNCwwLDAsMi42MTE0NTA2LC0yMTIuNzY0MjIsLTQ3MC4yMjY0MykiPiYjeGE7ICAgICAgPGNpcmNsZSBzdHlsZT0ib3BhY2l0eToxO2ZpbGw6I2ZmZmZmZjtmaWxsLW9wYWNpdHk6MTtzdHJva2U6IzY2Mzc2NjtzdHJva2Utd2lkdGg6MTtzdHJva2UtbWl0ZXJsaW1pdDo0O3N0cm9rZS1kYXNoYXJyYXk6bm9uZTtzdHJva2Utb3BhY2l0eToxIiBpZD0iY2lyY2xlMTc3NyIgY3g9IjE2MC4zMDkxNCIgY3k9IjI2OC42NTE3OSIgcj0iMjQuOTM5MDU4Ii8+JiN4YTsgICAgICA8cGF0aCBzdHlsZT0iZmlsbDojNjYzNzY2O2ZpbGwtb3BhY2l0eToxO3N0cm9rZTojNjYzNzY2O3N0cm9rZS13aWR0aDowLjI2NDU4MzMycHg7c3Ryb2tlLWxpbmVjYXA6YnV0dDtzdHJva2UtbGluZWpvaW46bWl0ZXI7c3Ryb2tlLW9wYWNpdHk6MSIgZD0ibSAxMzguMDU1OCwyNTcuMzEyNSBjIDkuODI0NDcsLTE3Ljg1MTY5IDM1LjY0NDMsLTE3LjcwMjQ2IDQ0LjY5NTY5LDAgeiIgaWQ9InBhdGgxNzgxIiBpbmtzY2FwZTpjb25uZWN0b3ItY3VydmF0dXJlPSIwIiBzb2RpcG9kaTpub2RldHlwZXM9ImNjYyIvPiYjeGE7ICAgICAgPHBhdGggc3R5bGU9ImZpbGw6I2ZmZmZmZjtmaWxsLW9wYWNpdHk6MTtzdHJva2U6IzY2Mzc2NjtzdHJva2Utd2lkdGg6MC45NzI5ODQ2MTtzdHJva2UtbGluZWNhcDpidXR0O3N0cm9rZS1saW5lam9pbjptaXRlcjtzdHJva2UtbWl0ZXJsaW1pdDo0O3N0cm9rZS1kYXNoYXJyYXk6bm9uZTtzdHJva2Utb3BhY2l0eToxIiBkPSJtIDE0MS45NzQwNywyNjUuNjk2ODggMzcuNjI4MjYsLTAuMTQ4MjcgMC4yMjgwNiwtMC4wNzQxIiBpZD0icGF0aDE3ODMiIGlua3NjYXBlOmNvbm5lY3Rvci1jdXJ2YXR1cmU9IjAiLz4mI3hhOyAgICAgIDxwYXRoIGlua3NjYXBlOmNvbm5lY3Rvci1jdXJ2YXR1cmU9IjAiIGlkPSJwYXRoMTc4OSIgZD0ibSAxNDEuNTk2MDksMjcyLjY4OTQ0IDM3LjYyODI2LC0wLjE0ODI3IDAuMjI4MDYsLTAuMDc0MSIgc3R5bGU9ImZpbGw6I2ZmZmZmZjtmaWxsLW9wYWNpdHk6MTtzdHJva2U6IzY2Mzc2NjtzdHJva2Utd2lkdGg6MC45NzI5ODQ2MTtzdHJva2UtbGluZWNhcDpidXR0O3N0cm9rZS1saW5lam9pbjptaXRlcjtzdHJva2UtbWl0ZXJsaW1pdDo0O3N0cm9rZS1kYXNoYXJyYXk6bm9uZTtzdHJva2Utb3BhY2l0eToxIi8+JiN4YTsgICAgICA8cGF0aCBzdHlsZT0iZmlsbDojZmZmZmZmO2ZpbGwtb3BhY2l0eToxO3N0cm9rZTojNjYzNzY2O3N0cm9rZS13aWR0aDowLjk3Mjk4NDYxO3N0cm9rZS1saW5lY2FwOmJ1dHQ7c3Ryb2tlLWxpbmVqb2luOm1pdGVyO3N0cm9rZS1taXRlcmxpbWl0OjQ7c3Ryb2tlLWRhc2hhcnJheTpub25lO3N0cm9rZS1vcGFjaXR5OjEiIGQ9Im0gMTQxLjc4NTA4LDI3OS44NzA5OSAzNy42MjgyNiwtMC4xNDgyNyAwLjIyODA2LC0wLjA3NDEiIGlkPSJwYXRoMTc5MSIgaW5rc2NhcGU6Y29ubmVjdG9yLWN1cnZhdHVyZT0iMCIvPiYjeGE7ICAgIDwvZz4mI3hhOyAgPC9nPiYjeGE7ICA8ZyBpbmtzY2FwZTpncm91cG1vZGU9ImxheWVyIiBpZD0ibGF5ZXIzIiBpbmtzY2FwZTpsYWJlbD0iRGlhbG9ndWUgQWN0IiBzdHlsZT0iZGlzcGxheTpub25lIiB0cmFuc2Zvcm09InRyYW5zbGF0ZSgtMTQzLjMwOTE4LC0xNjQuOTExNjIpIj4mI3hhOyAgICA8ZyBzdHlsZT0iZGlzcGxheTppbmxpbmUiIGlkPSJnMTg2OSI+JiN4YTsgICAgICA8ZWxsaXBzZSBzdHlsZT0ib3BhY2l0eToxO2ZpbGw6Izk5OTk5OTtmaWxsLW9wYWNpdHk6MTtzdHJva2U6Izk5OTk5OTtzdHJva2Utd2lkdGg6MS41O3N0cm9rZS1taXRlcmxpbWl0OjQ7c3Ryb2tlLWRhc2hhcnJheTpub25lO3N0cm9rZS1vcGFjaXR5OjE7ZmlsdGVyOnVybCgjZmlsdGVyMTY4MykiIGlkPSJlbGxpcHNlMTQ4MyIgY3g9IjE0NS43MDk4MSIgY3k9Ijk3LjA1MDU4MyIgcng9IjExLjE1MDI5NyIgcnk9IjExLjMzOTI4NiIvPiYjeGE7ICAgICAgPGVsbGlwc2Ugcnk9IjExLjMzOTI4NiIgcng9IjExLjE1MDI5NyIgY3k9Ijk0LjYwNzE3OCIgY3g9IjE0Ny4zMDk1MSIgaWQ9InBhdGgxMzc5IiBzdHlsZT0ib3BhY2l0eToxO2ZpbGw6dXJsKCNsaW5lYXJHcmFkaWVudDE4NTcpO2ZpbGwtb3BhY2l0eToxO3N0cm9rZTojNjYzNzY2O3N0cm9rZS13aWR0aDoxLjU7c3Ryb2tlLW1pdGVybGltaXQ6NDtzdHJva2UtZGFzaGFycmF5Om5vbmU7c3Ryb2tlLW9wYWNpdHk6MSIvPiYjeGE7ICAgIDwvZz4mI3hhOyAgPC9nPiYjeGE7ICA8ZyBpbmtzY2FwZTpncm91cG1vZGU9ImxheWVyIiBpZD0ibGF5ZXIyIiBpbmtzY2FwZTpsYWJlbD0iTXVsdGlwbGUgdG9waWMiIHN0eWxlPSJkaXNwbGF5Om5vbmUiIHRyYW5zZm9ybT0idHJhbnNsYXRlKC0xNDMuMzA5MTgsLTE2NC45MTE2MikiPiYjeGE7ICAgIDxyZWN0IHN0eWxlPSJvcGFjaXR5OjE7ZmlsbDpub25lO2ZpbGwtb3BhY2l0eToxO3N0cm9rZTojNjYzNzY2O3N0cm9rZS13aWR0aDoxLjM3NDg0NTg2O3N0cm9rZS1taXRlcmxpbWl0OjQ7c3Ryb2tlLWRhc2hhcnJheTpub25lO3N0cm9rZS1vcGFjaXR5OjEiIGlkPSJyZWN0MTM2NSIgd2lkdGg9IjEzNS45NjcyMSIgaGVpZ2h0PSI4MS4wMzA1NjMiIHg9IjEzLjA3NzYxMyIgeT0iMTMzLjI2NDQ3IiByeT0iMTAuNjMyOTciLz4mI3hhOyAgICA8cmVjdCByeT0iOS40NDgwNTYyIiB5PSIxMzcuOTcwNTUiIHg9IjE5LjY2NDk2OCIgaGVpZ2h0PSI3Mi4wMDA2OTQiIHdpZHRoPSIxMjIuNzkyNDkiIGlkPSJyZWN0MTM2NyIgc3R5bGU9Im9wYWNpdHk6MTtmaWxsOm5vbmU7ZmlsbC1vcGFjaXR5OjE7c3Ryb2tlOiM2NjM3NjY7c3Ryb2tlLXdpZHRoOjEuMzQyNzU5MDE7c3Ryb2tlLW1pdGVybGltaXQ6NDtzdHJva2UtZGFzaGFycmF5Om5vbmU7c3Ryb2tlLW9wYWNpdHk6MSIvPiYjeGE7ICA8L2c+JiN4YTs8L3N2Zz4=;shadow=0;labelBackgroundColor=none;fillColor=#000000;gradientColor=none;" parent="1" vertex="1">
          <mxGeometry x="285.39" y="501" width="29.21" height="29" as="geometry" />
        </mxCell>
        <mxCell id="__KPjMgfYowB3F4choq--118" value="" style="shape=image;verticalLabelPosition=bottom;verticalAlign=top;imageAspect=0;aspect=fixed;image=data:image/svg+xml,PHN2ZyB4bWxuczpkYz0iaHR0cDovL3B1cmwub3JnL2RjL2VsZW1lbnRzLzEuMS8iIHhtbG5zOmNjPSJodHRwOi8vY3JlYXRpdmVjb21tb25zLm9yZy9ucyMiIHhtbG5zOnJkZj0iaHR0cDovL3d3dy53My5vcmcvMTk5OS8wMi8yMi1yZGYtc3ludGF4LW5zIyIgeG1sbnM6c3ZnPSJodHRwOi8vd3d3LnczLm9yZy8yMDAwL3N2ZyIgeG1sbnM9Imh0dHA6Ly93d3cudzMub3JnLzIwMDAvc3ZnIiB4bWxuczp4bGluaz0iaHR0cDovL3d3dy53My5vcmcvMTk5OS94bGluayIgeG1sbnM6c29kaXBvZGk9Imh0dHA6Ly9zb2RpcG9kaS5zb3VyY2Vmb3JnZS5uZXQvRFREL3NvZGlwb2RpLTAuZHRkIiB4bWxuczppbmtzY2FwZT0iaHR0cDovL3d3dy5pbmtzY2FwZS5vcmcvbmFtZXNwYWNlcy9pbmtzY2FwZSIgd2lkdGg9IjEzNS40MDU0bW0iIGhlaWdodD0iMTM1LjUwMDc2bW0iIHZpZXdCb3g9IjAgMCAxMzUuNDA1MzkgMTM1LjUwMDc2IiB2ZXJzaW9uPSIxLjEiIGlkPSJzdmc4MjAiIGlua3NjYXBlOnZlcnNpb249IjAuOTIuNCAoNWRhNjg5YzMxMywgMjAxOS0wMS0xNCkiIHNvZGlwb2RpOmRvY25hbWU9InRyYW5zaXRpb24gYWN0LnN2ZyI+JiN4YTsgIDxkZWZzIGlkPSJkZWZzODE0Ij4mI3hhOyAgICA8bGluZWFyR3JhZGllbnQgaW5rc2NhcGU6Y29sbGVjdD0iYWx3YXlzIiBpZD0ibGluZWFyR3JhZGllbnQxODE1Ij4mI3hhOyAgICAgIDxzdG9wIHN0eWxlPSJzdG9wLWNvbG9yOiM2NjM3NjY7c3RvcC1vcGFjaXR5OjEiIG9mZnNldD0iMCIgaWQ9InN0b3AxODExIi8+JiN4YTsgICAgICA8c3RvcCBzdHlsZT0ic3RvcC1jb2xvcjojYWY3NmJkO3N0b3Atb3BhY2l0eToxIiBvZmZzZXQ9IjEiIGlkPSJzdG9wMTgxMyIvPiYjeGE7ICAgIDwvbGluZWFyR3JhZGllbnQ+JiN4YTsgICAgPGZpbHRlciBpbmtzY2FwZTpjb2xsZWN0PSJhbHdheXMiIHN0eWxlPSJjb2xvci1pbnRlcnBvbGF0aW9uLWZpbHRlcnM6c1JHQiIgaWQ9ImZpbHRlcjE2ODMiIHg9Ii0wLjA0NzE5NjYxMiIgd2lkdGg9IjEuMDk0MzkzMyIgeT0iLTAuMDQ2NDA5OTk4IiBoZWlnaHQ9IjEuMDkyODIiPiYjeGE7ICAgICAgPGZlR2F1c3NpYW5CbHVyIGlua3NjYXBlOmNvbGxlY3Q9ImFsd2F5cyIgc3RkRGV2aWF0aW9uPSIwLjQzODU0Njg3IiBpZD0iZmVHYXVzc2lhbkJsdXIxNjg1Ii8+JiN4YTsgICAgPC9maWx0ZXI+JiN4YTsgICAgPGxpbmVhckdyYWRpZW50IGlua3NjYXBlOmNvbGxlY3Q9ImFsd2F5cyIgeGxpbms6aHJlZj0iI2xpbmVhckdyYWRpZW50MTgxNSIgaWQ9ImxpbmVhckdyYWRpZW50MTg1NyIgeDE9IjE1MS4zNzk0NyIgeTE9IjkxLjc1ODkyNiIgeDI9IjE0Ni44NDM3NSIgeTI9IjEwNS45MzMwNCIgZ3JhZGllbnRVbml0cz0idXNlclNwYWNlT25Vc2UiLz4mI3hhOyAgPC9kZWZzPiYjeGE7ICA8c29kaXBvZGk6bmFtZWR2aWV3IGlkPSJiYXNlIiBwYWdlY29sb3I9IiNmZmZmZmYiIGJvcmRlcmNvbG9yPSIjNjY2NjY2IiBib3JkZXJvcGFjaXR5PSIxLjAiIGlua3NjYXBlOnBhZ2VvcGFjaXR5PSIwLjAiIGlua3NjYXBlOnBhZ2VzaGFkb3c9IjIiIGlua3NjYXBlOnpvb209IjAuNDk0OTc0NzUiIGlua3NjYXBlOmN4PSI2NjkuMDY4MTMiIGlua3NjYXBlOmN5PSI4MzUuNjkzMjUiIGlua3NjYXBlOmRvY3VtZW50LXVuaXRzPSJtbSIgaW5rc2NhcGU6Y3VycmVudC1sYXllcj0ibGF5ZXI2IiBzaG93Z3JpZD0iZmFsc2UiIGlua3NjYXBlOndpbmRvdy13aWR0aD0iMTkyMCIgaW5rc2NhcGU6d2luZG93LWhlaWdodD0iMTAxMyIgaW5rc2NhcGU6d2luZG93LXg9Ii05IiBpbmtzY2FwZTp3aW5kb3cteT0iLTkiIGlua3NjYXBlOndpbmRvdy1tYXhpbWl6ZWQ9IjEiLz4mI3hhOyAgPG1ldGFkYXRhIGlkPSJtZXRhZGF0YTgxNyI+JiN4YTsgICAgPHJkZjpSREY+JiN4YTsgICAgICA8Y2M6V29yayByZGY6YWJvdXQ9IiI+JiN4YTsgICAgICAgIDxkYzpmb3JtYXQ+aW1hZ2Uvc3ZnK3htbDwvZGM6Zm9ybWF0PiYjeGE7ICAgICAgICA8ZGM6dHlwZSByZGY6cmVzb3VyY2U9Imh0dHA6Ly9wdXJsLm9yZy9kYy9kY21pdHlwZS9TdGlsbEltYWdlIi8+JiN4YTsgICAgICAgIDxkYzp0aXRsZS8+JiN4YTsgICAgICA8L2NjOldvcms+JiN4YTsgICAgPC9yZGY6UkRGPiYjeGE7ICA8L21ldGFkYXRhPiYjeGE7ICA8ZyBpbmtzY2FwZTpsYWJlbD0iVG9waWMiIGlua3NjYXBlOmdyb3VwbW9kZT0ibGF5ZXIiIGlkPSJsYXllcjEiIHN0eWxlPSJkaXNwbGF5Om5vbmUiIHRyYW5zZm9ybT0idHJhbnNsYXRlKC0xNDAuNTAwODMsLTE2NC4zNTAwNCkiPiYjeGE7ICAgIDxyZWN0IHJ5PSIxMC41NTQxNTEiIHk9IjEzMy41NDUiIHg9IjEyLjMyNTI0NSIgaGVpZ2h0PSI4MC40Mjk5MDkiIHdpZHRoPSIxMzQuODU4NDYiIGlkPSJyZWN0MTM2OSIgc3R5bGU9Im9wYWNpdHk6MTtmaWxsOm5vbmU7ZmlsbC1vcGFjaXR5OjE7c3Ryb2tlOiM2NjM3NjY7c3Ryb2tlLXdpZHRoOjEuMzY0MTQ0NDQ7c3Ryb2tlLW1pdGVybGltaXQ6NDtzdHJva2UtZGFzaGFycmF5Om5vbmU7c3Ryb2tlLW9wYWNpdHk6MSIvPiYjeGE7ICA8L2c+JiN4YTsgIDxnIGlua3NjYXBlOmdyb3VwbW9kZT0ibGF5ZXIiIGlkPSJsYXllcjYiIGlua3NjYXBlOmxhYmVsPSJ0cmFuc2l0aW9uIGFjdCIgc3R5bGU9ImRpc3BsYXk6aW5saW5lIiB0cmFuc2Zvcm09InRyYW5zbGF0ZSgtMTQwLjUwMDgzLC0xNjQuMzUwMDQpIj4mI3hhOyAgICA8ZyBzdHlsZT0iZGlzcGxheTppbmxpbmU7ZmlsbDojZmZmZmZmIiBpZD0iZzE4NzkiIHRyYW5zZm9ybT0ibWF0cml4KDIuOTcwMjk5MSwwLDAsMy4yMTIwODYsLTI2OS4wODUyOCwtMjQ1LjM1ODAxKSI+JiN4YTsgICAgICA8ZWxsaXBzZSByeT0iMjAuNjYxMzgxIiByeD0iMjIuMzYyMjc0IiBjeT0iMTQ4LjY0NDM1IiBjeD0iMTYwLjY4NzEyIiBpZD0iY2lyY2xlMTg1OSIgc3R5bGU9Im9wYWNpdHk6MTtmaWxsOiNmZmZmZmY7ZmlsbC1vcGFjaXR5OjE7c3Ryb2tlOiM2NjM3NjY7c3Ryb2tlLXdpZHRoOjAuODYxOTAxNDY7c3Ryb2tlLW1pdGVybGltaXQ6NDtzdHJva2UtZGFzaGFycmF5Om5vbmU7c3Ryb2tlLW9wYWNpdHk6MSIvPiYjeGE7ICAgICAgPHBhdGggaW5rc2NhcGU6Y29ubmVjdG9yLWN1cnZhdHVyZT0iMCIgaWQ9InBhdGgxODYxIiBkPSJtIDE0My44MjcyNCwxNDAuOTQ3MzEgMzQuMzA1ODMsLTAuMTczNDMgMC4yMDc5MiwtMC4wODY2IiBzdHlsZT0iZmlsbDojZmZmZmZmO2ZpbGwtb3BhY2l0eToxO3N0cm9rZTojNjYzNzY2O3N0cm9rZS13aWR0aDoxLjAwNDc3MzAyO3N0cm9rZS1saW5lY2FwOmJ1dHQ7c3Ryb2tlLWxpbmVqb2luOm1pdGVyO3N0cm9rZS1taXRlcmxpbWl0OjQ7c3Ryb2tlLWRhc2hhcnJheTpub25lO3N0cm9rZS1vcGFjaXR5OjEiLz4mI3hhOyAgICAgIDxwYXRoIHN0eWxlPSJmaWxsOiNmZmZmZmY7ZmlsbC1vcGFjaXR5OjE7c3Ryb2tlOiM2NjM3NjY7c3Ryb2tlLXdpZHRoOjEuMDA0NzczMDI7c3Ryb2tlLWxpbmVjYXA6YnV0dDtzdHJva2UtbGluZWpvaW46bWl0ZXI7c3Ryb2tlLW1pdGVybGltaXQ6NDtzdHJva2UtZGFzaGFycmF5Om5vbmU7c3Ryb2tlLW9wYWNpdHk6MSIgZD0ibSAxNDMuNDgyNjMsMTQ5LjEyNjQzIDM0LjMwNTg0LC0wLjE3MzQ0IDAuMjA3OTIsLTAuMDg2NiIgaWQ9InBhdGgxODYzIiBpbmtzY2FwZTpjb25uZWN0b3ItY3VydmF0dXJlPSIwIi8+JiN4YTsgICAgICA8cGF0aCBpbmtzY2FwZTpjb25uZWN0b3ItY3VydmF0dXJlPSIwIiBpZD0icGF0aDE4NjUiIGQ9Im0gMTQzLjY1NDkzLDE1Ny41MjY2IDM0LjMwNTg0LC0wLjE3MzQzIDAuMjA3OTIsLTAuMDg2NiIgc3R5bGU9ImZpbGw6I2ZmZmZmZjtmaWxsLW9wYWNpdHk6MTtzdHJva2U6IzY2Mzc2NjtzdHJva2Utd2lkdGg6MS4wMDQ3NzMwMjtzdHJva2UtbGluZWNhcDpidXR0O3N0cm9rZS1saW5lam9pbjptaXRlcjtzdHJva2UtbWl0ZXJsaW1pdDo0O3N0cm9rZS1kYXNoYXJyYXk6bm9uZTtzdHJva2Utb3BhY2l0eToxIi8+JiN4YTsgICAgPC9nPiYjeGE7ICAgIDxwYXRoIHN0eWxlPSJvcGFjaXR5OjE7ZmlsbDojZmZmZmZmO2ZpbGwtb3BhY2l0eToxO3N0cm9rZTojOTgzMTg1O3N0cm9rZS13aWR0aDozLjgxNzg5OTQ3O3N0cm9rZS1taXRlcmxpbWl0OjQ7c3Ryb2tlLWRhc2hhcnJheTpub25lO3N0cm9rZS1vcGFjaXR5OjEiIGQ9Ik0gMjUzLjE4NzUgMTAuOTY2Nzk3IEMgMjI1LjcxNTU0IDExLjE2OTg3IDE5OC4yODI3OSAxNS45NjE2NjEgMTcyLjIzNjMzIDI1LjUwNTg1OSBDIDE1OC4wMTY5OSAzMC43MTYyNDcgMTMzLjc4MTQgNDIuODY5NjYzIDEyMS42ODc1IDUwLjg1MzUxNiBDIDYwLjk3MzYxOSA5MC45MzQxMjggMjEuNDExMzY2IDE1My44ODQ1IDEyLjEyMzA0NyAyMjUuMTkzMzYgQyAxMC4zMjAwNzYgMjM5LjAzNTI0IDEwLjA2OTU0MyAyNjguODQwMjggMTEuNjM0NzY2IDI4My4yNjU2MiBDIDEzLjk2ODU3NSAzMDQuNzc0MzkgMjAuMjc5NzY5IDMyOS4xNjE1NiAyOC44MjgxMjUgMzQ5LjcwMTE3IEMgNjQuNzk3ODgzIDQzNi4xMjc3MSAxNDguMjE2NDQgNDk1LjQ4NDQyIDI0MC44ODQ3NyA1MDAuNTg5ODQgQyAyNDguMzg1MTUgNTAxLjAwMzAyIDI1Ni43OTQzNSA1MDEuMjAxNjEgMjU5LjU3MjI3IDUwMS4wMzEyNSBDIDI2Mi4zNTAxOSA1MDAuODYwOTEgMjY5LjM5Njg0IDUwMC40NzE2MSAyNzUuMjMwNDcgNTAwLjE2NjAyIEMgMzA0LjI4NTkzIDQ5OC42NDM5NCAzMzYuMzAxNzggNDg5LjgwNDMxIDM2NS40NDkyMiA0NzUuMjU3ODEgQyA0MzcuMzkzMTEgNDM5LjM1MzA1IDQ4Ni41MzIwMyAzNzEuOTQ1MDQgNDk5LjAyMTQ4IDI5Mi4wMjM0NCBDIDUwMS4yNzE0NiAyNzcuNjI1NSA1MDIuMDQ2MDMgMjQ4LjE1MjMzIDUwMC41NjA1NSAyMzMuNDc2NTYgQyA0OTMuMDE5MjUgMTU4Ljk3MjQ0IDQ1NC4xNTg1MSA5My43NDcyNDMgMzkyLjgzOTg0IDUyLjY3NTc4MSBDIDM1MS4yNTUxOCAyNC44MjIyMzMgMzAyLjE1OTI1IDEwLjYwNDc5NiAyNTMuMTg3NSAxMC45NjY3OTcgeiBNIDQ1Mi4zNjEzMyAxNTQuMDkzNzUgTCA0NTQuNjQwNjIgMTU5LjY5MzM2IEMgNDU2LjczODcgMTY0Ljg1MDMyIDQ1Ni43ODQ3NSAxNjUuMzYzODMgNDU1LjIyMDcgMTY2LjE4NTU1IEMgNDU0LjI4MjE4IDE2Ni42Nzg2MyAzOTYuMTE3NDggMTY3LjM1Nzk2IDMyNS4yMzI0MiAxNjcuNzAzMTIgQyAyNTQuNjczMjYgMTY4LjA0NjcgMTY3LjUwOTIyIDE2OC42MTExMyAxMzEuNTM1MTYgMTY4Ljk1NzAzIEwgNjYuMTI4OTA2IDE2OS41ODU5NCBMIDY2LjEyODkwNiAxNjIuODkyNTggTCA2Ni4xMjg5MDYgMTU2LjE5OTIyIEwgNzcuOTk4MDQ3IDE1Ni4xNjYwMiBDIDg0LjUyNjE1OCAxNTYuMTQ3NiAxNTIuNTk3IDE1NS43MDg1NSAyMjkuMjY3NTggMTU1LjE5MTQxIEMgMzA1LjkzODE2IDE1NC42NzQyOCAzODcuNTAwMDkgMTU0LjIxNTU3IDQxMC41MTU2MiAxNTQuMTcxODggTCA0NTIuMzYxMzMgMTU0LjA5Mzc1IHogTSA0NDguNTg3ODkgMjUyLjg5NjQ4IEwgNDUwLjc2MzY3IDI1OC43OTg4MyBDIDQ1MS45NTk1MSAyNjIuMDQ1MTEgNDUyLjY5MDIgMjY0Ljk0OTczIDQ1Mi4zODg2NyAyNjUuMjUxOTUgQyA0NTIuMDg3MTQgMjY1LjU1NDE2IDQyOS40OTA3MyAyNjYuMDg2MTIgNDAyLjE3MzgzIDI2Ni40MzM1OSBDIDM3NC44NTY5MyAyNjYuNzgxMDUgMjg3LjE2MjA2IDI2Ny4zODI1NiAyMDcuMjk2ODggMjY3Ljc3MTQ4IEwgNjIuMDg3ODkxIDI2OC40Nzg1MiBMIDYyLjA4Nzg5MSAyNjEuOTc4NTIgTCA2Mi4wODc4OTEgMjU1LjQ3ODUyIEwgMTgwLjUyNzM0IDI1NC44MzAwOCBDIDI0NS42Njk1NSAyNTQuNDczMTcgMzMyLjYzMzc0IDI1My44OTE4NCAzNzMuNzc5MyAyNTMuNTM5MDYgTCA0NDguNTg3ODkgMjUyLjg5NjQ4IHogTSA0NTAuNDkyMTkgMzU0Ljk1ODk4IEwgNDUyLjY3NTc4IDM2MC42NDY0OCBDIDQ1NC43NDc0NiAzNjYuMDQwNDggNDU0Ljc2ODY0IDM2Ni4zODM5MSA0NTMuMDY2NDEgMzY3LjI5NDkyIEMgNDUxLjk3NDQ5IDM2Ny44NzkyOSAzODUuMDM2NyAzNjguNjY0MjIgMjgyLjE4NTU1IDM2OS4yOTY4OCBMIDI4Mi4xODU1NSAzNjkuMjk0OTIgQyAxODkuMTg4NzUgMzY5Ljg2Njk3IDEwMi4wNzY0MyAzNzAuMzM5NzUgODguNjAzNTE2IDM3MC4zNDM3NSBMIDY0LjEwNzQyMiAzNzAuMzUxNTYgTCA2NC4xMDc0MjIgMzYzLjkyNzczIEwgNjQuMTA3NDIyIDM1Ny41MDE5NSBMIDE3NC40NjY4IDM1Ni44NTM1MiBDIDIzNS4xNjQzNCAzNTYuNDk2NDcgMzIyLjEwMDMyIDM1NS45MjI2IDM2Ny42NTgyIDM1NS41ODAwOCBMIDQ1MC40OTIxOSAzNTQuOTU4OTggeiAiIHRyYW5zZm9ybT0ibWF0cml4KDAuMjY0NTgzMzMsMCwwLDAuMjY0NTgzMzMsMTQwLjUwMDgzLDE2NC4zNTAwNCkiIGlkPSJwYXRoMTkyOCIvPiYjeGE7ICAgIDxwYXRoIHN0eWxlPSJvcGFjaXR5OjE7ZmlsbDojZmZmZmZmO2ZpbGwtb3BhY2l0eToxO3N0cm9rZTojOTgzMTg1O3N0cm9rZS13aWR0aDozLjgxNzg5OTQ3O3N0cm9rZS1taXRlcmxpbWl0OjQ7c3Ryb2tlLWRhc2hhcnJheTpub25lO3N0cm9rZS1vcGFjaXR5OjEiIGQ9IiIgaWQ9InBhdGgxOTMzIiBpbmtzY2FwZTpjb25uZWN0b3ItY3VydmF0dXJlPSIwIiB0cmFuc2Zvcm09Im1hdHJpeCgwLjI2NDU4MzMzLDAsMCwwLjI2NDU4MzMzLDE0MC41MDA4MywxNjQuMzUwMDQpIi8+JiN4YTsgIDwvZz4mI3hhOyAgPGcgaW5rc2NhcGU6Z3JvdXBtb2RlPSJsYXllciIgaWQ9ImxheWVyNSIgaW5rc2NhcGU6bGFiZWw9IkludHJvXyBtdWx0aXBsZSBncm91cHMgb2YgdG9waWNzIiBzdHlsZT0iZGlzcGxheTpub25lIiB0cmFuc2Zvcm09InRyYW5zbGF0ZSgtMTQwLjUwMDgzLC0xNjQuMzUwMDQpIj4mI3hhOyAgICA8ZyBzdHlsZT0iZGlzcGxheTppbmxpbmUiIGlkPSJnMTg4NyIgdHJhbnNmb3JtPSJtYXRyaXgoMi42NDAxMjE0LDAsMCwyLjYxMTQ1MDYsLTIxNC4zMTQwMSwtMzgwLjk5NDc4KSI+JiN4YTsgICAgICA8Y2lyY2xlIHI9IjI0LjkzOTA1OCIgY3k9IjIxMy4yNzgyNyIgY3g9IjE2MS4yNTQwOSIgaWQ9InBhdGgxNzQ5IiBzdHlsZT0ib3BhY2l0eToxO2ZpbGw6I2ZmZmZmZjtmaWxsLW9wYWNpdHk6MTtzdHJva2U6IzY2Mzc2NjtzdHJva2Utd2lkdGg6MTtzdHJva2UtbWl0ZXJsaW1pdDo0O3N0cm9rZS1kYXNoYXJyYXk6bm9uZTtzdHJva2Utb3BhY2l0eToxIi8+JiN4YTsgICAgICA8Y2lyY2xlIHN0eWxlPSJvcGFjaXR5OjE7ZmlsbDojZmZmZmZmO2ZpbGwtb3BhY2l0eToxO3N0cm9rZTojNjYzNzY2O3N0cm9rZS13aWR0aDowLjg4MTEzNTE3O3N0cm9rZS1taXRlcmxpbWl0OjQ7c3Ryb2tlLWRhc2hhcnJheTpub25lO3N0cm9rZS1vcGFjaXR5OjEiIGlkPSJjaXJjbGUxNzUxIiBjeD0iMTYxLjI1NDA5IiBjeT0iMjEzLjI3ODI3IiByPSIyMS45NzQ2ODIiLz4mI3hhOyAgICAgIDxwYXRoIHNvZGlwb2RpOm5vZGV0eXBlcz0iY2NjIiBpbmtzY2FwZTpjb25uZWN0b3ItY3VydmF0dXJlPSIwIiBpZD0icGF0aDE3NTUiIGQ9Im0gMTM5LjAwMDc0LDIwMS45Mzg5OSBjIDkuODI0NDcsLTE3Ljg1MTY5IDM1LjY0NDMsLTE3LjcwMjQ2IDQ0LjY5NTY5LDAgeiIgc3R5bGU9ImZpbGw6IzY2Mzc2NjtmaWxsLW9wYWNpdHk6MTtzdHJva2U6IzY2Mzc2NjtzdHJva2Utd2lkdGg6MC4yNjQ1ODMzMnB4O3N0cm9rZS1saW5lY2FwOmJ1dHQ7c3Ryb2tlLWxpbmVqb2luOm1pdGVyO3N0cm9rZS1vcGFjaXR5OjEiLz4mI3hhOyAgICAgIDxwYXRoIGlua3NjYXBlOmNvbm5lY3Rvci1jdXJ2YXR1cmU9IjAiIGlkPSJwYXRoMTc1NyIgZD0ibSAxNDUuNjE1MzIsMjEwLjA2NTQ4IDMxLjE4MzA0LC0wLjE4ODk5IDAuMTg4OTksLTAuMDk0NSIgc3R5bGU9ImZpbGw6I2ZmZmZmZjtmaWxsLW9wYWNpdHk6MTtzdHJva2U6IzY2Mzc2NjtzdHJva2Utd2lkdGg6MTtzdHJva2UtbGluZWNhcDpidXR0O3N0cm9rZS1saW5lam9pbjptaXRlcjtzdHJva2UtbWl0ZXJsaW1pdDo0O3N0cm9rZS1kYXNoYXJyYXk6bm9uZTtzdHJva2Utb3BhY2l0eToxIi8+JiN4YTsgICAgICA8cGF0aCBzdHlsZT0iZmlsbDojZmZmZmZmO2ZpbGwtb3BhY2l0eToxO3N0cm9rZTojNjYzNzY2O3N0cm9rZS13aWR0aDoxO3N0cm9rZS1saW5lY2FwOmJ1dHQ7c3Ryb2tlLWxpbmVqb2luOm1pdGVyO3N0cm9rZS1taXRlcmxpbWl0OjQ7c3Ryb2tlLWRhc2hhcnJheTpub25lO3N0cm9rZS1vcGFjaXR5OjEiIGQ9Im0gMTQ1LjYxNTMyLDIxNi44NjkwNCAzMS4xODMwNCwtMC4xODg5OSAwLjE4ODk5LC0wLjA5NDUiIGlkPSJwYXRoMTc1OSIgaW5rc2NhcGU6Y29ubmVjdG9yLWN1cnZhdHVyZT0iMCIvPiYjeGE7ICAgICAgPHBhdGggaW5rc2NhcGU6Y29ubmVjdG9yLWN1cnZhdHVyZT0iMCIgaWQ9InBhdGgxNzYxIiBkPSJtIDE0NS40MjYzNCwyMjMuODYxNjEgMzEuMTgzMDQsLTAuMTg4OTkgMC4xODg5OSwtMC4wOTQ1IiBzdHlsZT0iZmlsbDojZmZmZmZmO2ZpbGwtb3BhY2l0eToxO3N0cm9rZTojNjYzNzY2O3N0cm9rZS13aWR0aDoxO3N0cm9rZS1saW5lY2FwOmJ1dHQ7c3Ryb2tlLWxpbmVqb2luOm1pdGVyO3N0cm9rZS1taXRlcmxpbWl0OjQ7c3Ryb2tlLWRhc2hhcnJheTpub25lO3N0cm9rZS1vcGFjaXR5OjEiLz4mI3hhOyAgICA8L2c+JiN4YTsgIDwvZz4mI3hhOyAgPGcgaW5rc2NhcGU6Z3JvdXBtb2RlPSJsYXllciIgaWQ9ImxheWVyNCIgaW5rc2NhcGU6bGFiZWw9IkludHJvX0dyb3VwIG9mIHRvcGljcyIgc3R5bGU9ImRpc3BsYXk6bm9uZSIgdHJhbnNmb3JtPSJ0cmFuc2xhdGUoLTE0MC41MDA4MywtMTY0LjM1MDA0KSI+JiN4YTsgICAgPGcgc3R5bGU9ImRpc3BsYXk6aW5saW5lIiBpZD0iZzE4OTQiIHRyYW5zZm9ybT0ibWF0cml4KDIuNjQwMTIxNCwwLDAsMi42MTE0NTA2LC0yMTIuNzY0MjIsLTQ3MC4yMjY0MykiPiYjeGE7ICAgICAgPGNpcmNsZSBzdHlsZT0ib3BhY2l0eToxO2ZpbGw6I2ZmZmZmZjtmaWxsLW9wYWNpdHk6MTtzdHJva2U6IzY2Mzc2NjtzdHJva2Utd2lkdGg6MTtzdHJva2UtbWl0ZXJsaW1pdDo0O3N0cm9rZS1kYXNoYXJyYXk6bm9uZTtzdHJva2Utb3BhY2l0eToxIiBpZD0iY2lyY2xlMTc3NyIgY3g9IjE2MC4zMDkxNCIgY3k9IjI2OC42NTE3OSIgcj0iMjQuOTM5MDU4Ii8+JiN4YTsgICAgICA8cGF0aCBzdHlsZT0iZmlsbDojNjYzNzY2O2ZpbGwtb3BhY2l0eToxO3N0cm9rZTojNjYzNzY2O3N0cm9rZS13aWR0aDowLjI2NDU4MzMycHg7c3Ryb2tlLWxpbmVjYXA6YnV0dDtzdHJva2UtbGluZWpvaW46bWl0ZXI7c3Ryb2tlLW9wYWNpdHk6MSIgZD0ibSAxMzguMDU1OCwyNTcuMzEyNSBjIDkuODI0NDcsLTE3Ljg1MTY5IDM1LjY0NDMsLTE3LjcwMjQ2IDQ0LjY5NTY5LDAgeiIgaWQ9InBhdGgxNzgxIiBpbmtzY2FwZTpjb25uZWN0b3ItY3VydmF0dXJlPSIwIiBzb2RpcG9kaTpub2RldHlwZXM9ImNjYyIvPiYjeGE7ICAgICAgPHBhdGggc3R5bGU9ImZpbGw6I2ZmZmZmZjtmaWxsLW9wYWNpdHk6MTtzdHJva2U6IzY2Mzc2NjtzdHJva2Utd2lkdGg6MC45NzI5ODQ2MTtzdHJva2UtbGluZWNhcDpidXR0O3N0cm9rZS1saW5lam9pbjptaXRlcjtzdHJva2UtbWl0ZXJsaW1pdDo0O3N0cm9rZS1kYXNoYXJyYXk6bm9uZTtzdHJva2Utb3BhY2l0eToxIiBkPSJtIDE0MS45NzQwNywyNjUuNjk2ODggMzcuNjI4MjYsLTAuMTQ4MjcgMC4yMjgwNiwtMC4wNzQxIiBpZD0icGF0aDE3ODMiIGlua3NjYXBlOmNvbm5lY3Rvci1jdXJ2YXR1cmU9IjAiLz4mI3hhOyAgICAgIDxwYXRoIGlua3NjYXBlOmNvbm5lY3Rvci1jdXJ2YXR1cmU9IjAiIGlkPSJwYXRoMTc4OSIgZD0ibSAxNDEuNTk2MDksMjcyLjY4OTQ0IDM3LjYyODI2LC0wLjE0ODI3IDAuMjI4MDYsLTAuMDc0MSIgc3R5bGU9ImZpbGw6I2ZmZmZmZjtmaWxsLW9wYWNpdHk6MTtzdHJva2U6IzY2Mzc2NjtzdHJva2Utd2lkdGg6MC45NzI5ODQ2MTtzdHJva2UtbGluZWNhcDpidXR0O3N0cm9rZS1saW5lam9pbjptaXRlcjtzdHJva2UtbWl0ZXJsaW1pdDo0O3N0cm9rZS1kYXNoYXJyYXk6bm9uZTtzdHJva2Utb3BhY2l0eToxIi8+JiN4YTsgICAgICA8cGF0aCBzdHlsZT0iZmlsbDojZmZmZmZmO2ZpbGwtb3BhY2l0eToxO3N0cm9rZTojNjYzNzY2O3N0cm9rZS13aWR0aDowLjk3Mjk4NDYxO3N0cm9rZS1saW5lY2FwOmJ1dHQ7c3Ryb2tlLWxpbmVqb2luOm1pdGVyO3N0cm9rZS1taXRlcmxpbWl0OjQ7c3Ryb2tlLWRhc2hhcnJheTpub25lO3N0cm9rZS1vcGFjaXR5OjEiIGQ9Im0gMTQxLjc4NTA4LDI3OS44NzA5OSAzNy42MjgyNiwtMC4xNDgyNyAwLjIyODA2LC0wLjA3NDEiIGlkPSJwYXRoMTc5MSIgaW5rc2NhcGU6Y29ubmVjdG9yLWN1cnZhdHVyZT0iMCIvPiYjeGE7ICAgIDwvZz4mI3hhOyAgPC9nPiYjeGE7ICA8ZyBpbmtzY2FwZTpncm91cG1vZGU9ImxheWVyIiBpZD0ibGF5ZXIzIiBpbmtzY2FwZTpsYWJlbD0iRGlhbG9ndWUgQWN0IiBzdHlsZT0iZGlzcGxheTpub25lIiB0cmFuc2Zvcm09InRyYW5zbGF0ZSgtMTQwLjUwMDgzLC0xNjQuMzUwMDQpIj4mI3hhOyAgICA8ZyBzdHlsZT0iZGlzcGxheTppbmxpbmUiIGlkPSJnMTg2OSI+JiN4YTsgICAgICA8ZWxsaXBzZSBzdHlsZT0ib3BhY2l0eToxO2ZpbGw6Izk5OTk5OTtmaWxsLW9wYWNpdHk6MTtzdHJva2U6Izk5OTk5OTtzdHJva2Utd2lkdGg6MS41O3N0cm9rZS1taXRlcmxpbWl0OjQ7c3Ryb2tlLWRhc2hhcnJheTpub25lO3N0cm9rZS1vcGFjaXR5OjE7ZmlsdGVyOnVybCgjZmlsdGVyMTY4MykiIGlkPSJlbGxpcHNlMTQ4MyIgY3g9IjE0NS43MDk4MSIgY3k9Ijk3LjA1MDU4MyIgcng9IjExLjE1MDI5NyIgcnk9IjExLjMzOTI4NiIvPiYjeGE7ICAgICAgPGVsbGlwc2Ugcnk9IjExLjMzOTI4NiIgcng9IjExLjE1MDI5NyIgY3k9Ijk0LjYwNzE3OCIgY3g9IjE0Ny4zMDk1MSIgaWQ9InBhdGgxMzc5IiBzdHlsZT0ib3BhY2l0eToxO2ZpbGw6dXJsKCNsaW5lYXJHcmFkaWVudDE4NTcpO2ZpbGwtb3BhY2l0eToxO3N0cm9rZTojNjYzNzY2O3N0cm9rZS13aWR0aDoxLjU7c3Ryb2tlLW1pdGVybGltaXQ6NDtzdHJva2UtZGFzaGFycmF5Om5vbmU7c3Ryb2tlLW9wYWNpdHk6MSIvPiYjeGE7ICAgIDwvZz4mI3hhOyAgPC9nPiYjeGE7ICA8ZyBpbmtzY2FwZTpncm91cG1vZGU9ImxheWVyIiBpZD0ibGF5ZXIyIiBpbmtzY2FwZTpsYWJlbD0iTXVsdGlwbGUgdG9waWMiIHN0eWxlPSJkaXNwbGF5Om5vbmUiIHRyYW5zZm9ybT0idHJhbnNsYXRlKC0xNDAuNTAwODMsLTE2NC4zNTAwNCkiPiYjeGE7ICAgIDxyZWN0IHN0eWxlPSJvcGFjaXR5OjE7ZmlsbDpub25lO2ZpbGwtb3BhY2l0eToxO3N0cm9rZTojNjYzNzY2O3N0cm9rZS13aWR0aDoxLjM0MDAzMDQzO3N0cm9rZS1taXRlcmxpbWl0OjQ7c3Ryb2tlLWRhc2hhcnJheTpub25lO3N0cm9rZS1vcGFjaXR5OjEiIGlkPSJyZWN0MTM2NSIgd2lkdGg9IjEzNC4xMjY2MyIgaGVpZ2h0PSI3OC4wMzQ5NzMiIHg9IjEzLjA2MDIwNSIgeT0iMTM2LjI3NzQ1IiByeT0iMTAuMjM5ODgzIi8+JiN4YTsgICAgPHJlY3Qgcnk9IjkuMDk4Nzc0OSIgeT0iMTQwLjgwOTU3IiB4PSIxOS41NTgzODgiIGhlaWdodD0iNjkuMzM4OTIxIiB3aWR0aD0iMTIxLjEzMDI2IiBpZD0icmVjdDEzNjciIHN0eWxlPSJvcGFjaXR5OjE7ZmlsbDpub25lO2ZpbGwtb3BhY2l0eToxO3N0cm9rZTojNjYzNzY2O3N0cm9rZS13aWR0aDoxLjMwODc1NjExO3N0cm9rZS1taXRlcmxpbWl0OjQ7c3Ryb2tlLWRhc2hhcnJheTpub25lO3N0cm9rZS1vcGFjaXR5OjEiLz4mI3hhOyAgPC9nPiYjeGE7PC9zdmc+;shadow=0;labelBackgroundColor=none;fillColor=#000000;gradientColor=none;" parent="1" vertex="1">
          <mxGeometry x="290.07" y="170" width="19.86" height="20" as="geometry" />
        </mxCell>
        <mxCell id="__KPjMgfYowB3F4choq--119" value="" style="endArrow=none;html=1;strokeColor=#314354;entryX=0;entryY=0.75;entryDx=0;entryDy=0;exitX=1;exitY=0.5;exitDx=0;exitDy=0;dashed=1;" parent="1" source="__KPjMgfYowB3F4choq--118" target="QOGCJ_LkCqJadUe-3F2g-7" edge="1">
          <mxGeometry width="50" height="50" relative="1" as="geometry">
            <mxPoint x="240" y="210" as="sourcePoint" />
            <mxPoint x="290" y="160" as="targetPoint" />
          </mxGeometry>
        </mxCell>
        <mxCell id="__KPjMgfYowB3F4choq--120" value="" style="shape=image;verticalLabelPosition=bottom;verticalAlign=top;imageAspect=0;aspect=fixed;image=data:image/svg+xml,PHN2ZyB4bWxuczpkYz0iaHR0cDovL3B1cmwub3JnL2RjL2VsZW1lbnRzLzEuMS8iIHhtbG5zOmNjPSJodHRwOi8vY3JlYXRpdmVjb21tb25zLm9yZy9ucyMiIHhtbG5zOnJkZj0iaHR0cDovL3d3dy53My5vcmcvMTk5OS8wMi8yMi1yZGYtc3ludGF4LW5zIyIgeG1sbnM6c3ZnPSJodHRwOi8vd3d3LnczLm9yZy8yMDAwL3N2ZyIgeG1sbnM9Imh0dHA6Ly93d3cudzMub3JnLzIwMDAvc3ZnIiB4bWxuczp4bGluaz0iaHR0cDovL3d3dy53My5vcmcvMTk5OS94bGluayIgeG1sbnM6c29kaXBvZGk9Imh0dHA6Ly9zb2RpcG9kaS5zb3VyY2Vmb3JnZS5uZXQvRFREL3NvZGlwb2RpLTAuZHRkIiB4bWxuczppbmtzY2FwZT0iaHR0cDovL3d3dy5pbmtzY2FwZS5vcmcvbmFtZXNwYWNlcy9pbmtzY2FwZSIgd2lkdGg9IjEzNS40MDU0bW0iIGhlaWdodD0iMTM1LjUwMDc2bW0iIHZpZXdCb3g9IjAgMCAxMzUuNDA1MzkgMTM1LjUwMDc2IiB2ZXJzaW9uPSIxLjEiIGlkPSJzdmc4MjAiIGlua3NjYXBlOnZlcnNpb249IjAuOTIuNCAoNWRhNjg5YzMxMywgMjAxOS0wMS0xNCkiIHNvZGlwb2RpOmRvY25hbWU9InRyYW5zaXRpb24gYWN0LnN2ZyI+JiN4YTsgIDxkZWZzIGlkPSJkZWZzODE0Ij4mI3hhOyAgICA8bGluZWFyR3JhZGllbnQgaW5rc2NhcGU6Y29sbGVjdD0iYWx3YXlzIiBpZD0ibGluZWFyR3JhZGllbnQxODE1Ij4mI3hhOyAgICAgIDxzdG9wIHN0eWxlPSJzdG9wLWNvbG9yOiM2NjM3NjY7c3RvcC1vcGFjaXR5OjEiIG9mZnNldD0iMCIgaWQ9InN0b3AxODExIi8+JiN4YTsgICAgICA8c3RvcCBzdHlsZT0ic3RvcC1jb2xvcjojYWY3NmJkO3N0b3Atb3BhY2l0eToxIiBvZmZzZXQ9IjEiIGlkPSJzdG9wMTgxMyIvPiYjeGE7ICAgIDwvbGluZWFyR3JhZGllbnQ+JiN4YTsgICAgPGZpbHRlciBpbmtzY2FwZTpjb2xsZWN0PSJhbHdheXMiIHN0eWxlPSJjb2xvci1pbnRlcnBvbGF0aW9uLWZpbHRlcnM6c1JHQiIgaWQ9ImZpbHRlcjE2ODMiIHg9Ii0wLjA0NzE5NjYxMiIgd2lkdGg9IjEuMDk0MzkzMyIgeT0iLTAuMDQ2NDA5OTk4IiBoZWlnaHQ9IjEuMDkyODIiPiYjeGE7ICAgICAgPGZlR2F1c3NpYW5CbHVyIGlua3NjYXBlOmNvbGxlY3Q9ImFsd2F5cyIgc3RkRGV2aWF0aW9uPSIwLjQzODU0Njg3IiBpZD0iZmVHYXVzc2lhbkJsdXIxNjg1Ii8+JiN4YTsgICAgPC9maWx0ZXI+JiN4YTsgICAgPGxpbmVhckdyYWRpZW50IGlua3NjYXBlOmNvbGxlY3Q9ImFsd2F5cyIgeGxpbms6aHJlZj0iI2xpbmVhckdyYWRpZW50MTgxNSIgaWQ9ImxpbmVhckdyYWRpZW50MTg1NyIgeDE9IjE1MS4zNzk0NyIgeTE9IjkxLjc1ODkyNiIgeDI9IjE0Ni44NDM3NSIgeTI9IjEwNS45MzMwNCIgZ3JhZGllbnRVbml0cz0idXNlclNwYWNlT25Vc2UiLz4mI3hhOyAgPC9kZWZzPiYjeGE7ICA8c29kaXBvZGk6bmFtZWR2aWV3IGlkPSJiYXNlIiBwYWdlY29sb3I9IiNmZmZmZmYiIGJvcmRlcmNvbG9yPSIjNjY2NjY2IiBib3JkZXJvcGFjaXR5PSIxLjAiIGlua3NjYXBlOnBhZ2VvcGFjaXR5PSIwLjAiIGlua3NjYXBlOnBhZ2VzaGFkb3c9IjIiIGlua3NjYXBlOnpvb209IjAuNDk0OTc0NzUiIGlua3NjYXBlOmN4PSI2NjkuMDY4MTMiIGlua3NjYXBlOmN5PSI4MzUuNjkzMjUiIGlua3NjYXBlOmRvY3VtZW50LXVuaXRzPSJtbSIgaW5rc2NhcGU6Y3VycmVudC1sYXllcj0ibGF5ZXI2IiBzaG93Z3JpZD0iZmFsc2UiIGlua3NjYXBlOndpbmRvdy13aWR0aD0iMTkyMCIgaW5rc2NhcGU6d2luZG93LWhlaWdodD0iMTAxMyIgaW5rc2NhcGU6d2luZG93LXg9Ii05IiBpbmtzY2FwZTp3aW5kb3cteT0iLTkiIGlua3NjYXBlOndpbmRvdy1tYXhpbWl6ZWQ9IjEiLz4mI3hhOyAgPG1ldGFkYXRhIGlkPSJtZXRhZGF0YTgxNyI+JiN4YTsgICAgPHJkZjpSREY+JiN4YTsgICAgICA8Y2M6V29yayByZGY6YWJvdXQ9IiI+JiN4YTsgICAgICAgIDxkYzpmb3JtYXQ+aW1hZ2Uvc3ZnK3htbDwvZGM6Zm9ybWF0PiYjeGE7ICAgICAgICA8ZGM6dHlwZSByZGY6cmVzb3VyY2U9Imh0dHA6Ly9wdXJsLm9yZy9kYy9kY21pdHlwZS9TdGlsbEltYWdlIi8+JiN4YTsgICAgICAgIDxkYzp0aXRsZS8+JiN4YTsgICAgICA8L2NjOldvcms+JiN4YTsgICAgPC9yZGY6UkRGPiYjeGE7ICA8L21ldGFkYXRhPiYjeGE7ICA8ZyBpbmtzY2FwZTpsYWJlbD0iVG9waWMiIGlua3NjYXBlOmdyb3VwbW9kZT0ibGF5ZXIiIGlkPSJsYXllcjEiIHN0eWxlPSJkaXNwbGF5Om5vbmUiIHRyYW5zZm9ybT0idHJhbnNsYXRlKC0xNDAuNTAwODMsLTE2NC4zNTAwNCkiPiYjeGE7ICAgIDxyZWN0IHJ5PSIxMC41NTQxNTEiIHk9IjEzMy41NDUiIHg9IjEyLjMyNTI0NSIgaGVpZ2h0PSI4MC40Mjk5MDkiIHdpZHRoPSIxMzQuODU4NDYiIGlkPSJyZWN0MTM2OSIgc3R5bGU9Im9wYWNpdHk6MTtmaWxsOm5vbmU7ZmlsbC1vcGFjaXR5OjE7c3Ryb2tlOiM2NjM3NjY7c3Ryb2tlLXdpZHRoOjEuMzY0MTQ0NDQ7c3Ryb2tlLW1pdGVybGltaXQ6NDtzdHJva2UtZGFzaGFycmF5Om5vbmU7c3Ryb2tlLW9wYWNpdHk6MSIvPiYjeGE7ICA8L2c+JiN4YTsgIDxnIGlua3NjYXBlOmdyb3VwbW9kZT0ibGF5ZXIiIGlkPSJsYXllcjYiIGlua3NjYXBlOmxhYmVsPSJ0cmFuc2l0aW9uIGFjdCIgc3R5bGU9ImRpc3BsYXk6aW5saW5lIiB0cmFuc2Zvcm09InRyYW5zbGF0ZSgtMTQwLjUwMDgzLC0xNjQuMzUwMDQpIj4mI3hhOyAgICA8ZyBzdHlsZT0iZGlzcGxheTppbmxpbmU7ZmlsbDojZmZmZmZmIiBpZD0iZzE4NzkiIHRyYW5zZm9ybT0ibWF0cml4KDIuOTcwMjk5MSwwLDAsMy4yMTIwODYsLTI2OS4wODUyOCwtMjQ1LjM1ODAxKSI+JiN4YTsgICAgICA8ZWxsaXBzZSByeT0iMjAuNjYxMzgxIiByeD0iMjIuMzYyMjc0IiBjeT0iMTQ4LjY0NDM1IiBjeD0iMTYwLjY4NzEyIiBpZD0iY2lyY2xlMTg1OSIgc3R5bGU9Im9wYWNpdHk6MTtmaWxsOiNmZmZmZmY7ZmlsbC1vcGFjaXR5OjE7c3Ryb2tlOiM2NjM3NjY7c3Ryb2tlLXdpZHRoOjAuODYxOTAxNDY7c3Ryb2tlLW1pdGVybGltaXQ6NDtzdHJva2UtZGFzaGFycmF5Om5vbmU7c3Ryb2tlLW9wYWNpdHk6MSIvPiYjeGE7ICAgICAgPHBhdGggaW5rc2NhcGU6Y29ubmVjdG9yLWN1cnZhdHVyZT0iMCIgaWQ9InBhdGgxODYxIiBkPSJtIDE0My44MjcyNCwxNDAuOTQ3MzEgMzQuMzA1ODMsLTAuMTczNDMgMC4yMDc5MiwtMC4wODY2IiBzdHlsZT0iZmlsbDojZmZmZmZmO2ZpbGwtb3BhY2l0eToxO3N0cm9rZTojNjYzNzY2O3N0cm9rZS13aWR0aDoxLjAwNDc3MzAyO3N0cm9rZS1saW5lY2FwOmJ1dHQ7c3Ryb2tlLWxpbmVqb2luOm1pdGVyO3N0cm9rZS1taXRlcmxpbWl0OjQ7c3Ryb2tlLWRhc2hhcnJheTpub25lO3N0cm9rZS1vcGFjaXR5OjEiLz4mI3hhOyAgICAgIDxwYXRoIHN0eWxlPSJmaWxsOiNmZmZmZmY7ZmlsbC1vcGFjaXR5OjE7c3Ryb2tlOiM2NjM3NjY7c3Ryb2tlLXdpZHRoOjEuMDA0NzczMDI7c3Ryb2tlLWxpbmVjYXA6YnV0dDtzdHJva2UtbGluZWpvaW46bWl0ZXI7c3Ryb2tlLW1pdGVybGltaXQ6NDtzdHJva2UtZGFzaGFycmF5Om5vbmU7c3Ryb2tlLW9wYWNpdHk6MSIgZD0ibSAxNDMuNDgyNjMsMTQ5LjEyNjQzIDM0LjMwNTg0LC0wLjE3MzQ0IDAuMjA3OTIsLTAuMDg2NiIgaWQ9InBhdGgxODYzIiBpbmtzY2FwZTpjb25uZWN0b3ItY3VydmF0dXJlPSIwIi8+JiN4YTsgICAgICA8cGF0aCBpbmtzY2FwZTpjb25uZWN0b3ItY3VydmF0dXJlPSIwIiBpZD0icGF0aDE4NjUiIGQ9Im0gMTQzLjY1NDkzLDE1Ny41MjY2IDM0LjMwNTg0LC0wLjE3MzQzIDAuMjA3OTIsLTAuMDg2NiIgc3R5bGU9ImZpbGw6I2ZmZmZmZjtmaWxsLW9wYWNpdHk6MTtzdHJva2U6IzY2Mzc2NjtzdHJva2Utd2lkdGg6MS4wMDQ3NzMwMjtzdHJva2UtbGluZWNhcDpidXR0O3N0cm9rZS1saW5lam9pbjptaXRlcjtzdHJva2UtbWl0ZXJsaW1pdDo0O3N0cm9rZS1kYXNoYXJyYXk6bm9uZTtzdHJva2Utb3BhY2l0eToxIi8+JiN4YTsgICAgPC9nPiYjeGE7ICAgIDxwYXRoIHN0eWxlPSJvcGFjaXR5OjE7ZmlsbDojZmZmZmZmO2ZpbGwtb3BhY2l0eToxO3N0cm9rZTojOTgzMTg1O3N0cm9rZS13aWR0aDozLjgxNzg5OTQ3O3N0cm9rZS1taXRlcmxpbWl0OjQ7c3Ryb2tlLWRhc2hhcnJheTpub25lO3N0cm9rZS1vcGFjaXR5OjEiIGQ9Ik0gMjUzLjE4NzUgMTAuOTY2Nzk3IEMgMjI1LjcxNTU0IDExLjE2OTg3IDE5OC4yODI3OSAxNS45NjE2NjEgMTcyLjIzNjMzIDI1LjUwNTg1OSBDIDE1OC4wMTY5OSAzMC43MTYyNDcgMTMzLjc4MTQgNDIuODY5NjYzIDEyMS42ODc1IDUwLjg1MzUxNiBDIDYwLjk3MzYxOSA5MC45MzQxMjggMjEuNDExMzY2IDE1My44ODQ1IDEyLjEyMzA0NyAyMjUuMTkzMzYgQyAxMC4zMjAwNzYgMjM5LjAzNTI0IDEwLjA2OTU0MyAyNjguODQwMjggMTEuNjM0NzY2IDI4My4yNjU2MiBDIDEzLjk2ODU3NSAzMDQuNzc0MzkgMjAuMjc5NzY5IDMyOS4xNjE1NiAyOC44MjgxMjUgMzQ5LjcwMTE3IEMgNjQuNzk3ODgzIDQzNi4xMjc3MSAxNDguMjE2NDQgNDk1LjQ4NDQyIDI0MC44ODQ3NyA1MDAuNTg5ODQgQyAyNDguMzg1MTUgNTAxLjAwMzAyIDI1Ni43OTQzNSA1MDEuMjAxNjEgMjU5LjU3MjI3IDUwMS4wMzEyNSBDIDI2Mi4zNTAxOSA1MDAuODYwOTEgMjY5LjM5Njg0IDUwMC40NzE2MSAyNzUuMjMwNDcgNTAwLjE2NjAyIEMgMzA0LjI4NTkzIDQ5OC42NDM5NCAzMzYuMzAxNzggNDg5LjgwNDMxIDM2NS40NDkyMiA0NzUuMjU3ODEgQyA0MzcuMzkzMTEgNDM5LjM1MzA1IDQ4Ni41MzIwMyAzNzEuOTQ1MDQgNDk5LjAyMTQ4IDI5Mi4wMjM0NCBDIDUwMS4yNzE0NiAyNzcuNjI1NSA1MDIuMDQ2MDMgMjQ4LjE1MjMzIDUwMC41NjA1NSAyMzMuNDc2NTYgQyA0OTMuMDE5MjUgMTU4Ljk3MjQ0IDQ1NC4xNTg1MSA5My43NDcyNDMgMzkyLjgzOTg0IDUyLjY3NTc4MSBDIDM1MS4yNTUxOCAyNC44MjIyMzMgMzAyLjE1OTI1IDEwLjYwNDc5NiAyNTMuMTg3NSAxMC45NjY3OTcgeiBNIDQ1Mi4zNjEzMyAxNTQuMDkzNzUgTCA0NTQuNjQwNjIgMTU5LjY5MzM2IEMgNDU2LjczODcgMTY0Ljg1MDMyIDQ1Ni43ODQ3NSAxNjUuMzYzODMgNDU1LjIyMDcgMTY2LjE4NTU1IEMgNDU0LjI4MjE4IDE2Ni42Nzg2MyAzOTYuMTE3NDggMTY3LjM1Nzk2IDMyNS4yMzI0MiAxNjcuNzAzMTIgQyAyNTQuNjczMjYgMTY4LjA0NjcgMTY3LjUwOTIyIDE2OC42MTExMyAxMzEuNTM1MTYgMTY4Ljk1NzAzIEwgNjYuMTI4OTA2IDE2OS41ODU5NCBMIDY2LjEyODkwNiAxNjIuODkyNTggTCA2Ni4xMjg5MDYgMTU2LjE5OTIyIEwgNzcuOTk4MDQ3IDE1Ni4xNjYwMiBDIDg0LjUyNjE1OCAxNTYuMTQ3NiAxNTIuNTk3IDE1NS43MDg1NSAyMjkuMjY3NTggMTU1LjE5MTQxIEMgMzA1LjkzODE2IDE1NC42NzQyOCAzODcuNTAwMDkgMTU0LjIxNTU3IDQxMC41MTU2MiAxNTQuMTcxODggTCA0NTIuMzYxMzMgMTU0LjA5Mzc1IHogTSA0NDguNTg3ODkgMjUyLjg5NjQ4IEwgNDUwLjc2MzY3IDI1OC43OTg4MyBDIDQ1MS45NTk1MSAyNjIuMDQ1MTEgNDUyLjY5MDIgMjY0Ljk0OTczIDQ1Mi4zODg2NyAyNjUuMjUxOTUgQyA0NTIuMDg3MTQgMjY1LjU1NDE2IDQyOS40OTA3MyAyNjYuMDg2MTIgNDAyLjE3MzgzIDI2Ni40MzM1OSBDIDM3NC44NTY5MyAyNjYuNzgxMDUgMjg3LjE2MjA2IDI2Ny4zODI1NiAyMDcuMjk2ODggMjY3Ljc3MTQ4IEwgNjIuMDg3ODkxIDI2OC40Nzg1MiBMIDYyLjA4Nzg5MSAyNjEuOTc4NTIgTCA2Mi4wODc4OTEgMjU1LjQ3ODUyIEwgMTgwLjUyNzM0IDI1NC44MzAwOCBDIDI0NS42Njk1NSAyNTQuNDczMTcgMzMyLjYzMzc0IDI1My44OTE4NCAzNzMuNzc5MyAyNTMuNTM5MDYgTCA0NDguNTg3ODkgMjUyLjg5NjQ4IHogTSA0NTAuNDkyMTkgMzU0Ljk1ODk4IEwgNDUyLjY3NTc4IDM2MC42NDY0OCBDIDQ1NC43NDc0NiAzNjYuMDQwNDggNDU0Ljc2ODY0IDM2Ni4zODM5MSA0NTMuMDY2NDEgMzY3LjI5NDkyIEMgNDUxLjk3NDQ5IDM2Ny44NzkyOSAzODUuMDM2NyAzNjguNjY0MjIgMjgyLjE4NTU1IDM2OS4yOTY4OCBMIDI4Mi4xODU1NSAzNjkuMjk0OTIgQyAxODkuMTg4NzUgMzY5Ljg2Njk3IDEwMi4wNzY0MyAzNzAuMzM5NzUgODguNjAzNTE2IDM3MC4zNDM3NSBMIDY0LjEwNzQyMiAzNzAuMzUxNTYgTCA2NC4xMDc0MjIgMzYzLjkyNzczIEwgNjQuMTA3NDIyIDM1Ny41MDE5NSBMIDE3NC40NjY4IDM1Ni44NTM1MiBDIDIzNS4xNjQzNCAzNTYuNDk2NDcgMzIyLjEwMDMyIDM1NS45MjI2IDM2Ny42NTgyIDM1NS41ODAwOCBMIDQ1MC40OTIxOSAzNTQuOTU4OTggeiAiIHRyYW5zZm9ybT0ibWF0cml4KDAuMjY0NTgzMzMsMCwwLDAuMjY0NTgzMzMsMTQwLjUwMDgzLDE2NC4zNTAwNCkiIGlkPSJwYXRoMTkyOCIvPiYjeGE7ICAgIDxwYXRoIHN0eWxlPSJvcGFjaXR5OjE7ZmlsbDojZmZmZmZmO2ZpbGwtb3BhY2l0eToxO3N0cm9rZTojOTgzMTg1O3N0cm9rZS13aWR0aDozLjgxNzg5OTQ3O3N0cm9rZS1taXRlcmxpbWl0OjQ7c3Ryb2tlLWRhc2hhcnJheTpub25lO3N0cm9rZS1vcGFjaXR5OjEiIGQ9IiIgaWQ9InBhdGgxOTMzIiBpbmtzY2FwZTpjb25uZWN0b3ItY3VydmF0dXJlPSIwIiB0cmFuc2Zvcm09Im1hdHJpeCgwLjI2NDU4MzMzLDAsMCwwLjI2NDU4MzMzLDE0MC41MDA4MywxNjQuMzUwMDQpIi8+JiN4YTsgIDwvZz4mI3hhOyAgPGcgaW5rc2NhcGU6Z3JvdXBtb2RlPSJsYXllciIgaWQ9ImxheWVyNSIgaW5rc2NhcGU6bGFiZWw9IkludHJvXyBtdWx0aXBsZSBncm91cHMgb2YgdG9waWNzIiBzdHlsZT0iZGlzcGxheTpub25lIiB0cmFuc2Zvcm09InRyYW5zbGF0ZSgtMTQwLjUwMDgzLC0xNjQuMzUwMDQpIj4mI3hhOyAgICA8ZyBzdHlsZT0iZGlzcGxheTppbmxpbmUiIGlkPSJnMTg4NyIgdHJhbnNmb3JtPSJtYXRyaXgoMi42NDAxMjE0LDAsMCwyLjYxMTQ1MDYsLTIxNC4zMTQwMSwtMzgwLjk5NDc4KSI+JiN4YTsgICAgICA8Y2lyY2xlIHI9IjI0LjkzOTA1OCIgY3k9IjIxMy4yNzgyNyIgY3g9IjE2MS4yNTQwOSIgaWQ9InBhdGgxNzQ5IiBzdHlsZT0ib3BhY2l0eToxO2ZpbGw6I2ZmZmZmZjtmaWxsLW9wYWNpdHk6MTtzdHJva2U6IzY2Mzc2NjtzdHJva2Utd2lkdGg6MTtzdHJva2UtbWl0ZXJsaW1pdDo0O3N0cm9rZS1kYXNoYXJyYXk6bm9uZTtzdHJva2Utb3BhY2l0eToxIi8+JiN4YTsgICAgICA8Y2lyY2xlIHN0eWxlPSJvcGFjaXR5OjE7ZmlsbDojZmZmZmZmO2ZpbGwtb3BhY2l0eToxO3N0cm9rZTojNjYzNzY2O3N0cm9rZS13aWR0aDowLjg4MTEzNTE3O3N0cm9rZS1taXRlcmxpbWl0OjQ7c3Ryb2tlLWRhc2hhcnJheTpub25lO3N0cm9rZS1vcGFjaXR5OjEiIGlkPSJjaXJjbGUxNzUxIiBjeD0iMTYxLjI1NDA5IiBjeT0iMjEzLjI3ODI3IiByPSIyMS45NzQ2ODIiLz4mI3hhOyAgICAgIDxwYXRoIHNvZGlwb2RpOm5vZGV0eXBlcz0iY2NjIiBpbmtzY2FwZTpjb25uZWN0b3ItY3VydmF0dXJlPSIwIiBpZD0icGF0aDE3NTUiIGQ9Im0gMTM5LjAwMDc0LDIwMS45Mzg5OSBjIDkuODI0NDcsLTE3Ljg1MTY5IDM1LjY0NDMsLTE3LjcwMjQ2IDQ0LjY5NTY5LDAgeiIgc3R5bGU9ImZpbGw6IzY2Mzc2NjtmaWxsLW9wYWNpdHk6MTtzdHJva2U6IzY2Mzc2NjtzdHJva2Utd2lkdGg6MC4yNjQ1ODMzMnB4O3N0cm9rZS1saW5lY2FwOmJ1dHQ7c3Ryb2tlLWxpbmVqb2luOm1pdGVyO3N0cm9rZS1vcGFjaXR5OjEiLz4mI3hhOyAgICAgIDxwYXRoIGlua3NjYXBlOmNvbm5lY3Rvci1jdXJ2YXR1cmU9IjAiIGlkPSJwYXRoMTc1NyIgZD0ibSAxNDUuNjE1MzIsMjEwLjA2NTQ4IDMxLjE4MzA0LC0wLjE4ODk5IDAuMTg4OTksLTAuMDk0NSIgc3R5bGU9ImZpbGw6I2ZmZmZmZjtmaWxsLW9wYWNpdHk6MTtzdHJva2U6IzY2Mzc2NjtzdHJva2Utd2lkdGg6MTtzdHJva2UtbGluZWNhcDpidXR0O3N0cm9rZS1saW5lam9pbjptaXRlcjtzdHJva2UtbWl0ZXJsaW1pdDo0O3N0cm9rZS1kYXNoYXJyYXk6bm9uZTtzdHJva2Utb3BhY2l0eToxIi8+JiN4YTsgICAgICA8cGF0aCBzdHlsZT0iZmlsbDojZmZmZmZmO2ZpbGwtb3BhY2l0eToxO3N0cm9rZTojNjYzNzY2O3N0cm9rZS13aWR0aDoxO3N0cm9rZS1saW5lY2FwOmJ1dHQ7c3Ryb2tlLWxpbmVqb2luOm1pdGVyO3N0cm9rZS1taXRlcmxpbWl0OjQ7c3Ryb2tlLWRhc2hhcnJheTpub25lO3N0cm9rZS1vcGFjaXR5OjEiIGQ9Im0gMTQ1LjYxNTMyLDIxNi44NjkwNCAzMS4xODMwNCwtMC4xODg5OSAwLjE4ODk5LC0wLjA5NDUiIGlkPSJwYXRoMTc1OSIgaW5rc2NhcGU6Y29ubmVjdG9yLWN1cnZhdHVyZT0iMCIvPiYjeGE7ICAgICAgPHBhdGggaW5rc2NhcGU6Y29ubmVjdG9yLWN1cnZhdHVyZT0iMCIgaWQ9InBhdGgxNzYxIiBkPSJtIDE0NS40MjYzNCwyMjMuODYxNjEgMzEuMTgzMDQsLTAuMTg4OTkgMC4xODg5OSwtMC4wOTQ1IiBzdHlsZT0iZmlsbDojZmZmZmZmO2ZpbGwtb3BhY2l0eToxO3N0cm9rZTojNjYzNzY2O3N0cm9rZS13aWR0aDoxO3N0cm9rZS1saW5lY2FwOmJ1dHQ7c3Ryb2tlLWxpbmVqb2luOm1pdGVyO3N0cm9rZS1taXRlcmxpbWl0OjQ7c3Ryb2tlLWRhc2hhcnJheTpub25lO3N0cm9rZS1vcGFjaXR5OjEiLz4mI3hhOyAgICA8L2c+JiN4YTsgIDwvZz4mI3hhOyAgPGcgaW5rc2NhcGU6Z3JvdXBtb2RlPSJsYXllciIgaWQ9ImxheWVyNCIgaW5rc2NhcGU6bGFiZWw9IkludHJvX0dyb3VwIG9mIHRvcGljcyIgc3R5bGU9ImRpc3BsYXk6bm9uZSIgdHJhbnNmb3JtPSJ0cmFuc2xhdGUoLTE0MC41MDA4MywtMTY0LjM1MDA0KSI+JiN4YTsgICAgPGcgc3R5bGU9ImRpc3BsYXk6aW5saW5lIiBpZD0iZzE4OTQiIHRyYW5zZm9ybT0ibWF0cml4KDIuNjQwMTIxNCwwLDAsMi42MTE0NTA2LC0yMTIuNzY0MjIsLTQ3MC4yMjY0MykiPiYjeGE7ICAgICAgPGNpcmNsZSBzdHlsZT0ib3BhY2l0eToxO2ZpbGw6I2ZmZmZmZjtmaWxsLW9wYWNpdHk6MTtzdHJva2U6IzY2Mzc2NjtzdHJva2Utd2lkdGg6MTtzdHJva2UtbWl0ZXJsaW1pdDo0O3N0cm9rZS1kYXNoYXJyYXk6bm9uZTtzdHJva2Utb3BhY2l0eToxIiBpZD0iY2lyY2xlMTc3NyIgY3g9IjE2MC4zMDkxNCIgY3k9IjI2OC42NTE3OSIgcj0iMjQuOTM5MDU4Ii8+JiN4YTsgICAgICA8cGF0aCBzdHlsZT0iZmlsbDojNjYzNzY2O2ZpbGwtb3BhY2l0eToxO3N0cm9rZTojNjYzNzY2O3N0cm9rZS13aWR0aDowLjI2NDU4MzMycHg7c3Ryb2tlLWxpbmVjYXA6YnV0dDtzdHJva2UtbGluZWpvaW46bWl0ZXI7c3Ryb2tlLW9wYWNpdHk6MSIgZD0ibSAxMzguMDU1OCwyNTcuMzEyNSBjIDkuODI0NDcsLTE3Ljg1MTY5IDM1LjY0NDMsLTE3LjcwMjQ2IDQ0LjY5NTY5LDAgeiIgaWQ9InBhdGgxNzgxIiBpbmtzY2FwZTpjb25uZWN0b3ItY3VydmF0dXJlPSIwIiBzb2RpcG9kaTpub2RldHlwZXM9ImNjYyIvPiYjeGE7ICAgICAgPHBhdGggc3R5bGU9ImZpbGw6I2ZmZmZmZjtmaWxsLW9wYWNpdHk6MTtzdHJva2U6IzY2Mzc2NjtzdHJva2Utd2lkdGg6MC45NzI5ODQ2MTtzdHJva2UtbGluZWNhcDpidXR0O3N0cm9rZS1saW5lam9pbjptaXRlcjtzdHJva2UtbWl0ZXJsaW1pdDo0O3N0cm9rZS1kYXNoYXJyYXk6bm9uZTtzdHJva2Utb3BhY2l0eToxIiBkPSJtIDE0MS45NzQwNywyNjUuNjk2ODggMzcuNjI4MjYsLTAuMTQ4MjcgMC4yMjgwNiwtMC4wNzQxIiBpZD0icGF0aDE3ODMiIGlua3NjYXBlOmNvbm5lY3Rvci1jdXJ2YXR1cmU9IjAiLz4mI3hhOyAgICAgIDxwYXRoIGlua3NjYXBlOmNvbm5lY3Rvci1jdXJ2YXR1cmU9IjAiIGlkPSJwYXRoMTc4OSIgZD0ibSAxNDEuNTk2MDksMjcyLjY4OTQ0IDM3LjYyODI2LC0wLjE0ODI3IDAuMjI4MDYsLTAuMDc0MSIgc3R5bGU9ImZpbGw6I2ZmZmZmZjtmaWxsLW9wYWNpdHk6MTtzdHJva2U6IzY2Mzc2NjtzdHJva2Utd2lkdGg6MC45NzI5ODQ2MTtzdHJva2UtbGluZWNhcDpidXR0O3N0cm9rZS1saW5lam9pbjptaXRlcjtzdHJva2UtbWl0ZXJsaW1pdDo0O3N0cm9rZS1kYXNoYXJyYXk6bm9uZTtzdHJva2Utb3BhY2l0eToxIi8+JiN4YTsgICAgICA8cGF0aCBzdHlsZT0iZmlsbDojZmZmZmZmO2ZpbGwtb3BhY2l0eToxO3N0cm9rZTojNjYzNzY2O3N0cm9rZS13aWR0aDowLjk3Mjk4NDYxO3N0cm9rZS1saW5lY2FwOmJ1dHQ7c3Ryb2tlLWxpbmVqb2luOm1pdGVyO3N0cm9rZS1taXRlcmxpbWl0OjQ7c3Ryb2tlLWRhc2hhcnJheTpub25lO3N0cm9rZS1vcGFjaXR5OjEiIGQ9Im0gMTQxLjc4NTA4LDI3OS44NzA5OSAzNy42MjgyNiwtMC4xNDgyNyAwLjIyODA2LC0wLjA3NDEiIGlkPSJwYXRoMTc5MSIgaW5rc2NhcGU6Y29ubmVjdG9yLWN1cnZhdHVyZT0iMCIvPiYjeGE7ICAgIDwvZz4mI3hhOyAgPC9nPiYjeGE7ICA8ZyBpbmtzY2FwZTpncm91cG1vZGU9ImxheWVyIiBpZD0ibGF5ZXIzIiBpbmtzY2FwZTpsYWJlbD0iRGlhbG9ndWUgQWN0IiBzdHlsZT0iZGlzcGxheTpub25lIiB0cmFuc2Zvcm09InRyYW5zbGF0ZSgtMTQwLjUwMDgzLC0xNjQuMzUwMDQpIj4mI3hhOyAgICA8ZyBzdHlsZT0iZGlzcGxheTppbmxpbmUiIGlkPSJnMTg2OSI+JiN4YTsgICAgICA8ZWxsaXBzZSBzdHlsZT0ib3BhY2l0eToxO2ZpbGw6Izk5OTk5OTtmaWxsLW9wYWNpdHk6MTtzdHJva2U6Izk5OTk5OTtzdHJva2Utd2lkdGg6MS41O3N0cm9rZS1taXRlcmxpbWl0OjQ7c3Ryb2tlLWRhc2hhcnJheTpub25lO3N0cm9rZS1vcGFjaXR5OjE7ZmlsdGVyOnVybCgjZmlsdGVyMTY4MykiIGlkPSJlbGxpcHNlMTQ4MyIgY3g9IjE0NS43MDk4MSIgY3k9Ijk3LjA1MDU4MyIgcng9IjExLjE1MDI5NyIgcnk9IjExLjMzOTI4NiIvPiYjeGE7ICAgICAgPGVsbGlwc2Ugcnk9IjExLjMzOTI4NiIgcng9IjExLjE1MDI5NyIgY3k9Ijk0LjYwNzE3OCIgY3g9IjE0Ny4zMDk1MSIgaWQ9InBhdGgxMzc5IiBzdHlsZT0ib3BhY2l0eToxO2ZpbGw6dXJsKCNsaW5lYXJHcmFkaWVudDE4NTcpO2ZpbGwtb3BhY2l0eToxO3N0cm9rZTojNjYzNzY2O3N0cm9rZS13aWR0aDoxLjU7c3Ryb2tlLW1pdGVybGltaXQ6NDtzdHJva2UtZGFzaGFycmF5Om5vbmU7c3Ryb2tlLW9wYWNpdHk6MSIvPiYjeGE7ICAgIDwvZz4mI3hhOyAgPC9nPiYjeGE7ICA8ZyBpbmtzY2FwZTpncm91cG1vZGU9ImxheWVyIiBpZD0ibGF5ZXIyIiBpbmtzY2FwZTpsYWJlbD0iTXVsdGlwbGUgdG9waWMiIHN0eWxlPSJkaXNwbGF5Om5vbmUiIHRyYW5zZm9ybT0idHJhbnNsYXRlKC0xNDAuNTAwODMsLTE2NC4zNTAwNCkiPiYjeGE7ICAgIDxyZWN0IHN0eWxlPSJvcGFjaXR5OjE7ZmlsbDpub25lO2ZpbGwtb3BhY2l0eToxO3N0cm9rZTojNjYzNzY2O3N0cm9rZS13aWR0aDoxLjM0MDAzMDQzO3N0cm9rZS1taXRlcmxpbWl0OjQ7c3Ryb2tlLWRhc2hhcnJheTpub25lO3N0cm9rZS1vcGFjaXR5OjEiIGlkPSJyZWN0MTM2NSIgd2lkdGg9IjEzNC4xMjY2MyIgaGVpZ2h0PSI3OC4wMzQ5NzMiIHg9IjEzLjA2MDIwNSIgeT0iMTM2LjI3NzQ1IiByeT0iMTAuMjM5ODgzIi8+JiN4YTsgICAgPHJlY3Qgcnk9IjkuMDk4Nzc0OSIgeT0iMTQwLjgwOTU3IiB4PSIxOS41NTgzODgiIGhlaWdodD0iNjkuMzM4OTIxIiB3aWR0aD0iMTIxLjEzMDI2IiBpZD0icmVjdDEzNjciIHN0eWxlPSJvcGFjaXR5OjE7ZmlsbDpub25lO2ZpbGwtb3BhY2l0eToxO3N0cm9rZTojNjYzNzY2O3N0cm9rZS13aWR0aDoxLjMwODc1NjExO3N0cm9rZS1taXRlcmxpbWl0OjQ7c3Ryb2tlLWRhc2hhcnJheTpub25lO3N0cm9rZS1vcGFjaXR5OjEiLz4mI3hhOyAgPC9nPiYjeGE7PC9zdmc+;shadow=0;labelBackgroundColor=none;fillColor=#000000;gradientColor=none;" parent="1" vertex="1">
          <mxGeometry x="290.07" y="130" width="19.86" height="20" as="geometry" />
        </mxCell>
        <mxCell id="__KPjMgfYowB3F4choq--121" value="" style="endArrow=none;html=1;strokeColor=#314354;exitX=1;exitY=0.5;exitDx=0;exitDy=0;entryX=0;entryY=0.5;entryDx=0;entryDy=0;dashed=1;" parent="1" target="__KPjMgfYowB3F4choq--120" edge="1">
          <mxGeometry width="50" height="50" relative="1" as="geometry">
            <mxPoint x="199.99999999999994" y="139.9" as="sourcePoint" />
            <mxPoint x="290" y="110" as="targetPoint" />
          </mxGeometry>
        </mxCell>
        <mxCell id="4z1JraAcx3Zt9ru6wFYV-3" value="" style="shape=image;verticalLabelPosition=bottom;verticalAlign=top;imageAspect=0;aspect=fixed;image=data:image/svg+xml,PHN2ZyB4bWxuczpkYz0iaHR0cDovL3B1cmwub3JnL2RjL2VsZW1lbnRzLzEuMS8iIHhtbG5zOmNjPSJodHRwOi8vY3JlYXRpdmVjb21tb25zLm9yZy9ucyMiIHhtbG5zOnJkZj0iaHR0cDovL3d3dy53My5vcmcvMTk5OS8wMi8yMi1yZGYtc3ludGF4LW5zIyIgeG1sbnM6c3ZnPSJodHRwOi8vd3d3LnczLm9yZy8yMDAwL3N2ZyIgeG1sbnM9Imh0dHA6Ly93d3cudzMub3JnLzIwMDAvc3ZnIiB4bWxuczp4bGluaz0iaHR0cDovL3d3dy53My5vcmcvMTk5OS94bGluayIgeG1sbnM6c29kaXBvZGk9Imh0dHA6Ly9zb2RpcG9kaS5zb3VyY2Vmb3JnZS5uZXQvRFREL3NvZGlwb2RpLTAuZHRkIiB4bWxuczppbmtzY2FwZT0iaHR0cDovL3d3dy5pbmtzY2FwZS5vcmcvbmFtZXNwYWNlcy9pbmtzY2FwZSIgd2lkdGg9IjEzNC4zMjQ0bW0iIGhlaWdodD0iMTMyLjg2NTY5bW0iIHZpZXdCb3g9IjAgMCAxMzQuMzI0NCAxMzIuODY1NjkiIHZlcnNpb249IjEuMSIgaWQ9InN2ZzgyMCIgaW5rc2NhcGU6dmVyc2lvbj0iMC45Mi40ICg1ZGE2ODljMzEzLCAyMDE5LTAxLTE0KSIgc29kaXBvZGk6ZG9jbmFtZT0iSW50cm9kdWN0b3J5IGFjdCAtIEdyb3VwIG9mIHRvcGljcy5zdmciPiYjeGE7ICA8ZGVmcyBpZD0iZGVmczgxNCI+JiN4YTsgICAgPGxpbmVhckdyYWRpZW50IGlua3NjYXBlOmNvbGxlY3Q9ImFsd2F5cyIgaWQ9ImxpbmVhckdyYWRpZW50MTgxNSI+JiN4YTsgICAgICA8c3RvcCBzdHlsZT0ic3RvcC1jb2xvcjojNjYzNzY2O3N0b3Atb3BhY2l0eToxIiBvZmZzZXQ9IjAiIGlkPSJzdG9wMTgxMSIvPiYjeGE7ICAgICAgPHN0b3Agc3R5bGU9InN0b3AtY29sb3I6I2FmNzZiZDtzdG9wLW9wYWNpdHk6MSIgb2Zmc2V0PSIxIiBpZD0ic3RvcDE4MTMiLz4mI3hhOyAgICA8L2xpbmVhckdyYWRpZW50PiYjeGE7ICAgIDxmaWx0ZXIgaW5rc2NhcGU6Y29sbGVjdD0iYWx3YXlzIiBzdHlsZT0iY29sb3ItaW50ZXJwb2xhdGlvbi1maWx0ZXJzOnNSR0IiIGlkPSJmaWx0ZXIxNjgzIiB4PSItMC4wNDcxOTY2MTIiIHdpZHRoPSIxLjA5NDM5MzMiIHk9Ii0wLjA0NjQwOTk5OCIgaGVpZ2h0PSIxLjA5MjgyIj4mI3hhOyAgICAgIDxmZUdhdXNzaWFuQmx1ciBpbmtzY2FwZTpjb2xsZWN0PSJhbHdheXMiIHN0ZERldmlhdGlvbj0iMC40Mzg1NDY4NyIgaWQ9ImZlR2F1c3NpYW5CbHVyMTY4NSIvPiYjeGE7ICAgIDwvZmlsdGVyPiYjeGE7ICAgIDxsaW5lYXJHcmFkaWVudCBpbmtzY2FwZTpjb2xsZWN0PSJhbHdheXMiIHhsaW5rOmhyZWY9IiNsaW5lYXJHcmFkaWVudDE4MTUiIGlkPSJsaW5lYXJHcmFkaWVudDE4NTciIHgxPSIxNTEuMzc5NDciIHkxPSI5MS43NTg5MjYiIHgyPSIxNDYuODQzNzUiIHkyPSIxMDUuOTMzMDQiIGdyYWRpZW50VW5pdHM9InVzZXJTcGFjZU9uVXNlIi8+JiN4YTsgIDwvZGVmcz4mI3hhOyAgPHNvZGlwb2RpOm5hbWVkdmlldyBpZD0iYmFzZSIgcGFnZWNvbG9yPSIjZmZmZmZmIiBib3JkZXJjb2xvcj0iIzY2NjY2NiIgYm9yZGVyb3BhY2l0eT0iMS4wIiBpbmtzY2FwZTpwYWdlb3BhY2l0eT0iMC4wIiBpbmtzY2FwZTpwYWdlc2hhZG93PSIyIiBpbmtzY2FwZTp6b29tPSIwLjM1IiBpbmtzY2FwZTpjeD0iODI2LjYzNzc4IiBpbmtzY2FwZTpjeT0iOTM5LjU5NSIgaW5rc2NhcGU6ZG9jdW1lbnQtdW5pdHM9Im1tIiBpbmtzY2FwZTpjdXJyZW50LWxheWVyPSJsYXllcjQiIHNob3dncmlkPSJmYWxzZSIgaW5rc2NhcGU6d2luZG93LXdpZHRoPSIxOTIwIiBpbmtzY2FwZTp3aW5kb3ctaGVpZ2h0PSIxMDEzIiBpbmtzY2FwZTp3aW5kb3cteD0iLTkiIGlua3NjYXBlOndpbmRvdy15PSItOSIgaW5rc2NhcGU6d2luZG93LW1heGltaXplZD0iMSIvPiYjeGE7ICA8bWV0YWRhdGEgaWQ9Im1ldGFkYXRhODE3Ij4mI3hhOyAgICA8cmRmOlJERj4mI3hhOyAgICAgIDxjYzpXb3JrIHJkZjphYm91dD0iIj4mI3hhOyAgICAgICAgPGRjOmZvcm1hdD5pbWFnZS9zdmcreG1sPC9kYzpmb3JtYXQ+JiN4YTsgICAgICAgIDxkYzp0eXBlIHJkZjpyZXNvdXJjZT0iaHR0cDovL3B1cmwub3JnL2RjL2RjbWl0eXBlL1N0aWxsSW1hZ2UiLz4mI3hhOyAgICAgICAgPGRjOnRpdGxlLz4mI3hhOyAgICAgIDwvY2M6V29yaz4mI3hhOyAgICA8L3JkZjpSREY+JiN4YTsgIDwvbWV0YWRhdGE+JiN4YTsgIDxnIGlua3NjYXBlOmxhYmVsPSJUb3BpYyIgaW5rc2NhcGU6Z3JvdXBtb2RlPSJsYXllciIgaWQ9ImxheWVyMSIgc3R5bGU9ImRpc3BsYXk6bm9uZSIgdHJhbnNmb3JtPSJ0cmFuc2xhdGUoLTE0My4zMDkxOCwtMTY0LjkxMTYyKSI+JiN4YTsgICAgPHJlY3Qgcnk9IjEwLjU1NDE1MSIgeT0iMTMzLjU0NSIgeD0iMTIuMzI1MjQ1IiBoZWlnaHQ9IjgwLjQyOTkwOSIgd2lkdGg9IjEzNC44NTg0NiIgaWQ9InJlY3QxMzY5IiBzdHlsZT0ib3BhY2l0eToxO2ZpbGw6bm9uZTtmaWxsLW9wYWNpdHk6MTtzdHJva2U6IzY2Mzc2NjtzdHJva2Utd2lkdGg6MS4zNjQxNDQ0NDtzdHJva2UtbWl0ZXJsaW1pdDo0O3N0cm9rZS1kYXNoYXJyYXk6bm9uZTtzdHJva2Utb3BhY2l0eToxIi8+JiN4YTsgIDwvZz4mI3hhOyAgPGcgaW5rc2NhcGU6Z3JvdXBtb2RlPSJsYXllciIgaWQ9ImxheWVyNiIgaW5rc2NhcGU6bGFiZWw9InRyYW5zaXRpb24gYWN0IiBzdHlsZT0iZGlzcGxheTpub25lIiB0cmFuc2Zvcm09InRyYW5zbGF0ZSgtMTQzLjMwOTE4LC0xNjQuOTExNjIpIj4mI3hhOyAgICA8ZyBzdHlsZT0iZGlzcGxheTppbmxpbmUiIGlkPSJnMTg3OSI+JiN4YTsgICAgICA8ZWxsaXBzZSByeT0iMjAuNjYxMzgxIiByeD0iMjIuMzYyMjc0IiBjeT0iMTQ4LjY0NDM1IiBjeD0iMTYwLjY4NzEyIiBpZD0iY2lyY2xlMTg1OSIgc3R5bGU9Im9wYWNpdHk6MTtmaWxsOiNmZmZmZmY7ZmlsbC1vcGFjaXR5OjE7c3Ryb2tlOiM2NjM3NjY7c3Ryb2tlLXdpZHRoOjAuODYxOTAxNDY7c3Ryb2tlLW1pdGVybGltaXQ6NDtzdHJva2UtZGFzaGFycmF5Om5vbmU7c3Ryb2tlLW9wYWNpdHk6MSIvPiYjeGE7ICAgICAgPHBhdGggaW5rc2NhcGU6Y29ubmVjdG9yLWN1cnZhdHVyZT0iMCIgaWQ9InBhdGgxODYxIiBkPSJtIDE0My44MjcyNCwxNDAuOTQ3MzEgMzQuMzA1ODMsLTAuMTczNDMgMC4yMDc5MiwtMC4wODY2IiBzdHlsZT0iZmlsbDojZmZmZmZmO2ZpbGwtb3BhY2l0eToxO3N0cm9rZTojNjYzNzY2O3N0cm9rZS13aWR0aDoxLjAwNDc3MzAyO3N0cm9rZS1saW5lY2FwOmJ1dHQ7c3Ryb2tlLWxpbmVqb2luOm1pdGVyO3N0cm9rZS1taXRlcmxpbWl0OjQ7c3Ryb2tlLWRhc2hhcnJheTpub25lO3N0cm9rZS1vcGFjaXR5OjEiLz4mI3hhOyAgICAgIDxwYXRoIHN0eWxlPSJmaWxsOiNmZmZmZmY7ZmlsbC1vcGFjaXR5OjE7c3Ryb2tlOiM2NjM3NjY7c3Ryb2tlLXdpZHRoOjEuMDA0NzczMDI7c3Ryb2tlLWxpbmVjYXA6YnV0dDtzdHJva2UtbGluZWpvaW46bWl0ZXI7c3Ryb2tlLW1pdGVybGltaXQ6NDtzdHJva2UtZGFzaGFycmF5Om5vbmU7c3Ryb2tlLW9wYWNpdHk6MSIgZD0ibSAxNDMuNDgyNjMsMTQ5LjEyNjQzIDM0LjMwNTg0LC0wLjE3MzQ0IDAuMjA3OTIsLTAuMDg2NiIgaWQ9InBhdGgxODYzIiBpbmtzY2FwZTpjb25uZWN0b3ItY3VydmF0dXJlPSIwIi8+JiN4YTsgICAgICA8cGF0aCBpbmtzY2FwZTpjb25uZWN0b3ItY3VydmF0dXJlPSIwIiBpZD0icGF0aDE4NjUiIGQ9Im0gMTQzLjY1NDkzLDE1Ny41MjY2IDM0LjMwNTg0LC0wLjE3MzQzIDAuMjA3OTIsLTAuMDg2NiIgc3R5bGU9ImZpbGw6I2ZmZmZmZjtmaWxsLW9wYWNpdHk6MTtzdHJva2U6IzY2Mzc2NjtzdHJva2Utd2lkdGg6MS4wMDQ3NzMwMjtzdHJva2UtbGluZWNhcDpidXR0O3N0cm9rZS1saW5lam9pbjptaXRlcjtzdHJva2UtbWl0ZXJsaW1pdDo0O3N0cm9rZS1kYXNoYXJyYXk6bm9uZTtzdHJva2Utb3BhY2l0eToxIi8+JiN4YTsgICAgPC9nPiYjeGE7ICA8L2c+JiN4YTsgIDxnIGlua3NjYXBlOmdyb3VwbW9kZT0ibGF5ZXIiIGlkPSJsYXllcjUiIGlua3NjYXBlOmxhYmVsPSJJbnRyb18gbXVsdGlwbGUgZ3JvdXBzIG9mIHRvcGljcyIgc3R5bGU9ImRpc3BsYXk6bm9uZSIgdHJhbnNmb3JtPSJ0cmFuc2xhdGUoLTE0My4zMDkxOCwtMTY0LjkxMTYyKSI+JiN4YTsgICAgPGcgc3R5bGU9ImRpc3BsYXk6aW5saW5lIiBpZD0iZzE4ODciIHRyYW5zZm9ybT0ibWF0cml4KDIuNjQwMTIxNCwwLDAsMi42MTE0NTA2LC0yMTQuMzE0MDEsLTM4MC45OTQ3OCkiPiYjeGE7ICAgICAgPGNpcmNsZSByPSIyNC45MzkwNTgiIGN5PSIyMTMuMjc4MjciIGN4PSIxNjEuMjU0MDkiIGlkPSJwYXRoMTc0OSIgc3R5bGU9Im9wYWNpdHk6MTtmaWxsOiNmZmZmZmY7ZmlsbC1vcGFjaXR5OjE7c3Ryb2tlOiM2NjM3NjY7c3Ryb2tlLXdpZHRoOjE7c3Ryb2tlLW1pdGVybGltaXQ6NDtzdHJva2UtZGFzaGFycmF5Om5vbmU7c3Ryb2tlLW9wYWNpdHk6MSIvPiYjeGE7ICAgICAgPGNpcmNsZSBzdHlsZT0ib3BhY2l0eToxO2ZpbGw6I2ZmZmZmZjtmaWxsLW9wYWNpdHk6MTtzdHJva2U6IzY2Mzc2NjtzdHJva2Utd2lkdGg6MC44ODExMzUxNztzdHJva2UtbWl0ZXJsaW1pdDo0O3N0cm9rZS1kYXNoYXJyYXk6bm9uZTtzdHJva2Utb3BhY2l0eToxIiBpZD0iY2lyY2xlMTc1MSIgY3g9IjE2MS4yNTQwOSIgY3k9IjIxMy4yNzgyNyIgcj0iMjEuOTc0NjgyIi8+JiN4YTsgICAgICA8cGF0aCBzb2RpcG9kaTpub2RldHlwZXM9ImNjYyIgaW5rc2NhcGU6Y29ubmVjdG9yLWN1cnZhdHVyZT0iMCIgaWQ9InBhdGgxNzU1IiBkPSJtIDEzOS4wMDA3NCwyMDEuOTM4OTkgYyA5LjgyNDQ3LC0xNy44NTE2OSAzNS42NDQzLC0xNy43MDI0NiA0NC42OTU2OSwwIHoiIHN0eWxlPSJmaWxsOiM2NjM3NjY7ZmlsbC1vcGFjaXR5OjE7c3Ryb2tlOiM2NjM3NjY7c3Ryb2tlLXdpZHRoOjAuMjY0NTgzMzJweDtzdHJva2UtbGluZWNhcDpidXR0O3N0cm9rZS1saW5lam9pbjptaXRlcjtzdHJva2Utb3BhY2l0eToxIi8+JiN4YTsgICAgICA8cGF0aCBpbmtzY2FwZTpjb25uZWN0b3ItY3VydmF0dXJlPSIwIiBpZD0icGF0aDE3NTciIGQ9Im0gMTQ1LjYxNTMyLDIxMC4wNjU0OCAzMS4xODMwNCwtMC4xODg5OSAwLjE4ODk5LC0wLjA5NDUiIHN0eWxlPSJmaWxsOiNmZmZmZmY7ZmlsbC1vcGFjaXR5OjE7c3Ryb2tlOiM2NjM3NjY7c3Ryb2tlLXdpZHRoOjE7c3Ryb2tlLWxpbmVjYXA6YnV0dDtzdHJva2UtbGluZWpvaW46bWl0ZXI7c3Ryb2tlLW1pdGVybGltaXQ6NDtzdHJva2UtZGFzaGFycmF5Om5vbmU7c3Ryb2tlLW9wYWNpdHk6MSIvPiYjeGE7ICAgICAgPHBhdGggc3R5bGU9ImZpbGw6I2ZmZmZmZjtmaWxsLW9wYWNpdHk6MTtzdHJva2U6IzY2Mzc2NjtzdHJva2Utd2lkdGg6MTtzdHJva2UtbGluZWNhcDpidXR0O3N0cm9rZS1saW5lam9pbjptaXRlcjtzdHJva2UtbWl0ZXJsaW1pdDo0O3N0cm9rZS1kYXNoYXJyYXk6bm9uZTtzdHJva2Utb3BhY2l0eToxIiBkPSJtIDE0NS42MTUzMiwyMTYuODY5MDQgMzEuMTgzMDQsLTAuMTg4OTkgMC4xODg5OSwtMC4wOTQ1IiBpZD0icGF0aDE3NTkiIGlua3NjYXBlOmNvbm5lY3Rvci1jdXJ2YXR1cmU9IjAiLz4mI3hhOyAgICAgIDxwYXRoIGlua3NjYXBlOmNvbm5lY3Rvci1jdXJ2YXR1cmU9IjAiIGlkPSJwYXRoMTc2MSIgZD0ibSAxNDUuNDI2MzQsMjIzLjg2MTYxIDMxLjE4MzA0LC0wLjE4ODk5IDAuMTg4OTksLTAuMDk0NSIgc3R5bGU9ImZpbGw6I2ZmZmZmZjtmaWxsLW9wYWNpdHk6MTtzdHJva2U6IzY2Mzc2NjtzdHJva2Utd2lkdGg6MTtzdHJva2UtbGluZWNhcDpidXR0O3N0cm9rZS1saW5lam9pbjptaXRlcjtzdHJva2UtbWl0ZXJsaW1pdDo0O3N0cm9rZS1kYXNoYXJyYXk6bm9uZTtzdHJva2Utb3BhY2l0eToxIi8+JiN4YTsgICAgPC9nPiYjeGE7ICA8L2c+JiN4YTsgIDxnIGlua3NjYXBlOmdyb3VwbW9kZT0ibGF5ZXIiIGlkPSJsYXllcjQiIGlua3NjYXBlOmxhYmVsPSJJbnRyb19Hcm91cCBvZiB0b3BpY3MiIHN0eWxlPSJkaXNwbGF5OmlubGluZSIgdHJhbnNmb3JtPSJ0cmFuc2xhdGUoLTE0My4zMDkxOCwtMTY0LjkxMTYyKSI+JiN4YTsgICAgPGcgc3R5bGU9ImRpc3BsYXk6aW5saW5lIiBpZD0iZzE4OTQiIHRyYW5zZm9ybT0ibWF0cml4KDIuNjQwMTIxNCwwLDAsMi42MTE0NTA2LC0yMTIuNzY0MjIsLTQ3MC4yMjY0MykiPiYjeGE7ICAgICAgPGNpcmNsZSBzdHlsZT0ib3BhY2l0eToxO2ZpbGw6I2ZmZmZmZjtmaWxsLW9wYWNpdHk6MTtzdHJva2U6IzY2Mzc2NjtzdHJva2Utd2lkdGg6MTtzdHJva2UtbWl0ZXJsaW1pdDo0O3N0cm9rZS1kYXNoYXJyYXk6bm9uZTtzdHJva2Utb3BhY2l0eToxIiBpZD0iY2lyY2xlMTc3NyIgY3g9IjE2MC4zMDkxNCIgY3k9IjI2OC42NTE3OSIgcj0iMjQuOTM5MDU4Ii8+JiN4YTsgICAgICA8cGF0aCBzdHlsZT0iZmlsbDojNjYzNzY2O2ZpbGwtb3BhY2l0eToxO3N0cm9rZTojNjYzNzY2O3N0cm9rZS13aWR0aDowLjI2NDU4MzMycHg7c3Ryb2tlLWxpbmVjYXA6YnV0dDtzdHJva2UtbGluZWpvaW46bWl0ZXI7c3Ryb2tlLW9wYWNpdHk6MSIgZD0ibSAxMzguMDU1OCwyNTcuMzEyNSBjIDkuODI0NDcsLTE3Ljg1MTY5IDM1LjY0NDMsLTE3LjcwMjQ2IDQ0LjY5NTY5LDAgeiIgaWQ9InBhdGgxNzgxIiBpbmtzY2FwZTpjb25uZWN0b3ItY3VydmF0dXJlPSIwIiBzb2RpcG9kaTpub2RldHlwZXM9ImNjYyIvPiYjeGE7ICAgICAgPHBhdGggc3R5bGU9ImZpbGw6I2ZmZmZmZjtmaWxsLW9wYWNpdHk6MTtzdHJva2U6IzY2Mzc2NjtzdHJva2Utd2lkdGg6MC45NzI5ODQ2MTtzdHJva2UtbGluZWNhcDpidXR0O3N0cm9rZS1saW5lam9pbjptaXRlcjtzdHJva2UtbWl0ZXJsaW1pdDo0O3N0cm9rZS1kYXNoYXJyYXk6bm9uZTtzdHJva2Utb3BhY2l0eToxIiBkPSJtIDE0MS45NzQwNywyNjUuNjk2ODggMzcuNjI4MjYsLTAuMTQ4MjcgMC4yMjgwNiwtMC4wNzQxIiBpZD0icGF0aDE3ODMiIGlua3NjYXBlOmNvbm5lY3Rvci1jdXJ2YXR1cmU9IjAiLz4mI3hhOyAgICAgIDxwYXRoIGlua3NjYXBlOmNvbm5lY3Rvci1jdXJ2YXR1cmU9IjAiIGlkPSJwYXRoMTc4OSIgZD0ibSAxNDEuNTk2MDksMjcyLjY4OTQ0IDM3LjYyODI2LC0wLjE0ODI3IDAuMjI4MDYsLTAuMDc0MSIgc3R5bGU9ImZpbGw6I2ZmZmZmZjtmaWxsLW9wYWNpdHk6MTtzdHJva2U6IzY2Mzc2NjtzdHJva2Utd2lkdGg6MC45NzI5ODQ2MTtzdHJva2UtbGluZWNhcDpidXR0O3N0cm9rZS1saW5lam9pbjptaXRlcjtzdHJva2UtbWl0ZXJsaW1pdDo0O3N0cm9rZS1kYXNoYXJyYXk6bm9uZTtzdHJva2Utb3BhY2l0eToxIi8+JiN4YTsgICAgICA8cGF0aCBzdHlsZT0iZmlsbDojZmZmZmZmO2ZpbGwtb3BhY2l0eToxO3N0cm9rZTojNjYzNzY2O3N0cm9rZS13aWR0aDowLjk3Mjk4NDYxO3N0cm9rZS1saW5lY2FwOmJ1dHQ7c3Ryb2tlLWxpbmVqb2luOm1pdGVyO3N0cm9rZS1taXRlcmxpbWl0OjQ7c3Ryb2tlLWRhc2hhcnJheTpub25lO3N0cm9rZS1vcGFjaXR5OjEiIGQ9Im0gMTQxLjc4NTA4LDI3OS44NzA5OSAzNy42MjgyNiwtMC4xNDgyNyAwLjIyODA2LC0wLjA3NDEiIGlkPSJwYXRoMTc5MSIgaW5rc2NhcGU6Y29ubmVjdG9yLWN1cnZhdHVyZT0iMCIvPiYjeGE7ICAgIDwvZz4mI3hhOyAgPC9nPiYjeGE7ICA8ZyBpbmtzY2FwZTpncm91cG1vZGU9ImxheWVyIiBpZD0ibGF5ZXIzIiBpbmtzY2FwZTpsYWJlbD0iRGlhbG9ndWUgQWN0IiBzdHlsZT0iZGlzcGxheTpub25lIiB0cmFuc2Zvcm09InRyYW5zbGF0ZSgtMTQzLjMwOTE4LC0xNjQuOTExNjIpIj4mI3hhOyAgICA8ZyBzdHlsZT0iZGlzcGxheTppbmxpbmUiIGlkPSJnMTg2OSI+JiN4YTsgICAgICA8ZWxsaXBzZSBzdHlsZT0ib3BhY2l0eToxO2ZpbGw6Izk5OTk5OTtmaWxsLW9wYWNpdHk6MTtzdHJva2U6Izk5OTk5OTtzdHJva2Utd2lkdGg6MS41O3N0cm9rZS1taXRlcmxpbWl0OjQ7c3Ryb2tlLWRhc2hhcnJheTpub25lO3N0cm9rZS1vcGFjaXR5OjE7ZmlsdGVyOnVybCgjZmlsdGVyMTY4MykiIGlkPSJlbGxpcHNlMTQ4MyIgY3g9IjE0NS43MDk4MSIgY3k9Ijk3LjA1MDU4MyIgcng9IjExLjE1MDI5NyIgcnk9IjExLjMzOTI4NiIvPiYjeGE7ICAgICAgPGVsbGlwc2Ugcnk9IjExLjMzOTI4NiIgcng9IjExLjE1MDI5NyIgY3k9Ijk0LjYwNzE3OCIgY3g9IjE0Ny4zMDk1MSIgaWQ9InBhdGgxMzc5IiBzdHlsZT0ib3BhY2l0eToxO2ZpbGw6dXJsKCNsaW5lYXJHcmFkaWVudDE4NTcpO2ZpbGwtb3BhY2l0eToxO3N0cm9rZTojNjYzNzY2O3N0cm9rZS13aWR0aDoxLjU7c3Ryb2tlLW1pdGVybGltaXQ6NDtzdHJva2UtZGFzaGFycmF5Om5vbmU7c3Ryb2tlLW9wYWNpdHk6MSIvPiYjeGE7ICAgIDwvZz4mI3hhOyAgPC9nPiYjeGE7ICA8ZyBpbmtzY2FwZTpncm91cG1vZGU9ImxheWVyIiBpZD0ibGF5ZXIyIiBpbmtzY2FwZTpsYWJlbD0iTXVsdGlwbGUgdG9waWMiIHN0eWxlPSJkaXNwbGF5Om5vbmUiIHRyYW5zZm9ybT0idHJhbnNsYXRlKC0xNDMuMzA5MTgsLTE2NC45MTE2MikiPiYjeGE7ICAgIDxyZWN0IHN0eWxlPSJvcGFjaXR5OjE7ZmlsbDpub25lO2ZpbGwtb3BhY2l0eToxO3N0cm9rZTojNjYzNzY2O3N0cm9rZS13aWR0aDoxLjM3NDg0NTg2O3N0cm9rZS1taXRlcmxpbWl0OjQ7c3Ryb2tlLWRhc2hhcnJheTpub25lO3N0cm9rZS1vcGFjaXR5OjEiIGlkPSJyZWN0MTM2NSIgd2lkdGg9IjEzNS45NjcyMSIgaGVpZ2h0PSI4MS4wMzA1NjMiIHg9IjEzLjA3NzYxMyIgeT0iMTMzLjI2NDQ3IiByeT0iMTAuNjMyOTciLz4mI3hhOyAgICA8cmVjdCByeT0iOS40NDgwNTYyIiB5PSIxMzcuOTcwNTUiIHg9IjE5LjY2NDk2OCIgaGVpZ2h0PSI3Mi4wMDA2OTQiIHdpZHRoPSIxMjIuNzkyNDkiIGlkPSJyZWN0MTM2NyIgc3R5bGU9Im9wYWNpdHk6MTtmaWxsOm5vbmU7ZmlsbC1vcGFjaXR5OjE7c3Ryb2tlOiM2NjM3NjY7c3Ryb2tlLXdpZHRoOjEuMzQyNzU5MDE7c3Ryb2tlLW1pdGVybGltaXQ6NDtzdHJva2UtZGFzaGFycmF5Om5vbmU7c3Ryb2tlLW9wYWNpdHk6MSIvPiYjeGE7ICA8L2c+JiN4YTs8L3N2Zz4=;shadow=0;labelBackgroundColor=none;fillColor=#000000;gradientColor=none;" parent="1" vertex="1">
          <mxGeometry x="125.4" y="41" width="29.21" height="29" as="geometry" />
        </mxCell>
        <mxCell id="4z1JraAcx3Zt9ru6wFYV-4" value="" style="shape=image;verticalLabelPosition=bottom;verticalAlign=top;imageAspect=0;aspect=fixed;image=data:image/svg+xml,PHN2ZyB4bWxuczpkYz0iaHR0cDovL3B1cmwub3JnL2RjL2VsZW1lbnRzLzEuMS8iIHhtbG5zOmNjPSJodHRwOi8vY3JlYXRpdmVjb21tb25zLm9yZy9ucyMiIHhtbG5zOnJkZj0iaHR0cDovL3d3dy53My5vcmcvMTk5OS8wMi8yMi1yZGYtc3ludGF4LW5zIyIgeG1sbnM6c3ZnPSJodHRwOi8vd3d3LnczLm9yZy8yMDAwL3N2ZyIgeG1sbnM9Imh0dHA6Ly93d3cudzMub3JnLzIwMDAvc3ZnIiB4bWxuczp4bGluaz0iaHR0cDovL3d3dy53My5vcmcvMTk5OS94bGluayIgeG1sbnM6c29kaXBvZGk9Imh0dHA6Ly9zb2RpcG9kaS5zb3VyY2Vmb3JnZS5uZXQvRFREL3NvZGlwb2RpLTAuZHRkIiB4bWxuczppbmtzY2FwZT0iaHR0cDovL3d3dy5pbmtzY2FwZS5vcmcvbmFtZXNwYWNlcy9pbmtzY2FwZSIgd2lkdGg9IjEzNC4zMjQ0bW0iIGhlaWdodD0iMTMyLjg2NTY5bW0iIHZpZXdCb3g9IjAgMCAxMzQuMzI0NCAxMzIuODY1NjkiIHZlcnNpb249IjEuMSIgaWQ9InN2ZzgyMCIgaW5rc2NhcGU6dmVyc2lvbj0iMC45Mi40ICg1ZGE2ODljMzEzLCAyMDE5LTAxLTE0KSIgc29kaXBvZGk6ZG9jbmFtZT0iSW50cm9kdWN0b3J5IGFjdCAtIEdyb3VwIG9mIHRvcGljcy5zdmciPiYjeGE7ICA8ZGVmcyBpZD0iZGVmczgxNCI+JiN4YTsgICAgPGxpbmVhckdyYWRpZW50IGlua3NjYXBlOmNvbGxlY3Q9ImFsd2F5cyIgaWQ9ImxpbmVhckdyYWRpZW50MTgxNSI+JiN4YTsgICAgICA8c3RvcCBzdHlsZT0ic3RvcC1jb2xvcjojNjYzNzY2O3N0b3Atb3BhY2l0eToxIiBvZmZzZXQ9IjAiIGlkPSJzdG9wMTgxMSIvPiYjeGE7ICAgICAgPHN0b3Agc3R5bGU9InN0b3AtY29sb3I6I2FmNzZiZDtzdG9wLW9wYWNpdHk6MSIgb2Zmc2V0PSIxIiBpZD0ic3RvcDE4MTMiLz4mI3hhOyAgICA8L2xpbmVhckdyYWRpZW50PiYjeGE7ICAgIDxmaWx0ZXIgaW5rc2NhcGU6Y29sbGVjdD0iYWx3YXlzIiBzdHlsZT0iY29sb3ItaW50ZXJwb2xhdGlvbi1maWx0ZXJzOnNSR0IiIGlkPSJmaWx0ZXIxNjgzIiB4PSItMC4wNDcxOTY2MTIiIHdpZHRoPSIxLjA5NDM5MzMiIHk9Ii0wLjA0NjQwOTk5OCIgaGVpZ2h0PSIxLjA5MjgyIj4mI3hhOyAgICAgIDxmZUdhdXNzaWFuQmx1ciBpbmtzY2FwZTpjb2xsZWN0PSJhbHdheXMiIHN0ZERldmlhdGlvbj0iMC40Mzg1NDY4NyIgaWQ9ImZlR2F1c3NpYW5CbHVyMTY4NSIvPiYjeGE7ICAgIDwvZmlsdGVyPiYjeGE7ICAgIDxsaW5lYXJHcmFkaWVudCBpbmtzY2FwZTpjb2xsZWN0PSJhbHdheXMiIHhsaW5rOmhyZWY9IiNsaW5lYXJHcmFkaWVudDE4MTUiIGlkPSJsaW5lYXJHcmFkaWVudDE4NTciIHgxPSIxNTEuMzc5NDciIHkxPSI5MS43NTg5MjYiIHgyPSIxNDYuODQzNzUiIHkyPSIxMDUuOTMzMDQiIGdyYWRpZW50VW5pdHM9InVzZXJTcGFjZU9uVXNlIi8+JiN4YTsgIDwvZGVmcz4mI3hhOyAgPHNvZGlwb2RpOm5hbWVkdmlldyBpZD0iYmFzZSIgcGFnZWNvbG9yPSIjZmZmZmZmIiBib3JkZXJjb2xvcj0iIzY2NjY2NiIgYm9yZGVyb3BhY2l0eT0iMS4wIiBpbmtzY2FwZTpwYWdlb3BhY2l0eT0iMC4wIiBpbmtzY2FwZTpwYWdlc2hhZG93PSIyIiBpbmtzY2FwZTp6b29tPSIwLjM1IiBpbmtzY2FwZTpjeD0iODI2LjYzNzc4IiBpbmtzY2FwZTpjeT0iOTM5LjU5NSIgaW5rc2NhcGU6ZG9jdW1lbnQtdW5pdHM9Im1tIiBpbmtzY2FwZTpjdXJyZW50LWxheWVyPSJsYXllcjQiIHNob3dncmlkPSJmYWxzZSIgaW5rc2NhcGU6d2luZG93LXdpZHRoPSIxOTIwIiBpbmtzY2FwZTp3aW5kb3ctaGVpZ2h0PSIxMDEzIiBpbmtzY2FwZTp3aW5kb3cteD0iLTkiIGlua3NjYXBlOndpbmRvdy15PSItOSIgaW5rc2NhcGU6d2luZG93LW1heGltaXplZD0iMSIvPiYjeGE7ICA8bWV0YWRhdGEgaWQ9Im1ldGFkYXRhODE3Ij4mI3hhOyAgICA8cmRmOlJERj4mI3hhOyAgICAgIDxjYzpXb3JrIHJkZjphYm91dD0iIj4mI3hhOyAgICAgICAgPGRjOmZvcm1hdD5pbWFnZS9zdmcreG1sPC9kYzpmb3JtYXQ+JiN4YTsgICAgICAgIDxkYzp0eXBlIHJkZjpyZXNvdXJjZT0iaHR0cDovL3B1cmwub3JnL2RjL2RjbWl0eXBlL1N0aWxsSW1hZ2UiLz4mI3hhOyAgICAgICAgPGRjOnRpdGxlLz4mI3hhOyAgICAgIDwvY2M6V29yaz4mI3hhOyAgICA8L3JkZjpSREY+JiN4YTsgIDwvbWV0YWRhdGE+JiN4YTsgIDxnIGlua3NjYXBlOmxhYmVsPSJUb3BpYyIgaW5rc2NhcGU6Z3JvdXBtb2RlPSJsYXllciIgaWQ9ImxheWVyMSIgc3R5bGU9ImRpc3BsYXk6bm9uZSIgdHJhbnNmb3JtPSJ0cmFuc2xhdGUoLTE0My4zMDkxOCwtMTY0LjkxMTYyKSI+JiN4YTsgICAgPHJlY3Qgcnk9IjEwLjU1NDE1MSIgeT0iMTMzLjU0NSIgeD0iMTIuMzI1MjQ1IiBoZWlnaHQ9IjgwLjQyOTkwOSIgd2lkdGg9IjEzNC44NTg0NiIgaWQ9InJlY3QxMzY5IiBzdHlsZT0ib3BhY2l0eToxO2ZpbGw6bm9uZTtmaWxsLW9wYWNpdHk6MTtzdHJva2U6IzY2Mzc2NjtzdHJva2Utd2lkdGg6MS4zNjQxNDQ0NDtzdHJva2UtbWl0ZXJsaW1pdDo0O3N0cm9rZS1kYXNoYXJyYXk6bm9uZTtzdHJva2Utb3BhY2l0eToxIi8+JiN4YTsgIDwvZz4mI3hhOyAgPGcgaW5rc2NhcGU6Z3JvdXBtb2RlPSJsYXllciIgaWQ9ImxheWVyNiIgaW5rc2NhcGU6bGFiZWw9InRyYW5zaXRpb24gYWN0IiBzdHlsZT0iZGlzcGxheTpub25lIiB0cmFuc2Zvcm09InRyYW5zbGF0ZSgtMTQzLjMwOTE4LC0xNjQuOTExNjIpIj4mI3hhOyAgICA8ZyBzdHlsZT0iZGlzcGxheTppbmxpbmUiIGlkPSJnMTg3OSI+JiN4YTsgICAgICA8ZWxsaXBzZSByeT0iMjAuNjYxMzgxIiByeD0iMjIuMzYyMjc0IiBjeT0iMTQ4LjY0NDM1IiBjeD0iMTYwLjY4NzEyIiBpZD0iY2lyY2xlMTg1OSIgc3R5bGU9Im9wYWNpdHk6MTtmaWxsOiNmZmZmZmY7ZmlsbC1vcGFjaXR5OjE7c3Ryb2tlOiM2NjM3NjY7c3Ryb2tlLXdpZHRoOjAuODYxOTAxNDY7c3Ryb2tlLW1pdGVybGltaXQ6NDtzdHJva2UtZGFzaGFycmF5Om5vbmU7c3Ryb2tlLW9wYWNpdHk6MSIvPiYjeGE7ICAgICAgPHBhdGggaW5rc2NhcGU6Y29ubmVjdG9yLWN1cnZhdHVyZT0iMCIgaWQ9InBhdGgxODYxIiBkPSJtIDE0My44MjcyNCwxNDAuOTQ3MzEgMzQuMzA1ODMsLTAuMTczNDMgMC4yMDc5MiwtMC4wODY2IiBzdHlsZT0iZmlsbDojZmZmZmZmO2ZpbGwtb3BhY2l0eToxO3N0cm9rZTojNjYzNzY2O3N0cm9rZS13aWR0aDoxLjAwNDc3MzAyO3N0cm9rZS1saW5lY2FwOmJ1dHQ7c3Ryb2tlLWxpbmVqb2luOm1pdGVyO3N0cm9rZS1taXRlcmxpbWl0OjQ7c3Ryb2tlLWRhc2hhcnJheTpub25lO3N0cm9rZS1vcGFjaXR5OjEiLz4mI3hhOyAgICAgIDxwYXRoIHN0eWxlPSJmaWxsOiNmZmZmZmY7ZmlsbC1vcGFjaXR5OjE7c3Ryb2tlOiM2NjM3NjY7c3Ryb2tlLXdpZHRoOjEuMDA0NzczMDI7c3Ryb2tlLWxpbmVjYXA6YnV0dDtzdHJva2UtbGluZWpvaW46bWl0ZXI7c3Ryb2tlLW1pdGVybGltaXQ6NDtzdHJva2UtZGFzaGFycmF5Om5vbmU7c3Ryb2tlLW9wYWNpdHk6MSIgZD0ibSAxNDMuNDgyNjMsMTQ5LjEyNjQzIDM0LjMwNTg0LC0wLjE3MzQ0IDAuMjA3OTIsLTAuMDg2NiIgaWQ9InBhdGgxODYzIiBpbmtzY2FwZTpjb25uZWN0b3ItY3VydmF0dXJlPSIwIi8+JiN4YTsgICAgICA8cGF0aCBpbmtzY2FwZTpjb25uZWN0b3ItY3VydmF0dXJlPSIwIiBpZD0icGF0aDE4NjUiIGQ9Im0gMTQzLjY1NDkzLDE1Ny41MjY2IDM0LjMwNTg0LC0wLjE3MzQzIDAuMjA3OTIsLTAuMDg2NiIgc3R5bGU9ImZpbGw6I2ZmZmZmZjtmaWxsLW9wYWNpdHk6MTtzdHJva2U6IzY2Mzc2NjtzdHJva2Utd2lkdGg6MS4wMDQ3NzMwMjtzdHJva2UtbGluZWNhcDpidXR0O3N0cm9rZS1saW5lam9pbjptaXRlcjtzdHJva2UtbWl0ZXJsaW1pdDo0O3N0cm9rZS1kYXNoYXJyYXk6bm9uZTtzdHJva2Utb3BhY2l0eToxIi8+JiN4YTsgICAgPC9nPiYjeGE7ICA8L2c+JiN4YTsgIDxnIGlua3NjYXBlOmdyb3VwbW9kZT0ibGF5ZXIiIGlkPSJsYXllcjUiIGlua3NjYXBlOmxhYmVsPSJJbnRyb18gbXVsdGlwbGUgZ3JvdXBzIG9mIHRvcGljcyIgc3R5bGU9ImRpc3BsYXk6bm9uZSIgdHJhbnNmb3JtPSJ0cmFuc2xhdGUoLTE0My4zMDkxOCwtMTY0LjkxMTYyKSI+JiN4YTsgICAgPGcgc3R5bGU9ImRpc3BsYXk6aW5saW5lIiBpZD0iZzE4ODciIHRyYW5zZm9ybT0ibWF0cml4KDIuNjQwMTIxNCwwLDAsMi42MTE0NTA2LC0yMTQuMzE0MDEsLTM4MC45OTQ3OCkiPiYjeGE7ICAgICAgPGNpcmNsZSByPSIyNC45MzkwNTgiIGN5PSIyMTMuMjc4MjciIGN4PSIxNjEuMjU0MDkiIGlkPSJwYXRoMTc0OSIgc3R5bGU9Im9wYWNpdHk6MTtmaWxsOiNmZmZmZmY7ZmlsbC1vcGFjaXR5OjE7c3Ryb2tlOiM2NjM3NjY7c3Ryb2tlLXdpZHRoOjE7c3Ryb2tlLW1pdGVybGltaXQ6NDtzdHJva2UtZGFzaGFycmF5Om5vbmU7c3Ryb2tlLW9wYWNpdHk6MSIvPiYjeGE7ICAgICAgPGNpcmNsZSBzdHlsZT0ib3BhY2l0eToxO2ZpbGw6I2ZmZmZmZjtmaWxsLW9wYWNpdHk6MTtzdHJva2U6IzY2Mzc2NjtzdHJva2Utd2lkdGg6MC44ODExMzUxNztzdHJva2UtbWl0ZXJsaW1pdDo0O3N0cm9rZS1kYXNoYXJyYXk6bm9uZTtzdHJva2Utb3BhY2l0eToxIiBpZD0iY2lyY2xlMTc1MSIgY3g9IjE2MS4yNTQwOSIgY3k9IjIxMy4yNzgyNyIgcj0iMjEuOTc0NjgyIi8+JiN4YTsgICAgICA8cGF0aCBzb2RpcG9kaTpub2RldHlwZXM9ImNjYyIgaW5rc2NhcGU6Y29ubmVjdG9yLWN1cnZhdHVyZT0iMCIgaWQ9InBhdGgxNzU1IiBkPSJtIDEzOS4wMDA3NCwyMDEuOTM4OTkgYyA5LjgyNDQ3LC0xNy44NTE2OSAzNS42NDQzLC0xNy43MDI0NiA0NC42OTU2OSwwIHoiIHN0eWxlPSJmaWxsOiM2NjM3NjY7ZmlsbC1vcGFjaXR5OjE7c3Ryb2tlOiM2NjM3NjY7c3Ryb2tlLXdpZHRoOjAuMjY0NTgzMzJweDtzdHJva2UtbGluZWNhcDpidXR0O3N0cm9rZS1saW5lam9pbjptaXRlcjtzdHJva2Utb3BhY2l0eToxIi8+JiN4YTsgICAgICA8cGF0aCBpbmtzY2FwZTpjb25uZWN0b3ItY3VydmF0dXJlPSIwIiBpZD0icGF0aDE3NTciIGQ9Im0gMTQ1LjYxNTMyLDIxMC4wNjU0OCAzMS4xODMwNCwtMC4xODg5OSAwLjE4ODk5LC0wLjA5NDUiIHN0eWxlPSJmaWxsOiNmZmZmZmY7ZmlsbC1vcGFjaXR5OjE7c3Ryb2tlOiM2NjM3NjY7c3Ryb2tlLXdpZHRoOjE7c3Ryb2tlLWxpbmVjYXA6YnV0dDtzdHJva2UtbGluZWpvaW46bWl0ZXI7c3Ryb2tlLW1pdGVybGltaXQ6NDtzdHJva2UtZGFzaGFycmF5Om5vbmU7c3Ryb2tlLW9wYWNpdHk6MSIvPiYjeGE7ICAgICAgPHBhdGggc3R5bGU9ImZpbGw6I2ZmZmZmZjtmaWxsLW9wYWNpdHk6MTtzdHJva2U6IzY2Mzc2NjtzdHJva2Utd2lkdGg6MTtzdHJva2UtbGluZWNhcDpidXR0O3N0cm9rZS1saW5lam9pbjptaXRlcjtzdHJva2UtbWl0ZXJsaW1pdDo0O3N0cm9rZS1kYXNoYXJyYXk6bm9uZTtzdHJva2Utb3BhY2l0eToxIiBkPSJtIDE0NS42MTUzMiwyMTYuODY5MDQgMzEuMTgzMDQsLTAuMTg4OTkgMC4xODg5OSwtMC4wOTQ1IiBpZD0icGF0aDE3NTkiIGlua3NjYXBlOmNvbm5lY3Rvci1jdXJ2YXR1cmU9IjAiLz4mI3hhOyAgICAgIDxwYXRoIGlua3NjYXBlOmNvbm5lY3Rvci1jdXJ2YXR1cmU9IjAiIGlkPSJwYXRoMTc2MSIgZD0ibSAxNDUuNDI2MzQsMjIzLjg2MTYxIDMxLjE4MzA0LC0wLjE4ODk5IDAuMTg4OTksLTAuMDk0NSIgc3R5bGU9ImZpbGw6I2ZmZmZmZjtmaWxsLW9wYWNpdHk6MTtzdHJva2U6IzY2Mzc2NjtzdHJva2Utd2lkdGg6MTtzdHJva2UtbGluZWNhcDpidXR0O3N0cm9rZS1saW5lam9pbjptaXRlcjtzdHJva2UtbWl0ZXJsaW1pdDo0O3N0cm9rZS1kYXNoYXJyYXk6bm9uZTtzdHJva2Utb3BhY2l0eToxIi8+JiN4YTsgICAgPC9nPiYjeGE7ICA8L2c+JiN4YTsgIDxnIGlua3NjYXBlOmdyb3VwbW9kZT0ibGF5ZXIiIGlkPSJsYXllcjQiIGlua3NjYXBlOmxhYmVsPSJJbnRyb19Hcm91cCBvZiB0b3BpY3MiIHN0eWxlPSJkaXNwbGF5OmlubGluZSIgdHJhbnNmb3JtPSJ0cmFuc2xhdGUoLTE0My4zMDkxOCwtMTY0LjkxMTYyKSI+JiN4YTsgICAgPGcgc3R5bGU9ImRpc3BsYXk6aW5saW5lIiBpZD0iZzE4OTQiIHRyYW5zZm9ybT0ibWF0cml4KDIuNjQwMTIxNCwwLDAsMi42MTE0NTA2LC0yMTIuNzY0MjIsLTQ3MC4yMjY0MykiPiYjeGE7ICAgICAgPGNpcmNsZSBzdHlsZT0ib3BhY2l0eToxO2ZpbGw6I2ZmZmZmZjtmaWxsLW9wYWNpdHk6MTtzdHJva2U6IzY2Mzc2NjtzdHJva2Utd2lkdGg6MTtzdHJva2UtbWl0ZXJsaW1pdDo0O3N0cm9rZS1kYXNoYXJyYXk6bm9uZTtzdHJva2Utb3BhY2l0eToxIiBpZD0iY2lyY2xlMTc3NyIgY3g9IjE2MC4zMDkxNCIgY3k9IjI2OC42NTE3OSIgcj0iMjQuOTM5MDU4Ii8+JiN4YTsgICAgICA8cGF0aCBzdHlsZT0iZmlsbDojNjYzNzY2O2ZpbGwtb3BhY2l0eToxO3N0cm9rZTojNjYzNzY2O3N0cm9rZS13aWR0aDowLjI2NDU4MzMycHg7c3Ryb2tlLWxpbmVjYXA6YnV0dDtzdHJva2UtbGluZWpvaW46bWl0ZXI7c3Ryb2tlLW9wYWNpdHk6MSIgZD0ibSAxMzguMDU1OCwyNTcuMzEyNSBjIDkuODI0NDcsLTE3Ljg1MTY5IDM1LjY0NDMsLTE3LjcwMjQ2IDQ0LjY5NTY5LDAgeiIgaWQ9InBhdGgxNzgxIiBpbmtzY2FwZTpjb25uZWN0b3ItY3VydmF0dXJlPSIwIiBzb2RpcG9kaTpub2RldHlwZXM9ImNjYyIvPiYjeGE7ICAgICAgPHBhdGggc3R5bGU9ImZpbGw6I2ZmZmZmZjtmaWxsLW9wYWNpdHk6MTtzdHJva2U6IzY2Mzc2NjtzdHJva2Utd2lkdGg6MC45NzI5ODQ2MTtzdHJva2UtbGluZWNhcDpidXR0O3N0cm9rZS1saW5lam9pbjptaXRlcjtzdHJva2UtbWl0ZXJsaW1pdDo0O3N0cm9rZS1kYXNoYXJyYXk6bm9uZTtzdHJva2Utb3BhY2l0eToxIiBkPSJtIDE0MS45NzQwNywyNjUuNjk2ODggMzcuNjI4MjYsLTAuMTQ4MjcgMC4yMjgwNiwtMC4wNzQxIiBpZD0icGF0aDE3ODMiIGlua3NjYXBlOmNvbm5lY3Rvci1jdXJ2YXR1cmU9IjAiLz4mI3hhOyAgICAgIDxwYXRoIGlua3NjYXBlOmNvbm5lY3Rvci1jdXJ2YXR1cmU9IjAiIGlkPSJwYXRoMTc4OSIgZD0ibSAxNDEuNTk2MDksMjcyLjY4OTQ0IDM3LjYyODI2LC0wLjE0ODI3IDAuMjI4MDYsLTAuMDc0MSIgc3R5bGU9ImZpbGw6I2ZmZmZmZjtmaWxsLW9wYWNpdHk6MTtzdHJva2U6IzY2Mzc2NjtzdHJva2Utd2lkdGg6MC45NzI5ODQ2MTtzdHJva2UtbGluZWNhcDpidXR0O3N0cm9rZS1saW5lam9pbjptaXRlcjtzdHJva2UtbWl0ZXJsaW1pdDo0O3N0cm9rZS1kYXNoYXJyYXk6bm9uZTtzdHJva2Utb3BhY2l0eToxIi8+JiN4YTsgICAgICA8cGF0aCBzdHlsZT0iZmlsbDojZmZmZmZmO2ZpbGwtb3BhY2l0eToxO3N0cm9rZTojNjYzNzY2O3N0cm9rZS13aWR0aDowLjk3Mjk4NDYxO3N0cm9rZS1saW5lY2FwOmJ1dHQ7c3Ryb2tlLWxpbmVqb2luOm1pdGVyO3N0cm9rZS1taXRlcmxpbWl0OjQ7c3Ryb2tlLWRhc2hhcnJheTpub25lO3N0cm9rZS1vcGFjaXR5OjEiIGQ9Im0gMTQxLjc4NTA4LDI3OS44NzA5OSAzNy42MjgyNiwtMC4xNDgyNyAwLjIyODA2LC0wLjA3NDEiIGlkPSJwYXRoMTc5MSIgaW5rc2NhcGU6Y29ubmVjdG9yLWN1cnZhdHVyZT0iMCIvPiYjeGE7ICAgIDwvZz4mI3hhOyAgPC9nPiYjeGE7ICA8ZyBpbmtzY2FwZTpncm91cG1vZGU9ImxheWVyIiBpZD0ibGF5ZXIzIiBpbmtzY2FwZTpsYWJlbD0iRGlhbG9ndWUgQWN0IiBzdHlsZT0iZGlzcGxheTpub25lIiB0cmFuc2Zvcm09InRyYW5zbGF0ZSgtMTQzLjMwOTE4LC0xNjQuOTExNjIpIj4mI3hhOyAgICA8ZyBzdHlsZT0iZGlzcGxheTppbmxpbmUiIGlkPSJnMTg2OSI+JiN4YTsgICAgICA8ZWxsaXBzZSBzdHlsZT0ib3BhY2l0eToxO2ZpbGw6Izk5OTk5OTtmaWxsLW9wYWNpdHk6MTtzdHJva2U6Izk5OTk5OTtzdHJva2Utd2lkdGg6MS41O3N0cm9rZS1taXRlcmxpbWl0OjQ7c3Ryb2tlLWRhc2hhcnJheTpub25lO3N0cm9rZS1vcGFjaXR5OjE7ZmlsdGVyOnVybCgjZmlsdGVyMTY4MykiIGlkPSJlbGxpcHNlMTQ4MyIgY3g9IjE0NS43MDk4MSIgY3k9Ijk3LjA1MDU4MyIgcng9IjExLjE1MDI5NyIgcnk9IjExLjMzOTI4NiIvPiYjeGE7ICAgICAgPGVsbGlwc2Ugcnk9IjExLjMzOTI4NiIgcng9IjExLjE1MDI5NyIgY3k9Ijk0LjYwNzE3OCIgY3g9IjE0Ny4zMDk1MSIgaWQ9InBhdGgxMzc5IiBzdHlsZT0ib3BhY2l0eToxO2ZpbGw6dXJsKCNsaW5lYXJHcmFkaWVudDE4NTcpO2ZpbGwtb3BhY2l0eToxO3N0cm9rZTojNjYzNzY2O3N0cm9rZS13aWR0aDoxLjU7c3Ryb2tlLW1pdGVybGltaXQ6NDtzdHJva2UtZGFzaGFycmF5Om5vbmU7c3Ryb2tlLW9wYWNpdHk6MSIvPiYjeGE7ICAgIDwvZz4mI3hhOyAgPC9nPiYjeGE7ICA8ZyBpbmtzY2FwZTpncm91cG1vZGU9ImxheWVyIiBpZD0ibGF5ZXIyIiBpbmtzY2FwZTpsYWJlbD0iTXVsdGlwbGUgdG9waWMiIHN0eWxlPSJkaXNwbGF5Om5vbmUiIHRyYW5zZm9ybT0idHJhbnNsYXRlKC0xNDMuMzA5MTgsLTE2NC45MTE2MikiPiYjeGE7ICAgIDxyZWN0IHN0eWxlPSJvcGFjaXR5OjE7ZmlsbDpub25lO2ZpbGwtb3BhY2l0eToxO3N0cm9rZTojNjYzNzY2O3N0cm9rZS13aWR0aDoxLjM3NDg0NTg2O3N0cm9rZS1taXRlcmxpbWl0OjQ7c3Ryb2tlLWRhc2hhcnJheTpub25lO3N0cm9rZS1vcGFjaXR5OjEiIGlkPSJyZWN0MTM2NSIgd2lkdGg9IjEzNS45NjcyMSIgaGVpZ2h0PSI4MS4wMzA1NjMiIHg9IjEzLjA3NzYxMyIgeT0iMTMzLjI2NDQ3IiByeT0iMTAuNjMyOTciLz4mI3hhOyAgICA8cmVjdCByeT0iOS40NDgwNTYyIiB5PSIxMzcuOTcwNTUiIHg9IjE5LjY2NDk2OCIgaGVpZ2h0PSI3Mi4wMDA2OTQiIHdpZHRoPSIxMjIuNzkyNDkiIGlkPSJyZWN0MTM2NyIgc3R5bGU9Im9wYWNpdHk6MTtmaWxsOm5vbmU7ZmlsbC1vcGFjaXR5OjE7c3Ryb2tlOiM2NjM3NjY7c3Ryb2tlLXdpZHRoOjEuMzQyNzU5MDE7c3Ryb2tlLW1pdGVybGltaXQ6NDtzdHJva2UtZGFzaGFycmF5Om5vbmU7c3Ryb2tlLW9wYWNpdHk6MSIvPiYjeGE7ICA8L2c+JiN4YTs8L3N2Zz4=;shadow=0;labelBackgroundColor=none;fillColor=#000000;gradientColor=none;" parent="1" vertex="1">
          <mxGeometry x="445.4" y="41" width="29.21" height="29" as="geometry" />
        </mxCell>
        <mxCell id="4z1JraAcx3Zt9ru6wFYV-5" value="Association" style="text;html=1;" parent="1" vertex="1">
          <mxGeometry x="630" y="95" width="90" height="30" as="geometry" />
        </mxCell>
        <mxCell id="Ztu6SYVmpyk_9Lz7PAHQ-1" value="" style="shape=image;verticalLabelPosition=bottom;verticalAlign=top;imageAspect=0;aspect=fixed;image=data:image/svg+xml,PHN2ZyB4bWxuczpkYz0iaHR0cDovL3B1cmwub3JnL2RjL2VsZW1lbnRzLzEuMS8iIHhtbG5zOmNjPSJodHRwOi8vY3JlYXRpdmVjb21tb25zLm9yZy9ucyMiIHhtbG5zOnJkZj0iaHR0cDovL3d3dy53My5vcmcvMTk5OS8wMi8yMi1yZGYtc3ludGF4LW5zIyIgeG1sbnM6c3ZnPSJodHRwOi8vd3d3LnczLm9yZy8yMDAwL3N2ZyIgeG1sbnM9Imh0dHA6Ly93d3cudzMub3JnLzIwMDAvc3ZnIiB4bWxuczp4bGluaz0iaHR0cDovL3d3dy53My5vcmcvMTk5OS94bGluayIgeG1sbnM6c29kaXBvZGk9Imh0dHA6Ly9zb2RpcG9kaS5zb3VyY2Vmb3JnZS5uZXQvRFREL3NvZGlwb2RpLTAuZHRkIiB4bWxuczppbmtzY2FwZT0iaHR0cDovL3d3dy5pbmtzY2FwZS5vcmcvbmFtZXNwYWNlcy9pbmtzY2FwZSIgd2lkdGg9IjEzNS40MDU0bW0iIGhlaWdodD0iMTM1LjUwMDc2bW0iIHZpZXdCb3g9IjAgMCAxMzUuNDA1MzkgMTM1LjUwMDc2IiB2ZXJzaW9uPSIxLjEiIGlkPSJzdmc4MjAiIGlua3NjYXBlOnZlcnNpb249IjAuOTIuNCAoNWRhNjg5YzMxMywgMjAxOS0wMS0xNCkiIHNvZGlwb2RpOmRvY25hbWU9InRyYW5zaXRpb24gYWN0LnN2ZyI+JiN4YTsgIDxkZWZzIGlkPSJkZWZzODE0Ij4mI3hhOyAgICA8bGluZWFyR3JhZGllbnQgaW5rc2NhcGU6Y29sbGVjdD0iYWx3YXlzIiBpZD0ibGluZWFyR3JhZGllbnQxODE1Ij4mI3hhOyAgICAgIDxzdG9wIHN0eWxlPSJzdG9wLWNvbG9yOiM2NjM3NjY7c3RvcC1vcGFjaXR5OjEiIG9mZnNldD0iMCIgaWQ9InN0b3AxODExIi8+JiN4YTsgICAgICA8c3RvcCBzdHlsZT0ic3RvcC1jb2xvcjojYWY3NmJkO3N0b3Atb3BhY2l0eToxIiBvZmZzZXQ9IjEiIGlkPSJzdG9wMTgxMyIvPiYjeGE7ICAgIDwvbGluZWFyR3JhZGllbnQ+JiN4YTsgICAgPGZpbHRlciBpbmtzY2FwZTpjb2xsZWN0PSJhbHdheXMiIHN0eWxlPSJjb2xvci1pbnRlcnBvbGF0aW9uLWZpbHRlcnM6c1JHQiIgaWQ9ImZpbHRlcjE2ODMiIHg9Ii0wLjA0NzE5NjYxMiIgd2lkdGg9IjEuMDk0MzkzMyIgeT0iLTAuMDQ2NDA5OTk4IiBoZWlnaHQ9IjEuMDkyODIiPiYjeGE7ICAgICAgPGZlR2F1c3NpYW5CbHVyIGlua3NjYXBlOmNvbGxlY3Q9ImFsd2F5cyIgc3RkRGV2aWF0aW9uPSIwLjQzODU0Njg3IiBpZD0iZmVHYXVzc2lhbkJsdXIxNjg1Ii8+JiN4YTsgICAgPC9maWx0ZXI+JiN4YTsgICAgPGxpbmVhckdyYWRpZW50IGlua3NjYXBlOmNvbGxlY3Q9ImFsd2F5cyIgeGxpbms6aHJlZj0iI2xpbmVhckdyYWRpZW50MTgxNSIgaWQ9ImxpbmVhckdyYWRpZW50MTg1NyIgeDE9IjE1MS4zNzk0NyIgeTE9IjkxLjc1ODkyNiIgeDI9IjE0Ni44NDM3NSIgeTI9IjEwNS45MzMwNCIgZ3JhZGllbnRVbml0cz0idXNlclNwYWNlT25Vc2UiLz4mI3hhOyAgPC9kZWZzPiYjeGE7ICA8c29kaXBvZGk6bmFtZWR2aWV3IGlkPSJiYXNlIiBwYWdlY29sb3I9IiNmZmZmZmYiIGJvcmRlcmNvbG9yPSIjNjY2NjY2IiBib3JkZXJvcGFjaXR5PSIxLjAiIGlua3NjYXBlOnBhZ2VvcGFjaXR5PSIwLjAiIGlua3NjYXBlOnBhZ2VzaGFkb3c9IjIiIGlua3NjYXBlOnpvb209IjAuNDk0OTc0NzUiIGlua3NjYXBlOmN4PSI2NjkuMDY4MTMiIGlua3NjYXBlOmN5PSI4MzUuNjkzMjUiIGlua3NjYXBlOmRvY3VtZW50LXVuaXRzPSJtbSIgaW5rc2NhcGU6Y3VycmVudC1sYXllcj0ibGF5ZXI2IiBzaG93Z3JpZD0iZmFsc2UiIGlua3NjYXBlOndpbmRvdy13aWR0aD0iMTkyMCIgaW5rc2NhcGU6d2luZG93LWhlaWdodD0iMTAxMyIgaW5rc2NhcGU6d2luZG93LXg9Ii05IiBpbmtzY2FwZTp3aW5kb3cteT0iLTkiIGlua3NjYXBlOndpbmRvdy1tYXhpbWl6ZWQ9IjEiLz4mI3hhOyAgPG1ldGFkYXRhIGlkPSJtZXRhZGF0YTgxNyI+JiN4YTsgICAgPHJkZjpSREY+JiN4YTsgICAgICA8Y2M6V29yayByZGY6YWJvdXQ9IiI+JiN4YTsgICAgICAgIDxkYzpmb3JtYXQ+aW1hZ2Uvc3ZnK3htbDwvZGM6Zm9ybWF0PiYjeGE7ICAgICAgICA8ZGM6dHlwZSByZGY6cmVzb3VyY2U9Imh0dHA6Ly9wdXJsLm9yZy9kYy9kY21pdHlwZS9TdGlsbEltYWdlIi8+JiN4YTsgICAgICAgIDxkYzp0aXRsZS8+JiN4YTsgICAgICA8L2NjOldvcms+JiN4YTsgICAgPC9yZGY6UkRGPiYjeGE7ICA8L21ldGFkYXRhPiYjeGE7ICA8ZyBpbmtzY2FwZTpsYWJlbD0iVG9waWMiIGlua3NjYXBlOmdyb3VwbW9kZT0ibGF5ZXIiIGlkPSJsYXllcjEiIHN0eWxlPSJkaXNwbGF5Om5vbmUiIHRyYW5zZm9ybT0idHJhbnNsYXRlKC0xNDAuNTAwODMsLTE2NC4zNTAwNCkiPiYjeGE7ICAgIDxyZWN0IHJ5PSIxMC41NTQxNTEiIHk9IjEzMy41NDUiIHg9IjEyLjMyNTI0NSIgaGVpZ2h0PSI4MC40Mjk5MDkiIHdpZHRoPSIxMzQuODU4NDYiIGlkPSJyZWN0MTM2OSIgc3R5bGU9Im9wYWNpdHk6MTtmaWxsOm5vbmU7ZmlsbC1vcGFjaXR5OjE7c3Ryb2tlOiM2NjM3NjY7c3Ryb2tlLXdpZHRoOjEuMzY0MTQ0NDQ7c3Ryb2tlLW1pdGVybGltaXQ6NDtzdHJva2UtZGFzaGFycmF5Om5vbmU7c3Ryb2tlLW9wYWNpdHk6MSIvPiYjeGE7ICA8L2c+JiN4YTsgIDxnIGlua3NjYXBlOmdyb3VwbW9kZT0ibGF5ZXIiIGlkPSJsYXllcjYiIGlua3NjYXBlOmxhYmVsPSJ0cmFuc2l0aW9uIGFjdCIgc3R5bGU9ImRpc3BsYXk6aW5saW5lIiB0cmFuc2Zvcm09InRyYW5zbGF0ZSgtMTQwLjUwMDgzLC0xNjQuMzUwMDQpIj4mI3hhOyAgICA8ZyBzdHlsZT0iZGlzcGxheTppbmxpbmU7ZmlsbDojZmZmZmZmIiBpZD0iZzE4NzkiIHRyYW5zZm9ybT0ibWF0cml4KDIuOTcwMjk5MSwwLDAsMy4yMTIwODYsLTI2OS4wODUyOCwtMjQ1LjM1ODAxKSI+JiN4YTsgICAgICA8ZWxsaXBzZSByeT0iMjAuNjYxMzgxIiByeD0iMjIuMzYyMjc0IiBjeT0iMTQ4LjY0NDM1IiBjeD0iMTYwLjY4NzEyIiBpZD0iY2lyY2xlMTg1OSIgc3R5bGU9Im9wYWNpdHk6MTtmaWxsOiNmZmZmZmY7ZmlsbC1vcGFjaXR5OjE7c3Ryb2tlOiM2NjM3NjY7c3Ryb2tlLXdpZHRoOjAuODYxOTAxNDY7c3Ryb2tlLW1pdGVybGltaXQ6NDtzdHJva2UtZGFzaGFycmF5Om5vbmU7c3Ryb2tlLW9wYWNpdHk6MSIvPiYjeGE7ICAgICAgPHBhdGggaW5rc2NhcGU6Y29ubmVjdG9yLWN1cnZhdHVyZT0iMCIgaWQ9InBhdGgxODYxIiBkPSJtIDE0My44MjcyNCwxNDAuOTQ3MzEgMzQuMzA1ODMsLTAuMTczNDMgMC4yMDc5MiwtMC4wODY2IiBzdHlsZT0iZmlsbDojZmZmZmZmO2ZpbGwtb3BhY2l0eToxO3N0cm9rZTojNjYzNzY2O3N0cm9rZS13aWR0aDoxLjAwNDc3MzAyO3N0cm9rZS1saW5lY2FwOmJ1dHQ7c3Ryb2tlLWxpbmVqb2luOm1pdGVyO3N0cm9rZS1taXRlcmxpbWl0OjQ7c3Ryb2tlLWRhc2hhcnJheTpub25lO3N0cm9rZS1vcGFjaXR5OjEiLz4mI3hhOyAgICAgIDxwYXRoIHN0eWxlPSJmaWxsOiNmZmZmZmY7ZmlsbC1vcGFjaXR5OjE7c3Ryb2tlOiM2NjM3NjY7c3Ryb2tlLXdpZHRoOjEuMDA0NzczMDI7c3Ryb2tlLWxpbmVjYXA6YnV0dDtzdHJva2UtbGluZWpvaW46bWl0ZXI7c3Ryb2tlLW1pdGVybGltaXQ6NDtzdHJva2UtZGFzaGFycmF5Om5vbmU7c3Ryb2tlLW9wYWNpdHk6MSIgZD0ibSAxNDMuNDgyNjMsMTQ5LjEyNjQzIDM0LjMwNTg0LC0wLjE3MzQ0IDAuMjA3OTIsLTAuMDg2NiIgaWQ9InBhdGgxODYzIiBpbmtzY2FwZTpjb25uZWN0b3ItY3VydmF0dXJlPSIwIi8+JiN4YTsgICAgICA8cGF0aCBpbmtzY2FwZTpjb25uZWN0b3ItY3VydmF0dXJlPSIwIiBpZD0icGF0aDE4NjUiIGQ9Im0gMTQzLjY1NDkzLDE1Ny41MjY2IDM0LjMwNTg0LC0wLjE3MzQzIDAuMjA3OTIsLTAuMDg2NiIgc3R5bGU9ImZpbGw6I2ZmZmZmZjtmaWxsLW9wYWNpdHk6MTtzdHJva2U6IzY2Mzc2NjtzdHJva2Utd2lkdGg6MS4wMDQ3NzMwMjtzdHJva2UtbGluZWNhcDpidXR0O3N0cm9rZS1saW5lam9pbjptaXRlcjtzdHJva2UtbWl0ZXJsaW1pdDo0O3N0cm9rZS1kYXNoYXJyYXk6bm9uZTtzdHJva2Utb3BhY2l0eToxIi8+JiN4YTsgICAgPC9nPiYjeGE7ICAgIDxwYXRoIHN0eWxlPSJvcGFjaXR5OjE7ZmlsbDojZmZmZmZmO2ZpbGwtb3BhY2l0eToxO3N0cm9rZTojOTgzMTg1O3N0cm9rZS13aWR0aDozLjgxNzg5OTQ3O3N0cm9rZS1taXRlcmxpbWl0OjQ7c3Ryb2tlLWRhc2hhcnJheTpub25lO3N0cm9rZS1vcGFjaXR5OjEiIGQ9Ik0gMjUzLjE4NzUgMTAuOTY2Nzk3IEMgMjI1LjcxNTU0IDExLjE2OTg3IDE5OC4yODI3OSAxNS45NjE2NjEgMTcyLjIzNjMzIDI1LjUwNTg1OSBDIDE1OC4wMTY5OSAzMC43MTYyNDcgMTMzLjc4MTQgNDIuODY5NjYzIDEyMS42ODc1IDUwLjg1MzUxNiBDIDYwLjk3MzYxOSA5MC45MzQxMjggMjEuNDExMzY2IDE1My44ODQ1IDEyLjEyMzA0NyAyMjUuMTkzMzYgQyAxMC4zMjAwNzYgMjM5LjAzNTI0IDEwLjA2OTU0MyAyNjguODQwMjggMTEuNjM0NzY2IDI4My4yNjU2MiBDIDEzLjk2ODU3NSAzMDQuNzc0MzkgMjAuMjc5NzY5IDMyOS4xNjE1NiAyOC44MjgxMjUgMzQ5LjcwMTE3IEMgNjQuNzk3ODgzIDQzNi4xMjc3MSAxNDguMjE2NDQgNDk1LjQ4NDQyIDI0MC44ODQ3NyA1MDAuNTg5ODQgQyAyNDguMzg1MTUgNTAxLjAwMzAyIDI1Ni43OTQzNSA1MDEuMjAxNjEgMjU5LjU3MjI3IDUwMS4wMzEyNSBDIDI2Mi4zNTAxOSA1MDAuODYwOTEgMjY5LjM5Njg0IDUwMC40NzE2MSAyNzUuMjMwNDcgNTAwLjE2NjAyIEMgMzA0LjI4NTkzIDQ5OC42NDM5NCAzMzYuMzAxNzggNDg5LjgwNDMxIDM2NS40NDkyMiA0NzUuMjU3ODEgQyA0MzcuMzkzMTEgNDM5LjM1MzA1IDQ4Ni41MzIwMyAzNzEuOTQ1MDQgNDk5LjAyMTQ4IDI5Mi4wMjM0NCBDIDUwMS4yNzE0NiAyNzcuNjI1NSA1MDIuMDQ2MDMgMjQ4LjE1MjMzIDUwMC41NjA1NSAyMzMuNDc2NTYgQyA0OTMuMDE5MjUgMTU4Ljk3MjQ0IDQ1NC4xNTg1MSA5My43NDcyNDMgMzkyLjgzOTg0IDUyLjY3NTc4MSBDIDM1MS4yNTUxOCAyNC44MjIyMzMgMzAyLjE1OTI1IDEwLjYwNDc5NiAyNTMuMTg3NSAxMC45NjY3OTcgeiBNIDQ1Mi4zNjEzMyAxNTQuMDkzNzUgTCA0NTQuNjQwNjIgMTU5LjY5MzM2IEMgNDU2LjczODcgMTY0Ljg1MDMyIDQ1Ni43ODQ3NSAxNjUuMzYzODMgNDU1LjIyMDcgMTY2LjE4NTU1IEMgNDU0LjI4MjE4IDE2Ni42Nzg2MyAzOTYuMTE3NDggMTY3LjM1Nzk2IDMyNS4yMzI0MiAxNjcuNzAzMTIgQyAyNTQuNjczMjYgMTY4LjA0NjcgMTY3LjUwOTIyIDE2OC42MTExMyAxMzEuNTM1MTYgMTY4Ljk1NzAzIEwgNjYuMTI4OTA2IDE2OS41ODU5NCBMIDY2LjEyODkwNiAxNjIuODkyNTggTCA2Ni4xMjg5MDYgMTU2LjE5OTIyIEwgNzcuOTk4MDQ3IDE1Ni4xNjYwMiBDIDg0LjUyNjE1OCAxNTYuMTQ3NiAxNTIuNTk3IDE1NS43MDg1NSAyMjkuMjY3NTggMTU1LjE5MTQxIEMgMzA1LjkzODE2IDE1NC42NzQyOCAzODcuNTAwMDkgMTU0LjIxNTU3IDQxMC41MTU2MiAxNTQuMTcxODggTCA0NTIuMzYxMzMgMTU0LjA5Mzc1IHogTSA0NDguNTg3ODkgMjUyLjg5NjQ4IEwgNDUwLjc2MzY3IDI1OC43OTg4MyBDIDQ1MS45NTk1MSAyNjIuMDQ1MTEgNDUyLjY5MDIgMjY0Ljk0OTczIDQ1Mi4zODg2NyAyNjUuMjUxOTUgQyA0NTIuMDg3MTQgMjY1LjU1NDE2IDQyOS40OTA3MyAyNjYuMDg2MTIgNDAyLjE3MzgzIDI2Ni40MzM1OSBDIDM3NC44NTY5MyAyNjYuNzgxMDUgMjg3LjE2MjA2IDI2Ny4zODI1NiAyMDcuMjk2ODggMjY3Ljc3MTQ4IEwgNjIuMDg3ODkxIDI2OC40Nzg1MiBMIDYyLjA4Nzg5MSAyNjEuOTc4NTIgTCA2Mi4wODc4OTEgMjU1LjQ3ODUyIEwgMTgwLjUyNzM0IDI1NC44MzAwOCBDIDI0NS42Njk1NSAyNTQuNDczMTcgMzMyLjYzMzc0IDI1My44OTE4NCAzNzMuNzc5MyAyNTMuNTM5MDYgTCA0NDguNTg3ODkgMjUyLjg5NjQ4IHogTSA0NTAuNDkyMTkgMzU0Ljk1ODk4IEwgNDUyLjY3NTc4IDM2MC42NDY0OCBDIDQ1NC43NDc0NiAzNjYuMDQwNDggNDU0Ljc2ODY0IDM2Ni4zODM5MSA0NTMuMDY2NDEgMzY3LjI5NDkyIEMgNDUxLjk3NDQ5IDM2Ny44NzkyOSAzODUuMDM2NyAzNjguNjY0MjIgMjgyLjE4NTU1IDM2OS4yOTY4OCBMIDI4Mi4xODU1NSAzNjkuMjk0OTIgQyAxODkuMTg4NzUgMzY5Ljg2Njk3IDEwMi4wNzY0MyAzNzAuMzM5NzUgODguNjAzNTE2IDM3MC4zNDM3NSBMIDY0LjEwNzQyMiAzNzAuMzUxNTYgTCA2NC4xMDc0MjIgMzYzLjkyNzczIEwgNjQuMTA3NDIyIDM1Ny41MDE5NSBMIDE3NC40NjY4IDM1Ni44NTM1MiBDIDIzNS4xNjQzNCAzNTYuNDk2NDcgMzIyLjEwMDMyIDM1NS45MjI2IDM2Ny42NTgyIDM1NS41ODAwOCBMIDQ1MC40OTIxOSAzNTQuOTU4OTggeiAiIHRyYW5zZm9ybT0ibWF0cml4KDAuMjY0NTgzMzMsMCwwLDAuMjY0NTgzMzMsMTQwLjUwMDgzLDE2NC4zNTAwNCkiIGlkPSJwYXRoMTkyOCIvPiYjeGE7ICAgIDxwYXRoIHN0eWxlPSJvcGFjaXR5OjE7ZmlsbDojZmZmZmZmO2ZpbGwtb3BhY2l0eToxO3N0cm9rZTojOTgzMTg1O3N0cm9rZS13aWR0aDozLjgxNzg5OTQ3O3N0cm9rZS1taXRlcmxpbWl0OjQ7c3Ryb2tlLWRhc2hhcnJheTpub25lO3N0cm9rZS1vcGFjaXR5OjEiIGQ9IiIgaWQ9InBhdGgxOTMzIiBpbmtzY2FwZTpjb25uZWN0b3ItY3VydmF0dXJlPSIwIiB0cmFuc2Zvcm09Im1hdHJpeCgwLjI2NDU4MzMzLDAsMCwwLjI2NDU4MzMzLDE0MC41MDA4MywxNjQuMzUwMDQpIi8+JiN4YTsgIDwvZz4mI3hhOyAgPGcgaW5rc2NhcGU6Z3JvdXBtb2RlPSJsYXllciIgaWQ9ImxheWVyNSIgaW5rc2NhcGU6bGFiZWw9IkludHJvXyBtdWx0aXBsZSBncm91cHMgb2YgdG9waWNzIiBzdHlsZT0iZGlzcGxheTpub25lIiB0cmFuc2Zvcm09InRyYW5zbGF0ZSgtMTQwLjUwMDgzLC0xNjQuMzUwMDQpIj4mI3hhOyAgICA8ZyBzdHlsZT0iZGlzcGxheTppbmxpbmUiIGlkPSJnMTg4NyIgdHJhbnNmb3JtPSJtYXRyaXgoMi42NDAxMjE0LDAsMCwyLjYxMTQ1MDYsLTIxNC4zMTQwMSwtMzgwLjk5NDc4KSI+JiN4YTsgICAgICA8Y2lyY2xlIHI9IjI0LjkzOTA1OCIgY3k9IjIxMy4yNzgyNyIgY3g9IjE2MS4yNTQwOSIgaWQ9InBhdGgxNzQ5IiBzdHlsZT0ib3BhY2l0eToxO2ZpbGw6I2ZmZmZmZjtmaWxsLW9wYWNpdHk6MTtzdHJva2U6IzY2Mzc2NjtzdHJva2Utd2lkdGg6MTtzdHJva2UtbWl0ZXJsaW1pdDo0O3N0cm9rZS1kYXNoYXJyYXk6bm9uZTtzdHJva2Utb3BhY2l0eToxIi8+JiN4YTsgICAgICA8Y2lyY2xlIHN0eWxlPSJvcGFjaXR5OjE7ZmlsbDojZmZmZmZmO2ZpbGwtb3BhY2l0eToxO3N0cm9rZTojNjYzNzY2O3N0cm9rZS13aWR0aDowLjg4MTEzNTE3O3N0cm9rZS1taXRlcmxpbWl0OjQ7c3Ryb2tlLWRhc2hhcnJheTpub25lO3N0cm9rZS1vcGFjaXR5OjEiIGlkPSJjaXJjbGUxNzUxIiBjeD0iMTYxLjI1NDA5IiBjeT0iMjEzLjI3ODI3IiByPSIyMS45NzQ2ODIiLz4mI3hhOyAgICAgIDxwYXRoIHNvZGlwb2RpOm5vZGV0eXBlcz0iY2NjIiBpbmtzY2FwZTpjb25uZWN0b3ItY3VydmF0dXJlPSIwIiBpZD0icGF0aDE3NTUiIGQ9Im0gMTM5LjAwMDc0LDIwMS45Mzg5OSBjIDkuODI0NDcsLTE3Ljg1MTY5IDM1LjY0NDMsLTE3LjcwMjQ2IDQ0LjY5NTY5LDAgeiIgc3R5bGU9ImZpbGw6IzY2Mzc2NjtmaWxsLW9wYWNpdHk6MTtzdHJva2U6IzY2Mzc2NjtzdHJva2Utd2lkdGg6MC4yNjQ1ODMzMnB4O3N0cm9rZS1saW5lY2FwOmJ1dHQ7c3Ryb2tlLWxpbmVqb2luOm1pdGVyO3N0cm9rZS1vcGFjaXR5OjEiLz4mI3hhOyAgICAgIDxwYXRoIGlua3NjYXBlOmNvbm5lY3Rvci1jdXJ2YXR1cmU9IjAiIGlkPSJwYXRoMTc1NyIgZD0ibSAxNDUuNjE1MzIsMjEwLjA2NTQ4IDMxLjE4MzA0LC0wLjE4ODk5IDAuMTg4OTksLTAuMDk0NSIgc3R5bGU9ImZpbGw6I2ZmZmZmZjtmaWxsLW9wYWNpdHk6MTtzdHJva2U6IzY2Mzc2NjtzdHJva2Utd2lkdGg6MTtzdHJva2UtbGluZWNhcDpidXR0O3N0cm9rZS1saW5lam9pbjptaXRlcjtzdHJva2UtbWl0ZXJsaW1pdDo0O3N0cm9rZS1kYXNoYXJyYXk6bm9uZTtzdHJva2Utb3BhY2l0eToxIi8+JiN4YTsgICAgICA8cGF0aCBzdHlsZT0iZmlsbDojZmZmZmZmO2ZpbGwtb3BhY2l0eToxO3N0cm9rZTojNjYzNzY2O3N0cm9rZS13aWR0aDoxO3N0cm9rZS1saW5lY2FwOmJ1dHQ7c3Ryb2tlLWxpbmVqb2luOm1pdGVyO3N0cm9rZS1taXRlcmxpbWl0OjQ7c3Ryb2tlLWRhc2hhcnJheTpub25lO3N0cm9rZS1vcGFjaXR5OjEiIGQ9Im0gMTQ1LjYxNTMyLDIxNi44NjkwNCAzMS4xODMwNCwtMC4xODg5OSAwLjE4ODk5LC0wLjA5NDUiIGlkPSJwYXRoMTc1OSIgaW5rc2NhcGU6Y29ubmVjdG9yLWN1cnZhdHVyZT0iMCIvPiYjeGE7ICAgICAgPHBhdGggaW5rc2NhcGU6Y29ubmVjdG9yLWN1cnZhdHVyZT0iMCIgaWQ9InBhdGgxNzYxIiBkPSJtIDE0NS40MjYzNCwyMjMuODYxNjEgMzEuMTgzMDQsLTAuMTg4OTkgMC4xODg5OSwtMC4wOTQ1IiBzdHlsZT0iZmlsbDojZmZmZmZmO2ZpbGwtb3BhY2l0eToxO3N0cm9rZTojNjYzNzY2O3N0cm9rZS13aWR0aDoxO3N0cm9rZS1saW5lY2FwOmJ1dHQ7c3Ryb2tlLWxpbmVqb2luOm1pdGVyO3N0cm9rZS1taXRlcmxpbWl0OjQ7c3Ryb2tlLWRhc2hhcnJheTpub25lO3N0cm9rZS1vcGFjaXR5OjEiLz4mI3hhOyAgICA8L2c+JiN4YTsgIDwvZz4mI3hhOyAgPGcgaW5rc2NhcGU6Z3JvdXBtb2RlPSJsYXllciIgaWQ9ImxheWVyNCIgaW5rc2NhcGU6bGFiZWw9IkludHJvX0dyb3VwIG9mIHRvcGljcyIgc3R5bGU9ImRpc3BsYXk6bm9uZSIgdHJhbnNmb3JtPSJ0cmFuc2xhdGUoLTE0MC41MDA4MywtMTY0LjM1MDA0KSI+JiN4YTsgICAgPGcgc3R5bGU9ImRpc3BsYXk6aW5saW5lIiBpZD0iZzE4OTQiIHRyYW5zZm9ybT0ibWF0cml4KDIuNjQwMTIxNCwwLDAsMi42MTE0NTA2LC0yMTIuNzY0MjIsLTQ3MC4yMjY0MykiPiYjeGE7ICAgICAgPGNpcmNsZSBzdHlsZT0ib3BhY2l0eToxO2ZpbGw6I2ZmZmZmZjtmaWxsLW9wYWNpdHk6MTtzdHJva2U6IzY2Mzc2NjtzdHJva2Utd2lkdGg6MTtzdHJva2UtbWl0ZXJsaW1pdDo0O3N0cm9rZS1kYXNoYXJyYXk6bm9uZTtzdHJva2Utb3BhY2l0eToxIiBpZD0iY2lyY2xlMTc3NyIgY3g9IjE2MC4zMDkxNCIgY3k9IjI2OC42NTE3OSIgcj0iMjQuOTM5MDU4Ii8+JiN4YTsgICAgICA8cGF0aCBzdHlsZT0iZmlsbDojNjYzNzY2O2ZpbGwtb3BhY2l0eToxO3N0cm9rZTojNjYzNzY2O3N0cm9rZS13aWR0aDowLjI2NDU4MzMycHg7c3Ryb2tlLWxpbmVjYXA6YnV0dDtzdHJva2UtbGluZWpvaW46bWl0ZXI7c3Ryb2tlLW9wYWNpdHk6MSIgZD0ibSAxMzguMDU1OCwyNTcuMzEyNSBjIDkuODI0NDcsLTE3Ljg1MTY5IDM1LjY0NDMsLTE3LjcwMjQ2IDQ0LjY5NTY5LDAgeiIgaWQ9InBhdGgxNzgxIiBpbmtzY2FwZTpjb25uZWN0b3ItY3VydmF0dXJlPSIwIiBzb2RpcG9kaTpub2RldHlwZXM9ImNjYyIvPiYjeGE7ICAgICAgPHBhdGggc3R5bGU9ImZpbGw6I2ZmZmZmZjtmaWxsLW9wYWNpdHk6MTtzdHJva2U6IzY2Mzc2NjtzdHJva2Utd2lkdGg6MC45NzI5ODQ2MTtzdHJva2UtbGluZWNhcDpidXR0O3N0cm9rZS1saW5lam9pbjptaXRlcjtzdHJva2UtbWl0ZXJsaW1pdDo0O3N0cm9rZS1kYXNoYXJyYXk6bm9uZTtzdHJva2Utb3BhY2l0eToxIiBkPSJtIDE0MS45NzQwNywyNjUuNjk2ODggMzcuNjI4MjYsLTAuMTQ4MjcgMC4yMjgwNiwtMC4wNzQxIiBpZD0icGF0aDE3ODMiIGlua3NjYXBlOmNvbm5lY3Rvci1jdXJ2YXR1cmU9IjAiLz4mI3hhOyAgICAgIDxwYXRoIGlua3NjYXBlOmNvbm5lY3Rvci1jdXJ2YXR1cmU9IjAiIGlkPSJwYXRoMTc4OSIgZD0ibSAxNDEuNTk2MDksMjcyLjY4OTQ0IDM3LjYyODI2LC0wLjE0ODI3IDAuMjI4MDYsLTAuMDc0MSIgc3R5bGU9ImZpbGw6I2ZmZmZmZjtmaWxsLW9wYWNpdHk6MTtzdHJva2U6IzY2Mzc2NjtzdHJva2Utd2lkdGg6MC45NzI5ODQ2MTtzdHJva2UtbGluZWNhcDpidXR0O3N0cm9rZS1saW5lam9pbjptaXRlcjtzdHJva2UtbWl0ZXJsaW1pdDo0O3N0cm9rZS1kYXNoYXJyYXk6bm9uZTtzdHJva2Utb3BhY2l0eToxIi8+JiN4YTsgICAgICA8cGF0aCBzdHlsZT0iZmlsbDojZmZmZmZmO2ZpbGwtb3BhY2l0eToxO3N0cm9rZTojNjYzNzY2O3N0cm9rZS13aWR0aDowLjk3Mjk4NDYxO3N0cm9rZS1saW5lY2FwOmJ1dHQ7c3Ryb2tlLWxpbmVqb2luOm1pdGVyO3N0cm9rZS1taXRlcmxpbWl0OjQ7c3Ryb2tlLWRhc2hhcnJheTpub25lO3N0cm9rZS1vcGFjaXR5OjEiIGQ9Im0gMTQxLjc4NTA4LDI3OS44NzA5OSAzNy42MjgyNiwtMC4xNDgyNyAwLjIyODA2LC0wLjA3NDEiIGlkPSJwYXRoMTc5MSIgaW5rc2NhcGU6Y29ubmVjdG9yLWN1cnZhdHVyZT0iMCIvPiYjeGE7ICAgIDwvZz4mI3hhOyAgPC9nPiYjeGE7ICA8ZyBpbmtzY2FwZTpncm91cG1vZGU9ImxheWVyIiBpZD0ibGF5ZXIzIiBpbmtzY2FwZTpsYWJlbD0iRGlhbG9ndWUgQWN0IiBzdHlsZT0iZGlzcGxheTpub25lIiB0cmFuc2Zvcm09InRyYW5zbGF0ZSgtMTQwLjUwMDgzLC0xNjQuMzUwMDQpIj4mI3hhOyAgICA8ZyBzdHlsZT0iZGlzcGxheTppbmxpbmUiIGlkPSJnMTg2OSI+JiN4YTsgICAgICA8ZWxsaXBzZSBzdHlsZT0ib3BhY2l0eToxO2ZpbGw6Izk5OTk5OTtmaWxsLW9wYWNpdHk6MTtzdHJva2U6Izk5OTk5OTtzdHJva2Utd2lkdGg6MS41O3N0cm9rZS1taXRlcmxpbWl0OjQ7c3Ryb2tlLWRhc2hhcnJheTpub25lO3N0cm9rZS1vcGFjaXR5OjE7ZmlsdGVyOnVybCgjZmlsdGVyMTY4MykiIGlkPSJlbGxpcHNlMTQ4MyIgY3g9IjE0NS43MDk4MSIgY3k9Ijk3LjA1MDU4MyIgcng9IjExLjE1MDI5NyIgcnk9IjExLjMzOTI4NiIvPiYjeGE7ICAgICAgPGVsbGlwc2Ugcnk9IjExLjMzOTI4NiIgcng9IjExLjE1MDI5NyIgY3k9Ijk0LjYwNzE3OCIgY3g9IjE0Ny4zMDk1MSIgaWQ9InBhdGgxMzc5IiBzdHlsZT0ib3BhY2l0eToxO2ZpbGw6dXJsKCNsaW5lYXJHcmFkaWVudDE4NTcpO2ZpbGwtb3BhY2l0eToxO3N0cm9rZTojNjYzNzY2O3N0cm9rZS13aWR0aDoxLjU7c3Ryb2tlLW1pdGVybGltaXQ6NDtzdHJva2UtZGFzaGFycmF5Om5vbmU7c3Ryb2tlLW9wYWNpdHk6MSIvPiYjeGE7ICAgIDwvZz4mI3hhOyAgPC9nPiYjeGE7ICA8ZyBpbmtzY2FwZTpncm91cG1vZGU9ImxheWVyIiBpZD0ibGF5ZXIyIiBpbmtzY2FwZTpsYWJlbD0iTXVsdGlwbGUgdG9waWMiIHN0eWxlPSJkaXNwbGF5Om5vbmUiIHRyYW5zZm9ybT0idHJhbnNsYXRlKC0xNDAuNTAwODMsLTE2NC4zNTAwNCkiPiYjeGE7ICAgIDxyZWN0IHN0eWxlPSJvcGFjaXR5OjE7ZmlsbDpub25lO2ZpbGwtb3BhY2l0eToxO3N0cm9rZTojNjYzNzY2O3N0cm9rZS13aWR0aDoxLjM0MDAzMDQzO3N0cm9rZS1taXRlcmxpbWl0OjQ7c3Ryb2tlLWRhc2hhcnJheTpub25lO3N0cm9rZS1vcGFjaXR5OjEiIGlkPSJyZWN0MTM2NSIgd2lkdGg9IjEzNC4xMjY2MyIgaGVpZ2h0PSI3OC4wMzQ5NzMiIHg9IjEzLjA2MDIwNSIgeT0iMTM2LjI3NzQ1IiByeT0iMTAuMjM5ODgzIi8+JiN4YTsgICAgPHJlY3Qgcnk9IjkuMDk4Nzc0OSIgeT0iMTQwLjgwOTU3IiB4PSIxOS41NTgzODgiIGhlaWdodD0iNjkuMzM4OTIxIiB3aWR0aD0iMTIxLjEzMDI2IiBpZD0icmVjdDEzNjciIHN0eWxlPSJvcGFjaXR5OjE7ZmlsbDpub25lO2ZpbGwtb3BhY2l0eToxO3N0cm9rZTojNjYzNzY2O3N0cm9rZS13aWR0aDoxLjMwODc1NjExO3N0cm9rZS1taXRlcmxpbWl0OjQ7c3Ryb2tlLWRhc2hhcnJheTpub25lO3N0cm9rZS1vcGFjaXR5OjEiLz4mI3hhOyAgPC9nPiYjeGE7PC9zdmc+;shadow=0;labelBackgroundColor=none;fillColor=#000000;gradientColor=none;" parent="1" vertex="1">
          <mxGeometry x="160" y="235" width="19.86" height="20" as="geometry" />
        </mxCell>
      </root>
    </mxGraphModel>
  </diagram>
</mxfile>
